Veleka-Italic.ufo
<glyph name="numbersign" format="1">
  <advance width="743"/>
  <unicode hex="0023"/>
  <outline>
    <contour>
      <point x="696" y="421" type="line"/>
      <point x="539" y="421" type="line"/>
      <point x="491" y="278" type="line"/>
      <point x="652" y="278" type="line"/>
      <point x="652" y="228" type="line"/>
      <point x="474" y="228" type="line"/>
      <point x="389" y="-23" type="line"/>
      <point x="339" y="-7" type="line"/>
      <point x="418" y="228" type="line"/>
      <point x="273" y="228" type="line"/>
      <point x="188" y="-23" type="line"/>
      <point x="138" y="-6" type="line"/>
      <point x="218" y="228" type="line"/>
      <point x="76" y="228" type="line"/>
      <point x="76" y="278" type="line"/>
      <point x="234" y="278" type="line"/>
      <point x="283" y="421" type="line"/>
      <point x="122" y="421" type="line"/>
      <point x="122" y="472" type="line"/>
      <point x="300" y="472" type="line"/>
      <point x="380" y="708" type="line"/>
      <point x="431" y="692" type="line"/>
      <point x="355" y="472" type="line"/>
      <point x="501" y="472" type="line"/>
      <point x="580" y="708" type="line"/>
      <point x="632" y="692" type="line"/>
      <point x="556" y="472" type="line"/>
      <point x="696" y="472" type="line"/>
    </contour>
    <contour>
      <point x="483" y="421" type="line"/>
      <point x="338" y="421" type="line"/>
      <point x="290" y="278" type="line"/>
      <point x="435" y="278" type="line"/>
    </contour>
  </outline>
</glyph>
<glyph name="dollar" format="1">
  <advance width="556"/>
  <unicode hex="0024"/>
  <outline>
    <contour>
      <point x="521" y="642" type="curve"/>
      <point x="489" y="493" type="line"/>
      <point x="430" y="493" type="line"/>
      <point x="435" y="591" type="line" smooth="yes"/>
      <point x="435" y="595"/>
      <point x="428" y="604"/>
      <point x="424" y="606" type="curve" smooth="yes"/>
      <point x="421" y="608"/>
      <point x="396" y="620"/>
      <point x="364" y="623" type="curve"/>
      <point x="317" y="375" type="line"/>
      <point x="406" y="346"/>
      <point x="477" y="293"/>
      <point x="477" y="208" type="curve" smooth="yes"/>
      <point x="477" y="53"/>
      <point x="312" y="6"/>
      <point x="245" y="1" type="curve"/>
      <point x="226" y="-102" type="line"/>
      <point x="167" y="-102" type="line"/>
      <point x="186" y="0" type="line"/>
      <point x="115" y="4"/>
      <point x="67" y="18"/>
      <point x="14" y="44" type="curve"/>
      <point x="46" y="201" type="line"/>
      <point x="113" y="201" type="line"/>
      <point x="104" y="86" type="line" smooth="yes"/>
      <point x="104" y="81"/>
      <point x="108" y="78"/>
      <point x="111" y="77" type="curve" smooth="yes"/>
      <point x="116" y="75"/>
      <point x="156" y="54"/>
      <point x="197" y="51" type="curve"/>
      <point x="246" y="306" type="line"/>
      <point x="162" y="342"/>
      <point x="100" y="393"/>
      <point x="100" y="471" type="curve" smooth="yes"/>
      <point x="100" y="585"/>
      <point x="202" y="657"/>
      <point x="316" y="668" type="curve"/>
      <point x="330" y="743" type="line"/>
      <point x="387" y="743" type="line"/>
      <point x="375" y="671" type="line"/>
      <point x="440" y="669"/>
      <point x="505" y="647"/>
    </contour>
    <contour>
      <point x="306" y="619" type="line"/>
      <point x="242" y="600"/>
      <point x="200" y="557"/>
      <point x="200" y="498" type="curve" smooth="yes"/>
      <point x="200" y="453"/>
      <point x="223" y="423"/>
      <point x="264" y="402" type="curve"/>
    </contour>
    <contour>
      <point x="372" y="181" type="curve" smooth="yes"/>
      <point x="372" y="224"/>
      <point x="350" y="258"/>
      <point x="301" y="281" type="curve"/>
      <point x="257" y="55" type="line"/>
      <point x="331" y="73"/>
      <point x="372" y="119"/>
    </contour>
  </outline>
</glyph>
<glyph name="percent" format="1">
  <advance width="859"/>
  <unicode hex="0025"/>
  <outline>
    <contour>
      <point x="821" y="265" type="curve" smooth="yes"/>
      <point x="821" y="148"/>
      <point x="756" y="-16"/>
      <point x="618" y="-16" type="curve" smooth="yes"/>
      <point x="533" y="-16"/>
      <point x="500" y="47"/>
      <point x="500" y="124" type="curve" smooth="yes"/>
      <point x="500" y="241"/>
      <point x="565" y="404"/>
      <point x="703" y="404" type="curve" smooth="yes"/>
      <point x="788" y="404"/>
      <point x="821" y="342"/>
    </contour>
    <contour>
      <point x="755" y="671" type="line"/>
      <point x="196" y="0" type="line"/>
      <point x="133" y="0" type="line"/>
      <point x="693" y="671" type="line"/>
    </contour>
    <contour>
      <point x="389" y="548" type="curve" smooth="yes"/>
      <point x="389" y="431"/>
      <point x="324" y="267"/>
      <point x="186" y="267" type="curve" smooth="yes"/>
      <point x="101" y="267"/>
      <point x="67" y="330"/>
      <point x="67" y="407" type="curve" smooth="yes"/>
      <point x="67" y="524"/>
      <point x="133" y="687"/>
      <point x="271" y="687" type="curve" smooth="yes"/>
      <point x="356" y="687"/>
      <point x="389" y="625"/>
    </contour>
    <contour>
      <point x="748" y="284" type="curve" smooth="yes"/>
      <point x="748" y="319"/>
      <point x="740" y="366"/>
      <point x="695" y="366" type="curve" smooth="yes"/>
      <point x="605" y="366"/>
      <point x="572" y="175"/>
      <point x="572" y="108" type="curve" smooth="yes"/>
      <point x="572" y="72"/>
      <point x="580" y="21"/>
      <point x="626" y="21" type="curve" smooth="yes"/>
      <point x="715" y="21"/>
      <point x="748" y="218"/>
    </contour>
    <contour>
      <point x="315" y="567" type="curve" smooth="yes"/>
      <point x="315" y="602"/>
      <point x="308" y="649"/>
      <point x="263" y="649" type="curve" smooth="yes"/>
      <point x="172" y="649"/>
      <point x="139" y="458"/>
      <point x="139" y="391" type="curve" smooth="yes"/>
      <point x="139" y="355"/>
      <point x="148" y="305"/>
      <point x="194" y="305" type="curve" smooth="yes"/>
      <point x="283" y="305"/>
      <point x="315" y="501"/>
    </contour>
  </outline>
</glyph>
<glyph name="ampersand" format="1">
  <advance width="704"/>
  <unicode hex="0026"/>
  <outline>
    <contour>
      <point x="673" y="316" type="line"/>
      <point x="601" y="308" type="line"/>
      <point x="573" y="249"/>
      <point x="528" y="183"/>
      <point x="477" y="129" type="curve"/>
      <point x="523" y="67"/>
      <point x="561" y="46"/>
      <point x="638" y="45" type="curve"/>
      <point x="638" y="1" type="line"/>
      <point x="606" y="0"/>
      <point x="584" y="-2"/>
      <point x="565" y="-3" type="curve" smooth="yes"/>
      <point x="544" y="-4"/>
      <point x="524" y="-4"/>
      <point x="506" y="0" type="curve" smooth="yes"/>
      <point x="473" y="6"/>
      <point x="446" y="23"/>
      <point x="410" y="67" type="curve"/>
      <point x="351" y="23"/>
      <point x="284" y="-11"/>
      <point x="191" y="-11" type="curve" smooth="yes"/>
      <point x="91" y="-11"/>
      <point x="12" y="51"/>
      <point x="12" y="155" type="curve" smooth="yes"/>
      <point x="12" y="254"/>
      <point x="89" y="319"/>
      <point x="184" y="367" type="curve"/>
      <point x="154" y="409"/>
      <point x="130" y="449"/>
      <point x="130" y="497" type="curve" smooth="yes"/>
      <point x="130" y="605"/>
      <point x="226" y="684"/>
      <point x="353" y="684" type="curve" smooth="yes"/>
      <point x="462" y="684"/>
      <point x="506" y="618"/>
      <point x="506" y="552" type="curve" smooth="yes"/>
      <point x="506" y="456"/>
      <point x="422" y="399"/>
      <point x="303" y="359" type="curve"/>
      <point x="444" y="173" type="line"/>
      <point x="478" y="211"/>
      <point x="505" y="259"/>
      <point x="521" y="293" type="curve" smooth="yes"/>
      <point x="522" y="296"/>
      <point x="512" y="307"/>
      <point x="511" y="307" type="curve" smooth="yes"/>
      <point x="460" y="316" type="line"/>
      <point x="460" y="362" type="line"/>
      <point x="673" y="362" type="line"/>
    </contour>
    <contour>
      <point x="408" y="543" type="curve" smooth="yes"/>
      <point x="408" y="590"/>
      <point x="382" y="635"/>
      <point x="333" y="635" type="curve" smooth="yes"/>
      <point x="285" y="635"/>
      <point x="220" y="599"/>
      <point x="220" y="524" type="curve" smooth="yes"/>
      <point x="220" y="476"/>
      <point x="248" y="427"/>
      <point x="276" y="393" type="curve"/>
      <point x="354" y="424"/>
      <point x="408" y="467"/>
    </contour>
    <contour>
      <point x="377" y="107" type="curve"/>
      <point x="211" y="328" type="line"/>
      <point x="154" y="291"/>
      <point x="118" y="245"/>
      <point x="118" y="184" type="curve" smooth="yes"/>
      <point x="118" y="104"/>
      <point x="177" y="52"/>
      <point x="242" y="52" type="curve" smooth="yes"/>
      <point x="289" y="52"/>
      <point x="325" y="69"/>
    </contour>
  </outline>
</glyph>
<glyph name="quotesingle" format="1">
  <advance width="169"/>
  <unicode hex="0027"/>
  <outline>
    <contour>
      <point x="220" y="676" type="curve" smooth="yes"/>
      <point x="220" y="655"/>
      <point x="143" y="449"/>
      <point x="133" y="422" type="curve"/>
      <point x="100" y="422" type="line"/>
      <point x="113" y="645" type="line" smooth="yes"/>
      <point x="116" y="685"/>
      <point x="131" y="714"/>
      <point x="177" y="714" type="curve" smooth="yes"/>
      <point x="202" y="714"/>
      <point x="220" y="700"/>
    </contour>
  </outline>
</glyph>
<glyph name="asterisk" format="1">
  <advance width="500"/>
  <unicode hex="002A"/>
  <outline>
    <contour>
      <point x="510" y="570" type="line"/>
      <point x="465" y="513" type="line"/>
      <point x="336" y="506" type="line"/>
      <point x="332" y="520" type="line"/>
      <point x="439" y="591" type="line"/>
    </contour>
    <contour>
      <point x="355" y="655" type="line"/>
      <point x="320" y="530" type="line"/>
      <point x="307" y="530" type="line"/>
      <point x="272" y="655" type="line"/>
      <point x="313" y="716" type="line"/>
    </contour>
    <contour>
      <point x="435" y="337" type="line"/>
      <point x="365" y="363" type="line"/>
      <point x="319" y="483" type="line"/>
      <point x="332" y="492" type="line"/>
      <point x="433" y="411" type="line"/>
    </contour>
    <contour>
      <point x="295" y="520" type="line"/>
      <point x="292" y="506" type="line"/>
      <point x="162" y="513" type="line"/>
      <point x="117" y="570" type="line"/>
      <point x="187" y="591" type="line"/>
    </contour>
    <contour>
      <point x="308" y="483" type="line"/>
      <point x="262" y="363" type="line"/>
      <point x="192" y="337" type="line"/>
      <point x="194" y="411" type="line"/>
      <point x="295" y="492" type="line"/>
    </contour>
  </outline>
</glyph>
<glyph name="comma" format="1">
  <advance width="279"/>
  <unicode hex="002C"/>
  <outline>
    <contour>
      <point x="159" y="47" type="curve" smooth="yes"/>
      <point x="159" y="-66"/>
      <point x="54" y="-160"/>
      <point x="-55" y="-170" type="curve"/>
      <point x="-48" y="-134" type="line"/>
      <point x="34" y="-116"/>
      <point x="75" y="-75"/>
      <point x="90" y="7" type="curve"/>
      <point x="27" y="7" type="line"/>
      <point x="20" y="16"/>
      <point x="17" y="28"/>
      <point x="17" y="39" type="curve" smooth="yes"/>
      <point x="17" y="79"/>
      <point x="53" y="122"/>
      <point x="94" y="122" type="curve" smooth="yes"/>
      <point x="141" y="122"/>
      <point x="159" y="90"/>
    </contour>
  </outline>
</glyph>
<glyph name="slash" format="1">
  <advance width="490"/>
  <unicode hex="002F"/>
  <outline>
    <contour>
      <point x="490" y="671" type="line"/>
      <point x="64" y="-93" type="line"/>
      <point x="0" y="-93" type="line"/>
      <point x="426" y="671" type="line"/>
    </contour>
  </outline>
</glyph>
<glyph name="two" format="1">
  <advance width="556"/>
  <unicode hex="0032"/>
  <outline>
    <contour>
      <point x="535" y="538" type="curve" smooth="yes"/>
      <point x="535" y="447"/>
      <point x="468" y="357"/>
      <point x="382" y="281" type="curve" smooth="yes"/>
      <point x="299" y="207"/>
      <point x="207" y="147"/>
      <point x="116" y="83" type="curve"/>
      <point x="396" y="83" type="line"/>
      <point x="430" y="168" type="line"/>
      <point x="490" y="168" type="line"/>
      <point x="459" y="0" type="line"/>
      <point x="-21" y="0" type="line"/>
      <point x="-8" y="65" type="line"/>
      <point x="281" y="271"/>
      <point x="420" y="380"/>
      <point x="420" y="526" type="curve" smooth="yes"/>
      <point x="420" y="602"/>
      <point x="375" y="632"/>
      <point x="318" y="632" type="curve" smooth="yes"/>
      <point x="282" y="632"/>
      <point x="250" y="616"/>
      <point x="235" y="609" type="curve"/>
      <point x="214" y="503" type="line"/>
      <point x="207" y="498"/>
      <point x="189" y="485"/>
      <point x="158" y="485" type="curve" smooth="yes"/>
      <point x="136" y="485"/>
      <point x="103" y="493"/>
      <point x="103" y="529" type="curve" smooth="yes"/>
      <point x="103" y="603"/>
      <point x="216" y="687"/>
      <point x="350" y="687" type="curve" smooth="yes"/>
      <point x="454" y="687"/>
      <point x="535" y="645"/>
    </contour>
  </outline>
</glyph>
<glyph name="seven" format="1">
  <advance width="556"/>
  <unicode hex="0037"/>
  <outline>
    <contour>
      <point x="604" y="671" type="line"/>
      <point x="596" y="628" type="line"/>
      <point x="141" y="-14" type="line"/>
      <point x="135" y="-37" type="line"/>
      <point x="36" y="-37" type="line"/>
      <point x="481" y="590" type="line"/>
      <point x="190" y="590" type="line"/>
      <point x="158" y="500" type="line"/>
      <point x="94" y="500" type="line"/>
      <point x="128" y="671" type="line"/>
    </contour>
  </outline>
</glyph>
<glyph name="eight" format="1">
  <advance width="556"/>
  <unicode hex="0038"/>
  <outline>
    <contour>
      <point x="530" y="546" type="curve" smooth="yes"/>
      <point x="530" y="440"/>
      <point x="461" y="394"/>
      <point x="380" y="357" type="curve"/>
      <point x="432" y="334"/>
      <point x="505" y="291"/>
      <point x="505" y="209" type="curve" smooth="yes"/>
      <point x="505" y="86"/>
      <point x="384" y="-16"/>
      <point x="228" y="-16" type="curve" smooth="yes"/>
      <point x="91" y="-16"/>
      <point x="15" y="50"/>
      <point x="15" y="148" type="curve" smooth="yes"/>
      <point x="15" y="213"/>
      <point x="56" y="298"/>
      <point x="184" y="354" type="curve"/>
      <point x="116" y="390"/>
      <point x="103" y="438"/>
      <point x="103" y="478" type="curve" smooth="yes"/>
      <point x="103" y="588"/>
      <point x="196" y="687"/>
      <point x="347" y="687" type="curve" smooth="yes"/>
      <point x="468" y="687"/>
      <point x="530" y="625"/>
    </contour>
    <contour>
      <point x="435" y="537" type="curve" smooth="yes"/>
      <point x="435" y="598"/>
      <point x="398" y="639"/>
      <point x="338" y="639" type="curve" smooth="yes"/>
      <point x="263" y="639"/>
      <point x="203" y="576"/>
      <point x="203" y="500" type="curve" smooth="yes"/>
      <point x="203" y="445"/>
      <point x="253" y="411"/>
      <point x="331" y="378" type="curve"/>
      <point x="393" y="411"/>
      <point x="435" y="464"/>
    </contour>
    <contour>
      <point x="398" y="182" type="curve" smooth="yes"/>
      <point x="398" y="244"/>
      <point x="314" y="288"/>
      <point x="229" y="327" type="curve"/>
      <point x="164" y="292"/>
      <point x="115" y="239"/>
      <point x="115" y="166" type="curve" smooth="yes"/>
      <point x="115" y="96"/>
      <point x="163" y="38"/>
      <point x="246" y="38" type="curve" smooth="yes"/>
      <point x="331" y="38"/>
      <point x="398" y="110"/>
    </contour>
  </outline>
</glyph>
<glyph name="nine" format="1">
  <advance width="556"/>
  <unicode hex="0039"/>
  <outline>
    <contour>
      <point x="557" y="478" type="curve" smooth="yes"/>
      <point x="557" y="183"/>
      <point x="290" y="15"/>
      <point x="67" y="-55" type="curve"/>
      <point x="46" y="-8" type="line"/>
      <point x="188" y="47"/>
      <point x="303" y="111"/>
      <point x="401" y="271" type="curve"/>
      <point x="357" y="249"/>
      <point x="301" y="228"/>
      <point x="247" y="228" type="curve" smooth="yes"/>
      <point x="164" y="228"/>
      <point x="65" y="276"/>
      <point x="65" y="405" type="curve" smooth="yes"/>
      <point x="65" y="561"/>
      <point x="190" y="687"/>
      <point x="353" y="687" type="curve" smooth="yes"/>
      <point x="422" y="687"/>
      <point x="557" y="664"/>
    </contour>
    <contour>
      <point x="451" y="477" type="curve" smooth="yes"/>
      <point x="451" y="608"/>
      <point x="384" y="639"/>
      <point x="336" y="639" type="curve" smooth="yes"/>
      <point x="248" y="639"/>
      <point x="174" y="538"/>
      <point x="174" y="425" type="curve" smooth="yes"/>
      <point x="174" y="326"/>
      <point x="240" y="288"/>
      <point x="292" y="288" type="curve" smooth="yes"/>
      <point x="364" y="288"/>
      <point x="423" y="339"/>
      <point x="432" y="349" type="curve"/>
      <point x="439" y="390"/>
      <point x="451" y="435"/>
    </contour>
  </outline>
</glyph>
<glyph name="question" format="1">
  <advance width="485"/>
  <unicode hex="003F"/>
  <outline>
    <contour>
      <point x="463" y="543" type="curve" smooth="yes"/>
      <point x="463" y="409"/>
      <point x="344" y="333"/>
      <point x="235" y="288" type="curve"/>
      <point x="212" y="169" type="line"/>
      <point x="145" y="169" type="line"/>
      <point x="172" y="318" type="line"/>
      <point x="263" y="347"/>
      <point x="354" y="421"/>
      <point x="354" y="533" type="curve" smooth="yes"/>
      <point x="354" y="601"/>
      <point x="314" y="637"/>
      <point x="250" y="637" type="curve"/>
      <point x="189" y="538" type="line"/>
      <point x="160" y="538" type="line" smooth="yes"/>
      <point x="126" y="538"/>
      <point x="105" y="553"/>
      <point x="105" y="579" type="curve" smooth="yes"/>
      <point x="105" y="618"/>
      <point x="147" y="687"/>
      <point x="280" y="687" type="curve" smooth="yes"/>
      <point x="398" y="687"/>
      <point x="463" y="632"/>
    </contour>
    <contour>
      <point x="227" y="44" type="curve" smooth="yes"/>
      <point x="227" y="13"/>
      <point x="204" y="-16"/>
      <point x="163" y="-16" type="curve" smooth="yes"/>
      <point x="121" y="-16"/>
      <point x="96" y="12"/>
      <point x="96" y="43" type="curve" smooth="yes"/>
      <point x="96" y="74"/>
      <point x="121" y="104"/>
      <point x="163" y="104" type="curve" smooth="yes"/>
      <point x="204" y="104"/>
      <point x="227" y="75"/>
    </contour>
  </outline>
</glyph>
<glyph name="at" format="1">
  <advance width="936"/>
  <unicode hex="0040"/>
  <outline>
    <contour>
      <point x="874" y="373" type="curve" smooth="yes"/>
      <point x="874" y="170"/>
      <point x="729" y="56"/>
      <point x="629" y="56" type="curve" smooth="yes"/>
      <point x="574" y="56"/>
      <point x="551" y="84"/>
      <point x="551" y="139" type="curve"/>
      <point x="499" y="87"/>
      <point x="454" y="57"/>
      <point x="407" y="57" type="curve" smooth="yes"/>
      <point x="334" y="57"/>
      <point x="282" y="120"/>
      <point x="282" y="220" type="curve" smooth="yes"/>
      <point x="282" y="373"/>
      <point x="404" y="492"/>
      <point x="530" y="492" type="curve" smooth="yes"/>
      <point x="559" y="492"/>
      <point x="599" y="481"/>
      <point x="628" y="465" type="curve"/>
      <point x="646" y="488" type="line"/>
      <point x="703" y="488" type="line"/>
      <point x="698" y="472"/>
      <point x="634" y="191"/>
      <point x="634" y="191" type="curve" smooth="yes"/>
      <point x="624" y="145"/>
      <point x="633" y="113"/>
      <point x="671" y="113" type="curve" smooth="yes"/>
      <point x="730" y="113"/>
      <point x="825" y="213"/>
      <point x="825" y="372" type="curve" smooth="yes"/>
      <point x="825" y="560"/>
      <point x="685" y="647"/>
      <point x="544" y="647" type="curve" smooth="yes"/>
      <point x="316" y="647"/>
      <point x="154" y="480"/>
      <point x="154" y="257" type="curve" smooth="yes"/>
      <point x="154" y="53"/>
      <point x="283" y="-103"/>
      <point x="504" y="-103" type="curve" smooth="yes"/>
      <point x="621" y="-103"/>
      <point x="708" y="-63"/>
      <point x="769" y="-29" type="curve"/>
      <point x="783" y="-65" type="line"/>
      <point x="693" y="-113"/>
      <point x="596" y="-153"/>
      <point x="480" y="-153" type="curve" smooth="yes"/>
      <point x="266" y="-153"/>
      <point x="83" y="-4"/>
      <point x="83" y="239" type="curve" smooth="yes"/>
      <point x="83" y="535"/>
      <point x="309" y="691"/>
      <point x="532" y="691" type="curve" smooth="yes"/>
      <point x="730" y="691"/>
      <point x="874" y="579"/>
    </contour>
    <contour>
      <point x="594" y="393" type="line" smooth="yes"/>
      <point x="598" y="410"/>
      <point x="571" y="450"/>
      <point x="535" y="450" type="curve" smooth="yes"/>
      <point x="436" y="450"/>
      <point x="374" y="351"/>
      <point x="374" y="229" type="curve" smooth="yes"/>
      <point x="374" y="157"/>
      <point x="402" y="121"/>
      <point x="452" y="121" type="curve" smooth="yes"/>
      <point x="497" y="121"/>
      <point x="533" y="160"/>
      <point x="554" y="186" type="curve"/>
    </contour>
  </outline>
</glyph>
<glyph name="F" format="1">
  <advance width="514"/>
  <unicode hex="0046"/>
  <outline>
    <contour>
      <point x="569" y="671" type="line"/>
      <point x="538" y="510" type="line"/>
      <point x="474" y="510" type="line"/>
      <point x="474" y="602" type="line" smooth="yes"/>
      <point x="474" y="616"/>
      <point x="469" y="621"/>
      <point x="454" y="621" type="curve" smooth="yes"/>
      <point x="275" y="621" type="line"/>
      <point x="226" y="364" type="line"/>
      <point x="354" y="364" type="line" smooth="yes"/>
      <point x="368" y="364"/>
      <point x="375" y="369"/>
      <point x="378" y="383" type="curve" smooth="yes"/>
      <point x="397" y="451" type="line"/>
      <point x="454" y="451" type="line"/>
      <point x="410" y="223" type="line"/>
      <point x="353" y="223" type="line"/>
      <point x="363" y="293" type="line" smooth="yes"/>
      <point x="365" y="306"/>
      <point x="357" y="313"/>
      <point x="343" y="313" type="curve" smooth="yes"/>
      <point x="216" y="313" type="line"/>
      <point x="168" y="66" type="line" smooth="yes"/>
      <point x="166" y="56"/>
      <point x="170" y="48"/>
      <point x="187" y="47" type="curve" smooth="yes"/>
      <point x="252" y="42" type="line"/>
      <point x="252" y="0" type="line"/>
      <point x="-15" y="0" type="line"/>
      <point x="-15" y="42" type="line"/>
      <point x="42" y="47" type="line" smooth="yes"/>
      <point x="55" y="48"/>
      <point x="64" y="54"/>
      <point x="67" y="66" type="curve" smooth="yes"/>
      <point x="171" y="604" type="line" smooth="yes"/>
      <point x="173" y="615"/>
      <point x="169" y="623"/>
      <point x="151" y="624" type="curve" smooth="yes"/>
      <point x="95" y="629" type="line"/>
      <point x="95" y="671" type="line"/>
    </contour>
  </outline>
</glyph>
<glyph name="I" format="1">
  <advance width="313"/>
  <unicode hex="0049"/>
  <outline>
    <contour>
      <point x="356" y="629" type="line"/>
      <point x="292" y="624" type="line" smooth="yes"/>
      <point x="279" y="623"/>
      <point x="275" y="617"/>
      <point x="272" y="604" type="curve" smooth="yes"/>
      <point x="168" y="66" type="line" smooth="yes"/>
      <point x="166" y="56"/>
      <point x="170" y="48"/>
      <point x="188" y="47" type="curve" smooth="yes"/>
      <point x="246" y="42" type="line"/>
      <point x="246" y="0" type="line"/>
      <point x="-15" y="0" type="line"/>
      <point x="-15" y="42" type="line"/>
      <point x="48" y="47" type="line" smooth="yes"/>
      <point x="60" y="48"/>
      <point x="65" y="54"/>
      <point x="67" y="66" type="curve" smooth="yes"/>
      <point x="171" y="604" type="line" smooth="yes"/>
      <point x="173" y="615"/>
      <point x="169" y="623"/>
      <point x="152" y="624" type="curve" smooth="yes"/>
      <point x="96" y="629" type="line"/>
      <point x="96" y="671" type="line"/>
      <point x="356" y="671" type="line"/>
    </contour>
  </outline>
</glyph>
<glyph name="K" format="1">
  <advance width="655"/>
  <unicode hex="004B"/>
  <outline>
    <contour>
      <point x="692" y="629" type="line"/>
      <point x="608" y="621" type="line"/>
      <point x="346" y="368" type="line"/>
      <point x="485" y="99" type="line" smooth="yes"/>
      <point x="510" y="50"/>
      <point x="529" y="40"/>
      <point x="564" y="40" type="curve" smooth="yes"/>
      <point x="576" y="40"/>
      <point x="590" y="41"/>
      <point x="606" y="42" type="curve"/>
      <point x="606" y="0" type="line"/>
      <point x="575" y="-9"/>
      <point x="538" y="-16"/>
      <point x="512" y="-16" type="curve" smooth="yes"/>
      <point x="454" y="-16"/>
      <point x="427" y="0"/>
      <point x="396" y="58" type="curve" smooth="yes"/>
      <point x="273" y="295" type="line"/>
      <point x="212" y="295" type="line"/>
      <point x="167" y="66" type="line" smooth="yes"/>
      <point x="165" y="56"/>
      <point x="170" y="48"/>
      <point x="187" y="47" type="curve" smooth="yes"/>
      <point x="245" y="42" type="line"/>
      <point x="245" y="0" type="line"/>
      <point x="-16" y="0" type="line"/>
      <point x="-16" y="42" type="line"/>
      <point x="42" y="47" type="line" smooth="yes"/>
      <point x="55" y="48"/>
      <point x="64" y="54"/>
      <point x="66" y="66" type="curve" smooth="yes"/>
      <point x="171" y="604" type="line" smooth="yes"/>
      <point x="173" y="615"/>
      <point x="169" y="623"/>
      <point x="152" y="624" type="curve" smooth="yes"/>
      <point x="96" y="629" type="line"/>
      <point x="96" y="671" type="line"/>
      <point x="356" y="671" type="line"/>
      <point x="356" y="629" type="line"/>
      <point x="297" y="624" type="line" smooth="yes"/>
      <point x="284" y="623"/>
      <point x="275" y="617"/>
      <point x="272" y="604" type="curve" smooth="yes"/>
      <point x="221" y="342" type="line"/>
      <point x="238" y="342" type="line"/>
      <point x="504" y="604" type="line" smooth="yes"/>
      <point x="512" y="612"/>
      <point x="511" y="623"/>
      <point x="497" y="624" type="curve" smooth="yes"/>
      <point x="433" y="629" type="line"/>
      <point x="433" y="671" type="line"/>
      <point x="692" y="671" type="line"/>
    </contour>
  </outline>
</glyph>
<glyph name="L" format="1">
  <advance width="518"/>
  <unicode hex="004C"/>
  <outline>
    <contour>
      <point x="483" y="185" type="line"/>
      <point x="447" y="0" type="line"/>
      <point x="-15" y="0" type="line"/>
      <point x="-15" y="42" type="line"/>
      <point x="43" y="47" type="line" smooth="yes"/>
      <point x="56" y="48"/>
      <point x="65" y="54"/>
      <point x="67" y="66" type="curve" smooth="yes"/>
      <point x="171" y="604" type="line" smooth="yes"/>
      <point x="173" y="615"/>
      <point x="169" y="623"/>
      <point x="152" y="624" type="curve" smooth="yes"/>
      <point x="96" y="629" type="line"/>
      <point x="96" y="671" type="line"/>
      <point x="356" y="671" type="line"/>
      <point x="356" y="629" type="line"/>
      <point x="297" y="624" type="line" smooth="yes"/>
      <point x="282" y="623"/>
      <point x="274" y="614"/>
      <point x="272" y="604" type="curve" smooth="yes"/>
      <point x="166" y="50" type="line"/>
      <point x="363" y="50" type="line" smooth="yes"/>
      <point x="376" y="50"/>
      <point x="384" y="58"/>
      <point x="388" y="70" type="curve" smooth="yes"/>
      <point x="424" y="185" type="line"/>
    </contour>
  </outline>
</glyph>
<glyph name="underscore" format="1">
  <advance width="303"/>
  <unicode hex="005F"/>
  <outline>
    <contour>
      <point x="238" y="-88" type="line"/>
      <point x="226" y="-154" type="line"/>
      <point x="-78" y="-154" type="line"/>
      <point x="-64" y="-88" type="line"/>
    </contour>
  </outline>
</glyph>
<glyph name="i" format="1">
  <advance width="266"/>
  <unicode hex="0069"/>
  <outline>
    <contour>
      <point x="259" y="641" type="curve" smooth="yes"/>
      <point x="259" y="612"/>
      <point x="237" y="585"/>
      <point x="198" y="585" type="curve" smooth="yes"/>
      <point x="157" y="585"/>
      <point x="136" y="610"/>
      <point x="136" y="641" type="curve" smooth="yes"/>
      <point x="136" y="667"/>
      <point x="159" y="697"/>
      <point x="199" y="697" type="curve" smooth="yes"/>
      <point x="237" y="697"/>
      <point x="259" y="669"/>
    </contour>
    <contour>
      <point x="263" y="29" type="line"/>
      <point x="248" y="22"/>
      <point x="172" y="-12"/>
      <point x="117" y="-12" type="curve" smooth="yes"/>
      <point x="49" y="-12"/>
      <point x="39" y="40"/>
      <point x="48" y="86" type="curve" smooth="yes"/>
      <point x="112" y="425" type="line"/>
      <point x="26" y="434" type="line"/>
      <point x="26" y="463" type="line"/>
      <point x="177" y="494" type="line"/>
      <point x="218" y="494" type="line"/>
      <point x="142" y="94" type="line" smooth="yes"/>
      <point x="137" y="67"/>
      <point x="154" y="43"/>
      <point x="181" y="43" type="curve" smooth="yes"/>
      <point x="204" y="43"/>
      <point x="250" y="63"/>
      <point x="263" y="67" type="curve"/>
    </contour>
  </outline>
</glyph>
<glyph name="j" format="1">
  <advance width="272"/>
  <unicode hex="006A"/>
  <outline>
    <contour>
      <point x="266" y="641" type="curve" smooth="yes"/>
      <point x="266" y="617"/>
      <point x="241" y="585"/>
      <point x="204" y="585" type="curve" smooth="yes"/>
      <point x="168" y="585"/>
      <point x="142" y="609"/>
      <point x="142" y="641" type="curve" smooth="yes"/>
      <point x="142" y="671"/>
      <point x="162" y="698"/>
      <point x="204" y="698" type="curve" smooth="yes"/>
      <point x="244" y="698"/>
      <point x="266" y="671"/>
    </contour>
    <contour>
      <point x="231" y="494" type="line"/>
      <point x="160" y="80" type="line" smooth="yes"/>
      <point x="143" y="-20"/>
      <point x="72" y="-229"/>
      <point x="-62" y="-229" type="curve" smooth="yes"/>
      <point x="-104" y="-229"/>
      <point x="-129" y="-206"/>
      <point x="-129" y="-176" type="curve" smooth="yes"/>
      <point x="-129" y="-151"/>
      <point x="-111" y="-137"/>
      <point x="-101" y="-131" type="curve"/>
      <point x="-1" y="-158" type="line"/>
      <point x="18" y="-137"/>
      <point x="42" y="-67"/>
      <point x="52" y="-12" type="curve" smooth="yes"/>
      <point x="127" y="425" type="line"/>
      <point x="43" y="434" type="line"/>
      <point x="43" y="463" type="line"/>
      <point x="194" y="494" type="line"/>
    </contour>
  </outline>
</glyph>
<glyph name="l" format="1">
  <advance width="265"/>
  <unicode hex="006C"/>
  <outline>
    <contour>
      <point x="263" y="26" type="line"/>
      <point x="247" y="20"/>
      <point x="171" y="-12"/>
      <point x="124" y="-12" type="curve" smooth="yes"/>
      <point x="63" y="-12"/>
      <point x="39" y="18"/>
      <point x="39" y="61" type="curve" smooth="yes"/>
      <point x="39" y="71"/>
      <point x="40" y="83"/>
      <point x="42" y="96" type="curve" smooth="yes"/>
      <point x="152" y="668" type="line"/>
      <point x="63" y="677" type="line"/>
      <point x="63" y="707" type="line"/>
      <point x="219" y="737" type="line"/>
      <point x="258" y="737" type="line"/>
      <point x="136" y="99" type="line" smooth="yes"/>
      <point x="131" y="72"/>
      <point x="154" y="44"/>
      <point x="182" y="44" type="curve" smooth="yes"/>
      <point x="201" y="44"/>
      <point x="252" y="61"/>
      <point x="263" y="64" type="curve"/>
    </contour>
  </outline>
</glyph>
<glyph name="p" format="1">
  <advance width="494"/>
  <unicode hex="0070"/>
  <outline>
    <contour>
      <point x="462" y="309" type="curve" smooth="yes"/>
      <point x="462" y="145"/>
      <point x="339" y="-12"/>
      <point x="176" y="-12" type="curve" smooth="yes"/>
      <point x="146" y="-12"/>
      <point x="121" y="-1"/>
      <point x="105" y="6" type="curve"/>
      <point x="73" y="-155" type="line" smooth="yes"/>
      <point x="71" y="-166"/>
      <point x="75" y="-173"/>
      <point x="93" y="-175" type="curve" smooth="yes"/>
      <point x="156" y="-180" type="line"/>
      <point x="156" y="-218" type="line"/>
      <point x="-96" y="-218" type="line"/>
      <point x="-96" y="-180" type="line"/>
      <point x="-44" y="-175" type="line" smooth="yes"/>
      <point x="-31" y="-174"/>
      <point x="-22" y="-168"/>
      <point x="-20" y="-155" type="curve" smooth="yes"/>
      <point x="93" y="425" type="line"/>
      <point x="9" y="434" type="line"/>
      <point x="9" y="463" type="line"/>
      <point x="160" y="494" type="line"/>
      <point x="199" y="494" type="line"/>
      <point x="187" y="432" type="line"/>
      <point x="221" y="454"/>
      <point x="275" y="494"/>
      <point x="331" y="494" type="curve" smooth="yes"/>
      <point x="432" y="494"/>
      <point x="462" y="398"/>
    </contour>
    <contour>
      <point x="363" y="305" type="curve" smooth="yes"/>
      <point x="363" y="364"/>
      <point x="339" y="433"/>
      <point x="285" y="433" type="curve" smooth="yes"/>
      <point x="237" y="433"/>
      <point x="186" y="383"/>
      <point x="176" y="375" type="curve"/>
      <point x="116" y="65" type="line"/>
      <point x="128" y="58"/>
      <point x="161" y="35"/>
      <point x="196" y="35" type="curve" smooth="yes"/>
      <point x="305" y="35"/>
      <point x="363" y="194"/>
    </contour>
  </outline>
</glyph>
<glyph name="braceleft" format="1">
  <advance width="485"/>
  <unicode hex="007B"/>
  <outline>
    <contour>
      <point x="511" y="703" type="curve"/>
      <point x="504" y="661" type="line"/>
      <point x="450" y="661"/>
      <point x="416" y="647"/>
      <point x="394" y="626" type="curve" smooth="yes"/>
      <point x="325" y="561"/>
      <point x="361" y="420"/>
      <point x="285" y="344" type="curve" smooth="yes"/>
      <point x="263" y="323"/>
      <point x="231" y="304"/>
      <point x="180" y="291" type="curve"/>
      <point x="210" y="281"/>
      <point x="232" y="270"/>
      <point x="248" y="255" type="curve" smooth="yes"/>
      <point x="331" y="177"/>
      <point x="204" y="-4"/>
      <point x="271" y="-61" type="curve" smooth="yes"/>
      <point x="292" y="-79"/>
      <point x="327" y="-81"/>
      <point x="359" y="-81" type="curve"/>
      <point x="351" y="-123" type="line"/>
      <point x="278" y="-123"/>
      <point x="215" y="-118"/>
      <point x="181" y="-82" type="curve" smooth="yes"/>
      <point x="106" y="0"/>
      <point x="233" y="187"/>
      <point x="164" y="248" type="curve" smooth="yes"/>
      <point x="140" y="270"/>
      <point x="97" y="267"/>
      <point x="58" y="267" type="curve"/>
      <point x="67" y="313" type="line"/>
      <point x="122" y="313"/>
      <point x="164" y="314"/>
      <point x="193" y="343" type="curve" smooth="yes"/>
      <point x="267" y="414"/>
      <point x="222" y="594"/>
      <point x="331" y="667" type="curve" smooth="yes"/>
      <point x="372" y="695"/>
      <point x="430" y="703"/>
    </contour>
  </outline>
</glyph>
<glyph name="bar" format="1">
  <advance width="353"/>
  <unicode hex="007C"/>
  <outline>
    <contour>
      <point x="207" y="-258" type="line"/>
      <point x="146" y="-258" type="line"/>
      <point x="146" y="796" type="line"/>
      <point x="207" y="796" type="line"/>
    </contour>
  </outline>
</glyph>
<glyph name="braceright" format="1">
  <advance width="485"/>
  <unicode hex="007D"/>
  <outline>
    <contour>
      <point x="438" y="313" type="curve"/>
      <point x="429" y="267" type="line"/>
      <point x="374" y="267"/>
      <point x="332" y="266"/>
      <point x="303" y="237" type="curve" smooth="yes"/>
      <point x="229" y="166"/>
      <point x="274" y="-14"/>
      <point x="166" y="-87" type="curve" smooth="yes"/>
      <point x="124" y="-115"/>
      <point x="66" y="-123"/>
      <point x="-15" y="-123" type="curve"/>
      <point x="-8" y="-81" type="line"/>
      <point x="46" y="-81"/>
      <point x="80" y="-67"/>
      <point x="103" y="-46" type="curve" smooth="yes"/>
      <point x="171" y="19"/>
      <point x="135" y="161"/>
      <point x="211" y="236" type="curve" smooth="yes"/>
      <point x="233" y="258"/>
      <point x="265" y="276"/>
      <point x="316" y="290" type="curve"/>
      <point x="286" y="299"/>
      <point x="264" y="310"/>
      <point x="249" y="325" type="curve" smooth="yes"/>
      <point x="165" y="403"/>
      <point x="292" y="585"/>
      <point x="226" y="641" type="curve" smooth="yes"/>
      <point x="204" y="659"/>
      <point x="169" y="661"/>
      <point x="137" y="661" type="curve"/>
      <point x="146" y="703" type="line"/>
      <point x="218" y="703"/>
      <point x="281" y="698"/>
      <point x="315" y="662" type="curve" smooth="yes"/>
      <point x="390" y="580"/>
      <point x="263" y="393"/>
      <point x="332" y="332" type="curve" smooth="yes"/>
      <point x="356" y="310"/>
      <point x="399" y="313"/>
    </contour>
  </outline>
</glyph>
<glyph name="asciitilde" format="1">
  <advance width="833"/>
  <unicode hex="007E"/>
  <outline>
    <contour>
      <point x="754" y="306" type="line"/>
      <point x="677" y="253"/>
      <point x="623" y="236"/>
      <point x="566" y="236" type="curve" smooth="yes"/>
      <point x="471" y="236"/>
      <point x="380" y="303"/>
      <point x="277" y="303" type="curve" smooth="yes"/>
      <point x="226" y="303"/>
      <point x="161" y="274"/>
      <point x="94" y="225" type="curve"/>
      <point x="94" y="290" type="line"/>
      <point x="165" y="341"/>
      <point x="230" y="361"/>
      <point x="284" y="361" type="curve" smooth="yes"/>
      <point x="381" y="361"/>
      <point x="480" y="294"/>
      <point x="567" y="294" type="curve" smooth="yes"/>
      <point x="615" y="294"/>
      <point x="674" y="313"/>
      <point x="754" y="371" type="curve"/>
    </contour>
  </outline>
</glyph>
<glyph name="sterling" format="1">
  <advance width="556"/>
  <unicode hex="00A3"/>
  <outline>
    <contour>
      <point x="581" y="614" type="curve" smooth="yes"/>
      <point x="581" y="563"/>
      <point x="512" y="546"/>
      <point x="484" y="542" type="curve"/>
      <point x="441" y="633" type="line"/>
      <point x="308" y="626"/>
      <point x="286" y="453"/>
      <point x="269" y="353" type="curve"/>
      <point x="451" y="353" type="line"/>
      <point x="451" y="302" type="line"/>
      <point x="257" y="302" type="line"/>
      <point x="240" y="208"/>
      <point x="208" y="137"/>
      <point x="119" y="76" type="curve"/>
      <point x="147" y="79"/>
      <point x="171" y="81"/>
      <point x="187" y="81" type="curve" smooth="yes"/>
      <point x="480" y="81" type="line"/>
      <point x="480" y="0" type="line"/>
      <point x="-4" y="0" type="line"/>
      <point x="-4" y="60" type="line"/>
      <point x="59" y="72"/>
      <point x="95" y="106"/>
      <point x="117" y="150" type="curve" smooth="yes"/>
      <point x="143" y="200"/>
      <point x="149" y="252"/>
      <point x="159" y="302" type="curve"/>
      <point x="88" y="302" type="line"/>
      <point x="88" y="353" type="line"/>
      <point x="166" y="353" type="line"/>
      <point x="172" y="421"/>
      <point x="210" y="687"/>
      <point x="446" y="687" type="curve" smooth="yes"/>
      <point x="495" y="687"/>
      <point x="581" y="671"/>
    </contour>
  </outline>
</glyph>
<glyph name="section" format="1">
  <advance width="500"/>
  <unicode hex="00A7"/>
  <outline>
    <contour>
      <point x="498" y="693" type="curve"/>
      <point x="473" y="562" type="line"/>
      <point x="413" y="562" type="line"/>
      <point x="417" y="644" type="line"/>
      <point x="389" y="662"/>
      <point x="361" y="670"/>
      <point x="335" y="670" type="curve" smooth="yes"/>
      <point x="295" y="670"/>
      <point x="226" y="640"/>
      <point x="226" y="580" type="curve" smooth="yes"/>
      <point x="226" y="514"/>
      <point x="334" y="495"/>
      <point x="405" y="437" type="curve" smooth="yes"/>
      <point x="436" y="411"/>
      <point x="458" y="378"/>
      <point x="458" y="332" type="curve" smooth="yes"/>
      <point x="458" y="250"/>
      <point x="384" y="179"/>
      <point x="303" y="145" type="curve"/>
      <point x="351" y="118"/>
      <point x="384" y="85"/>
      <point x="384" y="38" type="curve" smooth="yes"/>
      <point x="384" y="-73"/>
      <point x="272" y="-140"/>
      <point x="159" y="-140" type="curve" smooth="yes"/>
      <point x="106" y="-140"/>
      <point x="56" y="-129"/>
      <point x="12" y="-107" type="curve"/>
      <point x="35" y="23" type="line"/>
      <point x="99" y="23" type="line"/>
      <point x="96" y="-66" type="line"/>
      <point x="123" y="-84"/>
      <point x="153" y="-91"/>
      <point x="177" y="-91" type="curve" smooth="yes"/>
      <point x="220" y="-91"/>
      <point x="291" y="-59"/>
      <point x="291" y="2" type="curve" smooth="yes"/>
      <point x="291" y="70"/>
      <point x="161" y="109"/>
      <point x="111" y="150" type="curve" smooth="yes"/>
      <point x="80" y="176"/>
      <point x="58" y="208"/>
      <point x="58" y="256" type="curve" smooth="yes"/>
      <point x="58" y="345"/>
      <point x="120" y="405"/>
      <point x="207" y="442" type="curve"/>
      <point x="161" y="470"/>
      <point x="131" y="502"/>
      <point x="131" y="548" type="curve" smooth="yes"/>
      <point x="131" y="667"/>
      <point x="246" y="718"/>
      <point x="362" y="718" type="curve" smooth="yes"/>
      <point x="404" y="718"/>
      <point x="460" y="710"/>
    </contour>
    <contour>
      <point x="362" y="305" type="curve" smooth="yes"/>
      <point x="362" y="348"/>
      <point x="337" y="382"/>
      <point x="255" y="419" type="curve"/>
      <point x="180" y="391"/>
      <point x="153" y="330"/>
      <point x="153" y="289" type="curve" smooth="yes"/>
      <point x="153" y="241"/>
      <point x="173" y="214"/>
      <point x="261" y="168" type="curve"/>
      <point x="319" y="201"/>
      <point x="362" y="250"/>
    </contour>
  </outline>
</glyph>
<glyph name="dieresis" format="1">
  <advance width="316"/>
  <unicode hex="00A8"/>
  <outline>
    <contour>
      <point x="393" y="641" type="curve" smooth="yes"/>
      <point x="393" y="611"/>
      <point x="369" y="585"/>
      <point x="339" y="585" type="curve" smooth="yes"/>
      <point x="309" y="585"/>
      <point x="284" y="611"/>
      <point x="284" y="641" type="curve" smooth="yes"/>
      <point x="284" y="669"/>
      <point x="311" y="696"/>
      <point x="339" y="696" type="curve" smooth="yes"/>
      <point x="369" y="696"/>
      <point x="393" y="671"/>
    </contour>
    <contour>
      <point x="186" y="641" type="curve" smooth="yes"/>
      <point x="186" y="611"/>
      <point x="161" y="585"/>
      <point x="131" y="585" type="curve" smooth="yes"/>
      <point x="102" y="585"/>
      <point x="77" y="611"/>
      <point x="77" y="640" type="curve" smooth="yes"/>
      <point x="77" y="669"/>
      <point x="102" y="696"/>
      <point x="131" y="696" type="curve" smooth="yes"/>
      <point x="161" y="696"/>
      <point x="186" y="671"/>
    </contour>
  </outline>
</glyph>
<glyph name="ordfeminine" format="1">
  <advance width="337"/>
  <unicode hex="00AA"/>
  <outline>
    <contour>
      <point x="394" y="399" type="line"/>
      <point x="383" y="395"/>
      <point x="334" y="376"/>
      <point x="309" y="376" type="curve" smooth="yes"/>
      <point x="277" y="376"/>
      <point x="266" y="390"/>
      <point x="264" y="417" type="curve"/>
      <point x="244" y="399"/>
      <point x="210" y="376"/>
      <point x="171" y="376" type="curve" smooth="yes"/>
      <point x="95" y="376"/>
      <point x="77" y="440"/>
      <point x="77" y="483" type="curve" smooth="yes"/>
      <point x="77" y="576"/>
      <point x="143" y="679"/>
      <point x="265" y="679" type="curve" smooth="yes"/>
      <point x="289" y="679"/>
      <point x="311" y="668"/>
      <point x="323" y="658" type="curve"/>
      <point x="333" y="672" type="line"/>
      <point x="377" y="672" type="line"/>
      <point x="373" y="663"/>
      <point x="366" y="644"/>
      <point x="364" y="638" type="curve" smooth="yes"/>
      <point x="356" y="606"/>
      <point x="322" y="465"/>
      <point x="322" y="438" type="curve" smooth="yes"/>
      <point x="322" y="418"/>
      <point x="333" y="411"/>
      <point x="351" y="411" type="curve" smooth="yes"/>
      <point x="360" y="411"/>
      <point x="387" y="419"/>
      <point x="394" y="420" type="curve"/>
    </contour>
    <contour>
      <point x="349" y="342" type="line"/>
      <point x="342" y="306" type="line"/>
      <point x="42" y="306" type="line"/>
      <point x="50" y="342" type="line"/>
    </contour>
    <contour>
      <point x="298" y="618" type="line" smooth="yes"/>
      <point x="299" y="622"/>
      <point x="282" y="650"/>
      <point x="274" y="650" type="curve" smooth="yes"/>
      <point x="174" y="650"/>
      <point x="142" y="553"/>
      <point x="142" y="487" type="curve" smooth="yes"/>
      <point x="142" y="453"/>
      <point x="151" y="415"/>
      <point x="192" y="415" type="curve" smooth="yes"/>
      <point x="223" y="415"/>
      <point x="254" y="444"/>
      <point x="264" y="453" type="curve"/>
    </contour>
  </outline>
</glyph>
<glyph name="guillemotleft" format="1">
  <advance width="406"/>
  <unicode hex="00AB"/>
  <outline>
    <contour>
      <point x="124" y="0" type="line"/>
      <point x="20" y="215" type="line"/>
      <point x="30" y="266" type="line"/>
      <point x="222" y="482" type="line"/>
      <point x="267" y="482" type="line"/>
      <point x="104" y="241" type="line"/>
      <point x="169" y="0" type="line"/>
    </contour>
    <contour>
      <point x="295" y="0" type="line"/>
      <point x="190" y="215" type="line"/>
      <point x="200" y="266" type="line"/>
      <point x="393" y="482" type="line"/>
      <point x="438" y="482" type="line"/>
      <point x="274" y="241" type="line"/>
      <point x="340" y="0" type="line"/>
    </contour>
  </outline>
</glyph>
<glyph name="registered" format="1">
  <advance width="836"/>
  <unicode hex="00AE"/>
  <outline>
    <contour>
      <point x="823" y="350" type="curve" smooth="yes"/>
      <point x="823" y="137"/>
      <point x="651" y="-36"/>
      <point x="437" y="-36" type="curve" smooth="yes"/>
      <point x="227" y="-36"/>
      <point x="54" y="137"/>
      <point x="54" y="350" type="curve" smooth="yes"/>
      <point x="54" y="563"/>
      <point x="226" y="737"/>
      <point x="439" y="737" type="curve" smooth="yes"/>
      <point x="649" y="737"/>
      <point x="823" y="564"/>
    </contour>
    <contour>
      <point x="780" y="350" type="curve" smooth="yes"/>
      <point x="780" y="541"/>
      <point x="627" y="695"/>
      <point x="439" y="695" type="curve" smooth="yes"/>
      <point x="252" y="695"/>
      <point x="97" y="543"/>
      <point x="97" y="348" type="curve" smooth="yes"/>
      <point x="97" y="161"/>
      <point x="249" y="6"/>
      <point x="438" y="6" type="curve" smooth="yes"/>
      <point x="627" y="6"/>
      <point x="780" y="162"/>
    </contour>
    <contour>
      <point x="687" y="142" type="line"/>
      <point x="681" y="141"/>
      <point x="650" y="137"/>
      <point x="629" y="137" type="curve" smooth="yes"/>
      <point x="451" y="137"/>
      <point x="569" y="337"/>
      <point x="393" y="337" type="curve" smooth="yes"/>
      <point x="378" y="337"/>
      <point x="362" y="336"/>
      <point x="360" y="336" type="curve" smooth="yes"/>
      <point x="360" y="187" type="line" smooth="yes"/>
      <point x="360" y="181"/>
      <point x="364" y="174"/>
      <point x="375" y="173" type="curve" smooth="yes"/>
      <point x="413" y="170" type="line"/>
      <point x="413" y="142" type="line"/>
      <point x="236" y="142" type="line"/>
      <point x="236" y="170" type="line"/>
      <point x="274" y="173" type="line" smooth="yes"/>
      <point x="284" y="174"/>
      <point x="289" y="181"/>
      <point x="289" y="187" type="curve" smooth="yes"/>
      <point x="289" y="535" type="line" smooth="yes"/>
      <point x="289" y="541"/>
      <point x="284" y="548"/>
      <point x="274" y="549" type="curve" smooth="yes"/>
      <point x="236" y="552" type="line"/>
      <point x="236" y="580" type="line"/>
      <point x="422" y="580" type="line" smooth="yes"/>
      <point x="531" y="580"/>
      <point x="597" y="550"/>
      <point x="597" y="464" type="curve" smooth="yes"/>
      <point x="597" y="396"/>
      <point x="541" y="368"/>
      <point x="480" y="355" type="curve"/>
      <point x="638" y="320"/>
      <point x="511" y="169"/>
      <point x="687" y="169" type="curve"/>
    </contour>
    <contour>
      <point x="519" y="461" type="curve" smooth="yes"/>
      <point x="519" y="516"/>
      <point x="484" y="549"/>
      <point x="394" y="549" type="curve" smooth="yes"/>
      <point x="360" y="549" type="line"/>
      <point x="360" y="369" type="line" smooth="yes"/>
      <point x="362" y="369"/>
      <point x="386" y="368"/>
      <point x="397" y="368" type="curve" smooth="yes"/>
      <point x="476" y="368"/>
      <point x="519" y="391"/>
    </contour>
  </outline>
</glyph>
<glyph name="degree" format="1">
  <advance width="319"/>
  <unicode hex="00B0"/>
  <outline>
    <contour>
      <point x="270" y="610" type="curve" smooth="yes"/>
      <point x="270" y="549"/>
      <point x="221" y="500"/>
      <point x="160" y="500" type="curve" smooth="yes"/>
      <point x="99" y="500"/>
      <point x="50" y="549"/>
      <point x="50" y="610" type="curve" smooth="yes"/>
      <point x="50" y="671"/>
      <point x="99" y="720"/>
      <point x="160" y="720" type="curve" smooth="yes"/>
      <point x="221" y="720"/>
      <point x="270" y="671"/>
    </contour>
    <contour>
      <point x="230" y="610" type="curve" smooth="yes"/>
      <point x="230" y="649"/>
      <point x="199" y="680"/>
      <point x="160" y="680" type="curve" smooth="yes"/>
      <point x="121" y="680"/>
      <point x="90" y="649"/>
      <point x="90" y="610" type="curve" smooth="yes"/>
      <point x="90" y="571"/>
      <point x="121" y="540"/>
      <point x="160" y="540" type="curve" smooth="yes"/>
      <point x="199" y="540"/>
      <point x="230" y="571"/>
    </contour>
  </outline>
</glyph>
<glyph name="threesuperior" format="1">
  <advance width="360"/>
  <unicode hex="00B3"/>
  <outline>
    <contour>
      <point x="400" y="706" type="curve" smooth="yes"/>
      <point x="400" y="662"/>
      <point x="363" y="620"/>
      <point x="296" y="599" type="curve"/>
      <point x="338" y="592"/>
      <point x="375" y="569"/>
      <point x="375" y="521" type="curve" smooth="yes"/>
      <point x="375" y="442"/>
      <point x="288" y="376"/>
      <point x="184" y="376" type="curve" smooth="yes"/>
      <point x="103" y="376"/>
      <point x="67" y="414"/>
      <point x="67" y="444" type="curve" smooth="yes"/>
      <point x="67" y="456"/>
      <point x="74" y="481"/>
      <point x="106" y="481" type="curve" smooth="yes"/>
      <point x="120" y="481"/>
      <point x="132" y="476"/>
      <point x="132" y="476" type="curve"/>
      <point x="142" y="425" type="line"/>
      <point x="148" y="422"/>
      <point x="167" y="412"/>
      <point x="191" y="412" type="curve" smooth="yes"/>
      <point x="257" y="412"/>
      <point x="306" y="457"/>
      <point x="306" y="513" type="curve" smooth="yes"/>
      <point x="306" y="564"/>
      <point x="262" y="573"/>
      <point x="233" y="573" type="curve" smooth="yes"/>
      <point x="210" y="573"/>
      <point x="190" y="570"/>
      <point x="190" y="570" type="curve"/>
      <point x="196" y="612" type="line"/>
      <point x="280" y="607"/>
      <point x="330" y="647"/>
      <point x="330" y="698" type="curve" smooth="yes"/>
      <point x="330" y="741"/>
      <point x="294" y="757"/>
      <point x="265" y="757" type="curve" smooth="yes"/>
      <point x="234" y="757"/>
      <point x="212" y="743"/>
      <point x="207" y="739" type="curve"/>
      <point x="198" y="683" type="line"/>
      <point x="198" y="683"/>
      <point x="177" y="674"/>
      <point x="164" y="674" type="curve" smooth="yes"/>
      <point x="153" y="674"/>
      <point x="132" y="683"/>
      <point x="132" y="706" type="curve" smooth="yes"/>
      <point x="132" y="758"/>
      <point x="215" y="792"/>
      <point x="286" y="792" type="curve" smooth="yes"/>
      <point x="354" y="792"/>
      <point x="400" y="764"/>
    </contour>
  </outline>
</glyph>
<glyph name="acute" format="1">
  <advance width="291"/>
  <unicode hex="00B4"/>
  <outline>
    <contour>
      <point x="378" y="689" type="curve" smooth="yes"/>
      <point x="378" y="670"/>
      <point x="369" y="658"/>
      <point x="354" y="648" type="curve" smooth="yes"/>
      <point x="204" y="551" type="line"/>
      <point x="134" y="551" type="line"/>
      <point x="270" y="707" type="line" smooth="yes"/>
      <point x="283" y="722"/>
      <point x="297" y="732"/>
      <point x="327" y="732" type="curve" smooth="yes"/>
      <point x="362" y="732"/>
      <point x="378" y="709"/>
    </contour>
  </outline>
</glyph>
<glyph name="mu" format="1">
  <advance width="546"/>
  <unicode hex="00B5"/>
  <outline>
    <contour>
      <point x="522" y="108" type="line"/>
      <point x="506" y="47"/>
      <point x="467" y="-12"/>
      <point x="397" y="-12" type="curve" smooth="yes"/>
      <point x="338" y="-12"/>
      <point x="326" y="35"/>
      <point x="329" y="85" type="curve"/>
      <point x="284" y="43"/>
      <point x="226" y="-12"/>
      <point x="160" y="-12" type="curve" smooth="yes"/>
      <point x="128" y="-12"/>
      <point x="93" y="-1"/>
      <point x="80" y="32" type="curve"/>
      <point x="71" y="-15"/>
      <point x="68" y="-59"/>
      <point x="68" y="-107" type="curve" smooth="yes"/>
      <point x="68" y="-149"/>
      <point x="64" y="-222"/>
      <point x="6" y="-222" type="curve" smooth="yes"/>
      <point x="-17" y="-222"/>
      <point x="-28" y="-201"/>
      <point x="-28" y="-180" type="curve" smooth="yes"/>
      <point x="-28" y="-142"/>
      <point x="3" y="-91"/>
      <point x="17" y="-55" type="curve" smooth="yes"/>
      <point x="35" y="-4"/>
      <point x="48" y="48"/>
      <point x="58" y="101" type="curve" smooth="yes"/>
      <point x="133" y="482" type="line"/>
      <point x="226" y="482" type="line"/>
      <point x="170" y="197" type="line" smooth="yes"/>
      <point x="164" y="169"/>
      <point x="158" y="140"/>
      <point x="158" y="110" type="curve" smooth="yes"/>
      <point x="158" y="77"/>
      <point x="177" y="51"/>
      <point x="213" y="51" type="curve" smooth="yes"/>
      <point x="261" y="51"/>
      <point x="302" y="89"/>
      <point x="335" y="120" type="curve"/>
      <point x="407" y="482" type="line"/>
      <point x="500" y="482" type="line"/>
      <point x="432" y="137" type="line" smooth="yes"/>
      <point x="427" y="114"/>
      <point x="407" y="45"/>
      <point x="447" y="45" type="curve" smooth="yes"/>
      <point x="478" y="45"/>
      <point x="493" y="85"/>
      <point x="502" y="108" type="curve"/>
    </contour>
  </outline>
</glyph>
<glyph name="cedilla" format="1">
  <advance width="237"/>
  <unicode hex="00B8"/>
  <outline>
    <contour>
      <point x="164" y="-112" type="curve" smooth="yes"/>
      <point x="164" y="-181"/>
      <point x="99" y="-223"/>
      <point x="23" y="-223" type="curve" smooth="yes"/>
      <point x="-7" y="-223"/>
      <point x="-43" y="-215"/>
      <point x="-57" y="-211" type="curve"/>
      <point x="-48" y="-171" type="line"/>
      <point x="-33" y="-175"/>
      <point x="-5" y="-182"/>
      <point x="17" y="-182" type="curve" smooth="yes"/>
      <point x="35" y="-182"/>
      <point x="83" y="-174"/>
      <point x="83" y="-135" type="curve" smooth="yes"/>
      <point x="83" y="-115"/>
      <point x="65" y="-108"/>
      <point x="50" y="-108" type="curve" smooth="yes"/>
      <point x="44" y="-108"/>
      <point x="39" y="-111"/>
      <point x="18" y="-121" type="curve"/>
      <point x="46" y="24" type="line"/>
      <point x="98" y="24" type="line"/>
      <point x="82" y="-61" type="line"/>
      <point x="87" y="-60"/>
      <point x="92" y="-59"/>
      <point x="97" y="-59" type="curve" smooth="yes"/>
      <point x="141" y="-59"/>
      <point x="164" y="-76"/>
    </contour>
  </outline>
</glyph>
<glyph name="onesuperior" format="1">
  <advance width="360"/>
  <unicode hex="00B9"/>
  <outline>
    <contour>
      <point x="326" y="792" type="line"/>
      <point x="253" y="437" type="line" smooth="yes"/>
      <point x="251" y="426"/>
      <point x="255" y="420"/>
      <point x="267" y="419" type="curve" smooth="yes"/>
      <point x="310" y="416" type="line"/>
      <point x="310" y="383" type="line"/>
      <point x="115" y="383" type="line"/>
      <point x="115" y="417" type="line"/>
      <point x="170" y="419" type="line" smooth="yes"/>
      <point x="184" y="420"/>
      <point x="190" y="426"/>
      <point x="192" y="437" type="curve" smooth="yes"/>
      <point x="252" y="732" type="line"/>
      <point x="156" y="721" type="line"/>
      <point x="156" y="753" type="line"/>
      <point x="305" y="792" type="line"/>
    </contour>
  </outline>
</glyph>
<glyph name="onequarter" format="1">
  <advance width="878"/>
  <unicode hex="00BC"/>
  <outline>
    <contour>
      <point x="790" y="162" type="line"/>
      <point x="780" y="116" type="line"/>
      <point x="708" y="116" type="line"/>
      <point x="679" y="-21" type="line"/>
      <point x="621" y="-21" type="line"/>
      <point x="649" y="116" type="line"/>
      <point x="443" y="116" type="line"/>
      <point x="452" y="160" type="line"/>
      <point x="724" y="410" type="line"/>
      <point x="770" y="410" type="line"/>
      <point x="718" y="162" type="line"/>
    </contour>
    <contour>
      <point x="752" y="698" type="line"/>
      <point x="171" y="0" type="line"/>
      <point x="100" y="0" type="line"/>
      <point x="681" y="698" type="line"/>
    </contour>
    <contour>
      <point x="279" y="701" type="line"/>
      <point x="206" y="346" type="line" smooth="yes"/>
      <point x="204" y="335"/>
      <point x="209" y="329"/>
      <point x="220" y="329" type="curve" smooth="yes"/>
      <point x="263" y="325" type="line"/>
      <point x="263" y="292" type="line"/>
      <point x="68" y="292" type="line"/>
      <point x="68" y="326" type="line"/>
      <point x="123" y="329" type="line" smooth="yes"/>
      <point x="137" y="329"/>
      <point x="143" y="335"/>
      <point x="146" y="346" type="curve" smooth="yes"/>
      <point x="205" y="641" type="line"/>
      <point x="109" y="630" type="line"/>
      <point x="109" y="662" type="line"/>
      <point x="258" y="701" type="line"/>
    </contour>
    <contour>
      <point x="694" y="329" type="line"/>
      <point x="515" y="162" type="line"/>
      <point x="660" y="162" type="line"/>
    </contour>
  </outline>
</glyph>
<glyph name="questiondown" format="1">
  <advance width="485"/>
  <unicode hex="00BF"/>
  <outline>
    <contour>
      <point x="380" y="435" type="curve" smooth="yes"/>
      <point x="380" y="404"/>
      <point x="355" y="373"/>
      <point x="314" y="373" type="curve" smooth="yes"/>
      <point x="272" y="373"/>
      <point x="250" y="403"/>
      <point x="250" y="434" type="curve" smooth="yes"/>
      <point x="250" y="465"/>
      <point x="272" y="494"/>
      <point x="314" y="494" type="curve" smooth="yes"/>
      <point x="355" y="494"/>
      <point x="380" y="466"/>
    </contour>
    <contour>
      <point x="371" y="-101" type="curve" smooth="yes"/>
      <point x="371" y="-140"/>
      <point x="329" y="-209"/>
      <point x="196" y="-209" type="curve" smooth="yes"/>
      <point x="78" y="-209"/>
      <point x="13" y="-154"/>
      <point x="13" y="-66" type="curve" smooth="yes"/>
      <point x="13" y="69"/>
      <point x="132" y="145"/>
      <point x="241" y="190" type="curve"/>
      <point x="264" y="309" type="line"/>
      <point x="332" y="309" type="line"/>
      <point x="304" y="160" type="line"/>
      <point x="213" y="131"/>
      <point x="122" y="57"/>
      <point x="122" y="-55" type="curve" smooth="yes"/>
      <point x="122" y="-123"/>
      <point x="162" y="-159"/>
      <point x="227" y="-159" type="curve"/>
      <point x="287" y="-60" type="line"/>
      <point x="316" y="-60" type="line" smooth="yes"/>
      <point x="350" y="-60"/>
      <point x="371" y="-75"/>
    </contour>
  </outline>
</glyph>
<glyph name="Atilde" format="1">
  <advance width="672"/>
  <unicode hex="00C3"/>
  <outline>
    <contour>
      <point x="626" y="0" type="line"/>
      <point x="391" y="0" type="line"/>
      <point x="391" y="42" type="line"/>
      <point x="437" y="47" type="line" smooth="yes"/>
      <point x="452" y="49"/>
      <point x="458" y="55"/>
      <point x="456" y="66" type="curve" smooth="yes"/>
      <point x="426" y="257" type="line"/>
      <point x="199" y="257" type="line"/>
      <point x="97" y="66" type="line" smooth="yes"/>
      <point x="90" y="53"/>
      <point x="97" y="49"/>
      <point x="116" y="47" type="curve" smooth="yes"/>
      <point x="162" y="42" type="line"/>
      <point x="162" y="0" type="line"/>
      <point x="-53" y="0" type="line"/>
      <point x="-53" y="42" type="line"/>
      <point x="3" y="48" type="line"/>
      <point x="372" y="687" type="line"/>
      <point x="452" y="687" type="line"/>
      <point x="560" y="66" type="line" smooth="yes"/>
      <point x="562" y="53"/>
      <point x="566" y="48"/>
      <point x="580" y="47" type="curve" smooth="yes"/>
      <point x="626" y="42" type="line"/>
    </contour>
    <contour>
      <point x="417" y="304" type="line"/>
      <point x="374" y="564" type="line"/>
      <point x="226" y="304" type="line"/>
    </contour>
    <contour>
      <point x="622" y="886" type="line"/>
      <point x="594" y="828"/>
      <point x="549" y="780"/>
      <point x="477" y="780" type="curve" smooth="yes"/>
      <point x="450" y="780"/>
      <point x="432" y="790"/>
      <point x="411" y="803" type="curve" smooth="yes"/>
      <point x="394" y="814"/>
      <point x="378" y="826"/>
      <point x="347" y="826" type="curve" smooth="yes"/>
      <point x="330" y="826"/>
      <point x="302" y="807"/>
      <point x="291" y="780" type="curve"/>
      <point x="238" y="780" type="line"/>
      <point x="266" y="838"/>
      <point x="310" y="886"/>
      <point x="382" y="886" type="curve" smooth="yes"/>
      <point x="409" y="886"/>
      <point x="428" y="876"/>
      <point x="449" y="862" type="curve" smooth="yes"/>
      <point x="466" y="852"/>
      <point x="482" y="840"/>
      <point x="513" y="840" type="curve" smooth="yes"/>
      <point x="531" y="840"/>
      <point x="558" y="859"/>
      <point x="569" y="886" type="curve"/>
    </contour>
  </outline>
</glyph>
<glyph name="Aring" format="1">
  <advance width="672"/>
  <unicode hex="00C5"/>
  <outline>
    <contour>
      <point x="626" y="0" type="line"/>
      <point x="391" y="0" type="line"/>
      <point x="391" y="42" type="line"/>
      <point x="437" y="47" type="line" smooth="yes"/>
      <point x="452" y="49"/>
      <point x="458" y="55"/>
      <point x="456" y="66" type="curve" smooth="yes"/>
      <point x="426" y="257" type="line"/>
      <point x="199" y="257" type="line"/>
      <point x="97" y="66" type="line" smooth="yes"/>
      <point x="90" y="53"/>
      <point x="97" y="49"/>
      <point x="116" y="47" type="curve" smooth="yes"/>
      <point x="162" y="42" type="line"/>
      <point x="162" y="0" type="line"/>
      <point x="-53" y="0" type="line"/>
      <point x="-53" y="42" type="line"/>
      <point x="3" y="48" type="line"/>
      <point x="372" y="687" type="line"/>
      <point x="452" y="687" type="line"/>
      <point x="560" y="66" type="line" smooth="yes"/>
      <point x="562" y="53"/>
      <point x="566" y="48"/>
      <point x="580" y="47" type="curve" smooth="yes"/>
      <point x="626" y="42" type="line"/>
    </contour>
    <contour>
      <point x="417" y="304" type="line"/>
      <point x="374" y="564" type="line"/>
      <point x="226" y="304" type="line"/>
    </contour>
    <contour>
      <point x="415" y="746" type="curve" smooth="yes"/>
      <point x="359" y="746"/>
      <point x="318" y="786"/>
      <point x="318" y="841" type="curve" smooth="yes"/>
      <point x="318" y="914"/>
      <point x="384" y="980"/>
      <point x="457" y="980" type="curve" smooth="yes"/>
      <point x="513" y="980"/>
      <point x="555" y="940"/>
      <point x="555" y="884" type="curve" smooth="yes"/>
      <point x="555" y="810"/>
      <point x="488" y="746"/>
    </contour>
    <contour>
      <point x="503" y="877" type="curve" smooth="yes"/>
      <point x="503" y="908"/>
      <point x="480" y="928"/>
      <point x="450" y="928" type="curve" smooth="yes"/>
      <point x="409" y="928"/>
      <point x="369" y="892"/>
      <point x="369" y="850" type="curve" smooth="yes"/>
      <point x="369" y="819"/>
      <point x="393" y="798"/>
      <point x="423" y="798" type="curve" smooth="yes"/>
      <point x="464" y="798"/>
      <point x="503" y="836"/>
    </contour>
  </outline>
</glyph>
<glyph name="Ccedilla" format="1">
  <advance width="629"/>
  <unicode hex="00C7"/>
  <outline>
    <contour>
      <point x="644" y="647" type="curve"/>
      <point x="617" y="491" type="line"/>
      <point x="558" y="491" type="line"/>
      <point x="558" y="584" type="line" smooth="yes"/>
      <point x="558" y="594"/>
      <point x="549" y="608"/>
      <point x="540" y="611" type="curve" smooth="yes"/>
      <point x="535" y="614"/>
      <point x="503" y="636"/>
      <point x="455" y="636" type="curve" smooth="yes"/>
      <point x="302" y="636"/>
      <point x="154" y="487"/>
      <point x="154" y="256" type="curve" smooth="yes"/>
      <point x="154" y="105"/>
      <point x="247" y="35"/>
      <point x="359" y="35" type="curve" smooth="yes"/>
      <point x="402" y="35"/>
      <point x="429" y="50"/>
      <point x="434" y="52" type="curve" smooth="yes"/>
      <point x="442" y="53"/>
      <point x="453" y="63"/>
      <point x="457" y="72" type="curve" smooth="yes"/>
      <point x="500" y="186" type="line"/>
      <point x="559" y="186" type="line"/>
      <point x="532" y="24" type="line"/>
      <point x="517" y="19"/>
      <point x="423" y="-16"/>
      <point x="326" y="-16" type="curve" smooth="yes"/>
      <point x="127" y="-16"/>
      <point x="48" y="125"/>
      <point x="48" y="267" type="curve" smooth="yes"/>
      <point x="48" y="480"/>
      <point x="212" y="687"/>
      <point x="450" y="687" type="curve" smooth="yes"/>
      <point x="515" y="687"/>
      <point x="567" y="672"/>
    </contour>
    <contour>
      <point x="399" y="-112" type="curve" smooth="yes"/>
      <point x="399" y="-181"/>
      <point x="334" y="-223"/>
      <point x="258" y="-223" type="curve" smooth="yes"/>
      <point x="228" y="-223"/>
      <point x="192" y="-215"/>
      <point x="178" y="-211" type="curve"/>
      <point x="187" y="-171" type="line"/>
      <point x="202" y="-175"/>
      <point x="230" y="-182"/>
      <point x="252" y="-182" type="curve" smooth="yes"/>
      <point x="270" y="-182"/>
      <point x="318" y="-174"/>
      <point x="318" y="-135" type="curve" smooth="yes"/>
      <point x="318" y="-115"/>
      <point x="300" y="-108"/>
      <point x="285" y="-108" type="curve" smooth="yes"/>
      <point x="279" y="-108"/>
      <point x="274" y="-111"/>
      <point x="253" y="-121" type="curve"/>
      <point x="281" y="24" type="line"/>
      <point x="333" y="24" type="line"/>
      <point x="317" y="-61" type="line"/>
      <point x="322" y="-60"/>
      <point x="327" y="-59"/>
      <point x="332" y="-59" type="curve" smooth="yes"/>
      <point x="376" y="-59"/>
      <point x="399" y="-76"/>
    </contour>
  </outline>
</glyph>
<glyph name="Iacute" format="1">
  <advance width="313"/>
  <unicode hex="00CD"/>
  <outline>
    <contour>
      <point x="356" y="629" type="line"/>
      <point x="292" y="624" type="line" smooth="yes"/>
      <point x="279" y="623"/>
      <point x="275" y="617"/>
      <point x="272" y="604" type="curve" smooth="yes"/>
      <point x="168" y="66" type="line" smooth="yes"/>
      <point x="166" y="56"/>
      <point x="170" y="48"/>
      <point x="188" y="47" type="curve" smooth="yes"/>
      <point x="246" y="42" type="line"/>
      <point x="246" y="0" type="line"/>
      <point x="-15" y="0" type="line"/>
      <point x="-15" y="42" type="line"/>
      <point x="48" y="47" type="line" smooth="yes"/>
      <point x="60" y="48"/>
      <point x="65" y="54"/>
      <point x="67" y="66" type="curve" smooth="yes"/>
      <point x="171" y="604" type="line" smooth="yes"/>
      <point x="173" y="615"/>
      <point x="169" y="623"/>
      <point x="152" y="624" type="curve" smooth="yes"/>
      <point x="96" y="629" type="line"/>
      <point x="96" y="671" type="line"/>
      <point x="356" y="671" type="line"/>
    </contour>
    <contour>
      <point x="403" y="884" type="curve" smooth="yes"/>
      <point x="403" y="865"/>
      <point x="394" y="853"/>
      <point x="379" y="843" type="curve" smooth="yes"/>
      <point x="229" y="746" type="line"/>
      <point x="159" y="746" type="line"/>
      <point x="295" y="902" type="line" smooth="yes"/>
      <point x="308" y="917"/>
      <point x="323" y="927"/>
      <point x="353" y="927" type="curve" smooth="yes"/>
      <point x="388" y="927"/>
      <point x="403" y="904"/>
    </contour>
  </outline>
</glyph>
<glyph name="Ntilde" format="1">
  <advance width="710"/>
  <unicode hex="00D1"/>
  <outline>
    <contour>
      <point x="755" y="629" type="line"/>
      <point x="698" y="624" type="line" smooth="yes"/>
      <point x="685" y="623"/>
      <point x="676" y="617"/>
      <point x="673" y="604" type="curve" smooth="yes"/>
      <point x="555" y="0" type="line"/>
      <point x="483" y="0" type="line"/>
      <point x="231" y="531" type="line"/>
      <point x="142" y="66" type="line" smooth="yes"/>
      <point x="140" y="56"/>
      <point x="144" y="48"/>
      <point x="162" y="47" type="curve" smooth="yes"/>
      <point x="218" y="42" type="line"/>
      <point x="218" y="0" type="line"/>
      <point x="-14" y="0" type="line"/>
      <point x="-14" y="42" type="line"/>
      <point x="43" y="47" type="line" smooth="yes"/>
      <point x="56" y="48"/>
      <point x="65" y="54"/>
      <point x="68" y="66" type="curve" smooth="yes"/>
      <point x="171" y="604" type="line" smooth="yes"/>
      <point x="173" y="615"/>
      <point x="169" y="623"/>
      <point x="152" y="624" type="curve" smooth="yes"/>
      <point x="96" y="629" type="line"/>
      <point x="96" y="671" type="line"/>
      <point x="289" y="671" type="line"/>
      <point x="289" y="645" type="line"/>
      <point x="514" y="168" type="line"/>
      <point x="599" y="604" type="line" smooth="yes"/>
      <point x="601" y="615"/>
      <point x="597" y="623"/>
      <point x="580" y="624" type="curve" smooth="yes"/>
      <point x="523" y="629" type="line"/>
      <point x="523" y="671" type="line"/>
      <point x="755" y="671" type="line"/>
    </contour>
    <contour>
      <point x="645" y="886" type="line"/>
      <point x="617" y="828"/>
      <point x="572" y="780"/>
      <point x="500" y="780" type="curve" smooth="yes"/>
      <point x="473" y="780"/>
      <point x="455" y="790"/>
      <point x="434" y="803" type="curve" smooth="yes"/>
      <point x="417" y="814"/>
      <point x="401" y="826"/>
      <point x="370" y="826" type="curve" smooth="yes"/>
      <point x="353" y="826"/>
      <point x="325" y="807"/>
      <point x="314" y="780" type="curve"/>
      <point x="261" y="780" type="line"/>
      <point x="289" y="838"/>
      <point x="333" y="886"/>
      <point x="405" y="886" type="curve" smooth="yes"/>
      <point x="432" y="886"/>
      <point x="451" y="876"/>
      <point x="472" y="862" type="curve" smooth="yes"/>
      <point x="489" y="852"/>
      <point x="505" y="840"/>
      <point x="536" y="840" type="curve" smooth="yes"/>
      <point x="554" y="840"/>
      <point x="581" y="859"/>
      <point x="592" y="886" type="curve"/>
    </contour>
  </outline>
</glyph>
<glyph name="Oacute" format="1">
  <advance width="709"/>
  <unicode hex="00D3"/>
  <outline>
    <contour>
      <point x="691" y="417" type="curve" smooth="yes"/>
      <point x="691" y="206"/>
      <point x="555" y="-16"/>
      <point x="320" y="-16" type="curve" smooth="yes"/>
      <point x="160" y="-16"/>
      <point x="48" y="94"/>
      <point x="48" y="262" type="curve" smooth="yes"/>
      <point x="48" y="477"/>
      <point x="200" y="687"/>
      <point x="420" y="687" type="curve" smooth="yes"/>
      <point x="586" y="687"/>
      <point x="691" y="566"/>
    </contour>
    <contour>
      <point x="577" y="417" type="curve" smooth="yes"/>
      <point x="577" y="550"/>
      <point x="507" y="637"/>
      <point x="411" y="637" type="curve" smooth="yes"/>
      <point x="265" y="637"/>
      <point x="161" y="431"/>
      <point x="161" y="254" type="curve" smooth="yes"/>
      <point x="161" y="119"/>
      <point x="234" y="36"/>
      <point x="327" y="36" type="curve" smooth="yes"/>
      <point x="473" y="36"/>
      <point x="577" y="247"/>
    </contour>
    <contour>
      <point x="601" y="884" type="curve" smooth="yes"/>
      <point x="601" y="865"/>
      <point x="592" y="853"/>
      <point x="577" y="843" type="curve" smooth="yes"/>
      <point x="427" y="746" type="line"/>
      <point x="357" y="746" type="line"/>
      <point x="493" y="902" type="line" smooth="yes"/>
      <point x="506" y="917"/>
      <point x="520" y="927"/>
      <point x="550" y="927" type="curve" smooth="yes"/>
      <point x="585" y="927"/>
      <point x="601" y="904"/>
    </contour>
  </outline>
</glyph>
<glyph name="Otilde" format="1">
  <advance width="709"/>
  <unicode hex="00D5"/>
  <outline>
    <contour>
      <point x="691" y="417" type="curve" smooth="yes"/>
      <point x="691" y="206"/>
      <point x="555" y="-16"/>
      <point x="320" y="-16" type="curve" smooth="yes"/>
      <point x="160" y="-16"/>
      <point x="48" y="94"/>
      <point x="48" y="262" type="curve" smooth="yes"/>
      <point x="48" y="477"/>
      <point x="200" y="687"/>
      <point x="420" y="687" type="curve" smooth="yes"/>
      <point x="586" y="687"/>
      <point x="691" y="566"/>
    </contour>
    <contour>
      <point x="577" y="417" type="curve" smooth="yes"/>
      <point x="577" y="550"/>
      <point x="507" y="637"/>
      <point x="411" y="637" type="curve" smooth="yes"/>
      <point x="265" y="637"/>
      <point x="161" y="431"/>
      <point x="161" y="254" type="curve" smooth="yes"/>
      <point x="161" y="119"/>
      <point x="234" y="36"/>
      <point x="327" y="36" type="curve" smooth="yes"/>
      <point x="473" y="36"/>
      <point x="577" y="247"/>
    </contour>
    <contour>
      <point x="648" y="886" type="line"/>
      <point x="620" y="828"/>
      <point x="575" y="780"/>
      <point x="503" y="780" type="curve" smooth="yes"/>
      <point x="476" y="780"/>
      <point x="458" y="790"/>
      <point x="437" y="803" type="curve" smooth="yes"/>
      <point x="420" y="814"/>
      <point x="404" y="826"/>
      <point x="373" y="826" type="curve" smooth="yes"/>
      <point x="356" y="826"/>
      <point x="328" y="807"/>
      <point x="317" y="780" type="curve"/>
      <point x="264" y="780" type="line"/>
      <point x="292" y="838"/>
      <point x="336" y="886"/>
      <point x="408" y="886" type="curve" smooth="yes"/>
      <point x="435" y="886"/>
      <point x="454" y="876"/>
      <point x="475" y="862" type="curve" smooth="yes"/>
      <point x="492" y="852"/>
      <point x="508" y="840"/>
      <point x="539" y="840" type="curve" smooth="yes"/>
      <point x="557" y="840"/>
      <point x="584" y="859"/>
      <point x="595" y="886" type="curve"/>
    </contour>
  </outline>
</glyph>
<glyph name="Uacute" format="1">
  <advance width="707"/>
  <unicode hex="00DA"/>
  <outline>
    <contour>
      <point x="749" y="629" type="line"/>
      <point x="691" y="624" type="line" smooth="yes"/>
      <point x="679" y="623"/>
      <point x="669" y="617"/>
      <point x="667" y="604" type="curve" smooth="yes"/>
      <point x="590" y="214" type="line" smooth="yes"/>
      <point x="562" y="69"/>
      <point x="470" y="-16"/>
      <point x="311" y="-16" type="curve" smooth="yes"/>
      <point x="188" y="-16"/>
      <point x="92" y="32"/>
      <point x="92" y="159" type="curve" smooth="yes"/>
      <point x="92" y="179"/>
      <point x="96" y="218"/>
      <point x="105" y="264" type="curve" smooth="yes"/>
      <point x="175" y="604" type="line" smooth="yes"/>
      <point x="177" y="615"/>
      <point x="173" y="623"/>
      <point x="155" y="624" type="curve" smooth="yes"/>
      <point x="99" y="629" type="line"/>
      <point x="99" y="671" type="line"/>
      <point x="359" y="671" type="line"/>
      <point x="359" y="629" type="line"/>
      <point x="300" y="624" type="line" smooth="yes"/>
      <point x="288" y="623"/>
      <point x="278" y="617"/>
      <point x="276" y="604" type="curve" smooth="yes"/>
      <point x="207" y="264" type="line" smooth="yes"/>
      <point x="199" y="225"/>
      <point x="196" y="193"/>
      <point x="196" y="175" type="curve" smooth="yes"/>
      <point x="196" y="91"/>
      <point x="251" y="49"/>
      <point x="337" y="49" type="curve" smooth="yes"/>
      <point x="467" y="49"/>
      <point x="508" y="142"/>
      <point x="529" y="249" type="curve" smooth="yes"/>
      <point x="599" y="604" type="line" smooth="yes"/>
      <point x="601" y="615"/>
      <point x="597" y="623"/>
      <point x="579" y="624" type="curve" smooth="yes"/>
      <point x="523" y="629" type="line"/>
      <point x="523" y="671" type="line"/>
      <point x="749" y="671" type="line"/>
    </contour>
    <contour>
      <point x="604" y="884" type="curve" smooth="yes"/>
      <point x="604" y="865"/>
      <point x="596" y="853"/>
      <point x="581" y="843" type="curve" smooth="yes"/>
      <point x="431" y="746" type="line"/>
      <point x="360" y="746" type="line"/>
      <point x="497" y="902" type="line" smooth="yes"/>
      <point x="510" y="917"/>
      <point x="524" y="927"/>
      <point x="554" y="927" type="curve" smooth="yes"/>
      <point x="589" y="927"/>
      <point x="604" y="904"/>
    </contour>
  </outline>
</glyph>
<glyph name="Ucircumflex" format="1">
  <advance width="707"/>
  <unicode hex="00DB"/>
  <outline>
    <contour>
      <point x="749" y="629" type="line"/>
      <point x="691" y="624" type="line" smooth="yes"/>
      <point x="679" y="623"/>
      <point x="669" y="617"/>
      <point x="667" y="604" type="curve" smooth="yes"/>
      <point x="590" y="214" type="line" smooth="yes"/>
      <point x="562" y="69"/>
      <point x="470" y="-16"/>
      <point x="311" y="-16" type="curve" smooth="yes"/>
      <point x="188" y="-16"/>
      <point x="92" y="32"/>
      <point x="92" y="159" type="curve" smooth="yes"/>
      <point x="92" y="179"/>
      <point x="96" y="218"/>
      <point x="105" y="264" type="curve" smooth="yes"/>
      <point x="175" y="604" type="line" smooth="yes"/>
      <point x="177" y="615"/>
      <point x="173" y="623"/>
      <point x="155" y="624" type="curve" smooth="yes"/>
      <point x="99" y="629" type="line"/>
      <point x="99" y="671" type="line"/>
      <point x="359" y="671" type="line"/>
      <point x="359" y="629" type="line"/>
      <point x="300" y="624" type="line" smooth="yes"/>
      <point x="288" y="623"/>
      <point x="278" y="617"/>
      <point x="276" y="604" type="curve" smooth="yes"/>
      <point x="207" y="264" type="line" smooth="yes"/>
      <point x="199" y="225"/>
      <point x="196" y="193"/>
      <point x="196" y="175" type="curve" smooth="yes"/>
      <point x="196" y="91"/>
      <point x="251" y="49"/>
      <point x="337" y="49" type="curve" smooth="yes"/>
      <point x="467" y="49"/>
      <point x="508" y="142"/>
      <point x="529" y="249" type="curve" smooth="yes"/>
      <point x="599" y="604" type="line" smooth="yes"/>
      <point x="601" y="615"/>
      <point x="597" y="623"/>
      <point x="579" y="624" type="curve" smooth="yes"/>
      <point x="523" y="629" type="line"/>
      <point x="523" y="671" type="line"/>
      <point x="749" y="671" type="line"/>
    </contour>
    <contour>
      <point x="613" y="746" type="line"/>
      <point x="543" y="746" type="line"/>
      <point x="461" y="838" type="line"/>
      <point x="341" y="746" type="line"/>
      <point x="271" y="746" type="line"/>
      <point x="436" y="916" type="line"/>
      <point x="515" y="916" type="line"/>
    </contour>
  </outline>
</glyph>
<glyph name="Yacute" format="1">
  <advance width="639"/>
  <unicode hex="00DD"/>
  <outline>
    <contour>
      <point x="711" y="629" type="line"/>
      <point x="655" y="625" type="line" smooth="yes"/>
      <point x="645" y="624"/>
      <point x="634" y="615"/>
      <point x="629" y="610" type="curve" smooth="yes"/>
      <point x="375" y="281" type="line"/>
      <point x="333" y="66" type="line" smooth="yes"/>
      <point x="330" y="56"/>
      <point x="335" y="48"/>
      <point x="352" y="47" type="curve" smooth="yes"/>
      <point x="408" y="42" type="line"/>
      <point x="408" y="0" type="line"/>
      <point x="148" y="0" type="line"/>
      <point x="148" y="42" type="line"/>
      <point x="206" y="47" type="line" smooth="yes"/>
      <point x="218" y="48"/>
      <point x="227" y="54"/>
      <point x="230" y="66" type="curve" smooth="yes"/>
      <point x="271" y="272" type="line"/>
      <point x="159" y="610" type="line" smooth="yes"/>
      <point x="155" y="623"/>
      <point x="147" y="624"/>
      <point x="140" y="625" type="curve" smooth="yes"/>
      <point x="84" y="629" type="line"/>
      <point x="84" y="671" type="line"/>
      <point x="343" y="671" type="line"/>
      <point x="343" y="629" type="line"/>
      <point x="279" y="625" type="line" smooth="yes"/>
      <point x="268" y="624"/>
      <point x="261" y="616"/>
      <point x="265" y="605" type="curve" smooth="yes"/>
      <point x="347" y="345" type="line"/>
      <point x="540" y="605" type="line" smooth="yes"/>
      <point x="546" y="614"/>
      <point x="549" y="624"/>
      <point x="532" y="625" type="curve" smooth="yes"/>
      <point x="470" y="629" type="line"/>
      <point x="470" y="671" type="line"/>
      <point x="711" y="671" type="line"/>
    </contour>
    <contour>
      <point x="569" y="884" type="curve" smooth="yes"/>
      <point x="569" y="865"/>
      <point x="560" y="853"/>
      <point x="545" y="843" type="curve" smooth="yes"/>
      <point x="396" y="746" type="line"/>
      <point x="325" y="746" type="line"/>
      <point x="461" y="902" type="line" smooth="yes"/>
      <point x="474" y="917"/>
      <point x="489" y="927"/>
      <point x="519" y="927" type="curve" smooth="yes"/>
      <point x="554" y="927"/>
      <point x="569" y="904"/>
    </contour>
  </outline>
</glyph>
<glyph name="Thorn" format="1">
  <advance width="565"/>
  <unicode hex="00DE"/>
  <outline>
    <contour>
      <point x="545" y="385" type="curve" smooth="yes"/>
      <point x="545" y="224"/>
      <point x="415" y="125"/>
      <point x="241" y="125" type="curve" smooth="yes"/>
      <point x="221" y="125"/>
      <point x="177" y="126"/>
      <point x="177" y="126" type="curve"/>
      <point x="166" y="66" type="line" smooth="yes"/>
      <point x="164" y="56"/>
      <point x="168" y="48"/>
      <point x="186" y="47" type="curve" smooth="yes"/>
      <point x="243" y="42" type="line"/>
      <point x="243" y="0" type="line"/>
      <point x="-17" y="0" type="line"/>
      <point x="-17" y="42" type="line"/>
      <point x="41" y="47" type="line" smooth="yes"/>
      <point x="53" y="48"/>
      <point x="62" y="54"/>
      <point x="65" y="66" type="curve" smooth="yes"/>
      <point x="170" y="604" type="line" smooth="yes"/>
      <point x="172" y="615"/>
      <point x="168" y="623"/>
      <point x="150" y="624" type="curve" smooth="yes"/>
      <point x="94" y="629" type="line"/>
      <point x="94" y="671" type="line"/>
      <point x="352" y="671" type="line"/>
      <point x="352" y="629" type="line"/>
      <point x="294" y="624" type="line" smooth="yes"/>
      <point x="282" y="623"/>
      <point x="272" y="617"/>
      <point x="270" y="604" type="curve" smooth="yes"/>
      <point x="259" y="545" type="line"/>
      <point x="318" y="545" type="line" smooth="yes"/>
      <point x="481" y="545"/>
      <point x="545" y="479"/>
    </contour>
    <contour>
      <point x="441" y="369" type="curve" smooth="yes"/>
      <point x="441" y="446"/>
      <point x="401" y="499"/>
      <point x="286" y="499" type="curve" smooth="yes"/>
      <point x="274" y="499"/>
      <point x="258" y="498"/>
      <point x="249" y="497" type="curve"/>
      <point x="187" y="178" type="line"/>
      <point x="245" y="173"/>
      <point x="306" y="182"/>
      <point x="354" y="210" type="curve" smooth="yes"/>
      <point x="403" y="240"/>
      <point x="441" y="291"/>
    </contour>
  </outline>
</glyph>
<glyph name="eacute" format="1">
  <advance width="434"/>
  <unicode hex="00E9"/>
  <outline>
    <contour>
      <point x="417" y="393" type="curve" smooth="yes"/>
      <point x="417" y="284"/>
      <point x="252" y="227"/>
      <point x="133" y="220" type="curve"/>
      <point x="131" y="207"/>
      <point x="129" y="186"/>
      <point x="129" y="174" type="curve" smooth="yes"/>
      <point x="129" y="101"/>
      <point x="166" y="48"/>
      <point x="224" y="48" type="curve" smooth="yes"/>
      <point x="269" y="48"/>
      <point x="321" y="81"/>
      <point x="394" y="145" type="curve"/>
      <point x="394" y="82" type="line"/>
      <point x="357" y="46"/>
      <point x="282" y="-12"/>
      <point x="191" y="-12" type="curve" smooth="yes"/>
      <point x="130" y="-12"/>
      <point x="32" y="18"/>
      <point x="32" y="170" type="curve" smooth="yes"/>
      <point x="32" y="328"/>
      <point x="153" y="493"/>
      <point x="296" y="493" type="curve" smooth="yes"/>
      <point x="388" y="493"/>
      <point x="417" y="422"/>
    </contour>
    <contour>
      <point x="328" y="394" type="curve" smooth="yes"/>
      <point x="328" y="420"/>
      <point x="307" y="447"/>
      <point x="274" y="447" type="curve" smooth="yes"/>
      <point x="208" y="447"/>
      <point x="155" y="334"/>
      <point x="137" y="258" type="curve"/>
      <point x="222" y="266"/>
      <point x="328" y="323"/>
    </contour>
    <contour>
      <point x="458" y="689" type="curve" smooth="yes"/>
      <point x="458" y="670"/>
      <point x="449" y="658"/>
      <point x="434" y="648" type="curve" smooth="yes"/>
      <point x="284" y="551" type="line"/>
      <point x="214" y="551" type="line"/>
      <point x="350" y="707" type="line" smooth="yes"/>
      <point x="363" y="722"/>
      <point x="377" y="732"/>
      <point x="407" y="732" type="curve" smooth="yes"/>
      <point x="442" y="732"/>
      <point x="458" y="709"/>
    </contour>
  </outline>
</glyph>
<glyph name="edieresis" format="1">
  <advance width="434"/>
  <unicode hex="00EB"/>
  <outline>
    <contour>
      <point x="417" y="393" type="curve" smooth="yes"/>
      <point x="417" y="284"/>
      <point x="252" y="227"/>
      <point x="133" y="220" type="curve"/>
      <point x="131" y="207"/>
      <point x="129" y="186"/>
      <point x="129" y="174" type="curve" smooth="yes"/>
      <point x="129" y="101"/>
      <point x="166" y="48"/>
      <point x="224" y="48" type="curve" smooth="yes"/>
      <point x="269" y="48"/>
      <point x="321" y="81"/>
      <point x="394" y="145" type="curve"/>
      <point x="394" y="82" type="line"/>
      <point x="357" y="46"/>
      <point x="282" y="-12"/>
      <point x="191" y="-12" type="curve" smooth="yes"/>
      <point x="130" y="-12"/>
      <point x="32" y="18"/>
      <point x="32" y="170" type="curve" smooth="yes"/>
      <point x="32" y="328"/>
      <point x="153" y="493"/>
      <point x="296" y="493" type="curve" smooth="yes"/>
      <point x="388" y="493"/>
      <point x="417" y="422"/>
    </contour>
    <contour>
      <point x="328" y="394" type="curve" smooth="yes"/>
      <point x="328" y="420"/>
      <point x="307" y="447"/>
      <point x="274" y="447" type="curve" smooth="yes"/>
      <point x="208" y="447"/>
      <point x="155" y="334"/>
      <point x="137" y="258" type="curve"/>
      <point x="222" y="266"/>
      <point x="328" y="323"/>
    </contour>
    <contour>
      <point x="472" y="641" type="curve" smooth="yes"/>
      <point x="472" y="611"/>
      <point x="447" y="585"/>
      <point x="417" y="585" type="curve" smooth="yes"/>
      <point x="387" y="585"/>
      <point x="363" y="611"/>
      <point x="363" y="641" type="curve" smooth="yes"/>
      <point x="363" y="669"/>
      <point x="389" y="696"/>
      <point x="417" y="696" type="curve" smooth="yes"/>
      <point x="447" y="696"/>
      <point x="472" y="671"/>
    </contour>
    <contour>
      <point x="265" y="641" type="curve" smooth="yes"/>
      <point x="265" y="611"/>
      <point x="239" y="585"/>
      <point x="209" y="585" type="curve" smooth="yes"/>
      <point x="180" y="585"/>
      <point x="156" y="611"/>
      <point x="156" y="640" type="curve" smooth="yes"/>
      <point x="156" y="669"/>
      <point x="180" y="696"/>
      <point x="209" y="696" type="curve" smooth="yes"/>
      <point x="239" y="696"/>
      <point x="265" y="671"/>
    </contour>
  </outline>
</glyph>
<glyph name="icircumflex" format="1">
  <advance width="266"/>
  <unicode hex="00EE"/>
  <outline>
    <contour>
      <point x="263" y="29" type="line"/>
      <point x="248" y="22"/>
      <point x="172" y="-12"/>
      <point x="117" y="-12" type="curve" smooth="yes"/>
      <point x="49" y="-12"/>
      <point x="39" y="40"/>
      <point x="48" y="86" type="curve" smooth="yes"/>
      <point x="112" y="425" type="line"/>
      <point x="26" y="434" type="line"/>
      <point x="26" y="463" type="line"/>
      <point x="177" y="494" type="line"/>
      <point x="218" y="494" type="line"/>
      <point x="142" y="94" type="line" smooth="yes"/>
      <point x="137" y="67"/>
      <point x="154" y="43"/>
      <point x="181" y="43" type="curve" smooth="yes"/>
      <point x="204" y="43"/>
      <point x="250" y="63"/>
      <point x="263" y="67" type="curve"/>
    </contour>
    <contour>
      <point x="359" y="551" type="line"/>
      <point x="289" y="551" type="line"/>
      <point x="207" y="643" type="line"/>
      <point x="87" y="551" type="line"/>
      <point x="17" y="551" type="line"/>
      <point x="182" y="720" type="line"/>
      <point x="261" y="720" type="line"/>
    </contour>
  </outline>
</glyph>
<glyph name="eth" format="1">
  <advance width="505"/>
  <unicode hex="00F0"/>
  <outline>
    <contour>
      <point x="485" y="657" type="line"/>
      <point x="373" y="612" type="line"/>
      <point x="420" y="529"/>
      <point x="468" y="400"/>
      <point x="468" y="294" type="curve" smooth="yes"/>
      <point x="468" y="175"/>
      <point x="402" y="-12"/>
      <point x="210" y="-12" type="curve" smooth="yes"/>
      <point x="105" y="-12"/>
      <point x="32" y="60"/>
      <point x="32" y="179" type="curve" smooth="yes"/>
      <point x="32" y="344"/>
      <point x="138" y="494"/>
      <point x="289" y="494" type="curve" smooth="yes"/>
      <point x="306" y="494"/>
      <point x="322" y="488"/>
      <point x="337" y="479" type="curve"/>
      <point x="323" y="515"/>
      <point x="301" y="562"/>
      <point x="292" y="581" type="curve"/>
      <point x="153" y="524" type="line"/>
      <point x="135" y="569" type="line"/>
      <point x="266" y="619" type="line"/>
      <point x="231" y="668" type="line"/>
      <point x="154" y="688" type="line"/>
      <point x="158" y="718" type="line"/>
      <point x="288" y="737" type="line"/>
      <point x="348" y="652" type="line"/>
      <point x="466" y="699" type="line"/>
    </contour>
    <contour>
      <point x="370" y="291" type="curve" smooth="yes"/>
      <point x="370" y="354"/>
      <point x="362" y="394"/>
      <point x="350" y="435" type="curve"/>
      <point x="339" y="444"/>
      <point x="323" y="451"/>
      <point x="300" y="451" type="curve" smooth="yes"/>
      <point x="181" y="451"/>
      <point x="133" y="297"/>
      <point x="133" y="183" type="curve" smooth="yes"/>
      <point x="133" y="79"/>
      <point x="178" y="34"/>
      <point x="222" y="34" type="curve" smooth="yes"/>
      <point x="319" y="34"/>
      <point x="370" y="173"/>
    </contour>
  </outline>
</glyph>
<glyph name="oacute" format="1">
  <advance width="505"/>
  <unicode hex="00F3"/>
  <outline>
    <contour>
      <point x="475" y="300" type="curve" smooth="yes"/>
      <point x="475" y="138"/>
      <point x="363" y="-12"/>
      <point x="209" y="-12" type="curve" smooth="yes"/>
      <point x="99" y="-12"/>
      <point x="31" y="61"/>
      <point x="31" y="177" type="curve" smooth="yes"/>
      <point x="31" y="339"/>
      <point x="139" y="494"/>
      <point x="296" y="494" type="curve" smooth="yes"/>
      <point x="392" y="494"/>
      <point x="475" y="435"/>
    </contour>
    <contour>
      <point x="374" y="304" type="curve" smooth="yes"/>
      <point x="374" y="399"/>
      <point x="336" y="451"/>
      <point x="285" y="451" type="curve" smooth="yes"/>
      <point x="198" y="451"/>
      <point x="132" y="312"/>
      <point x="132" y="182" type="curve" smooth="yes"/>
      <point x="132" y="83"/>
      <point x="171" y="33"/>
      <point x="221" y="33" type="curve" smooth="yes"/>
      <point x="316" y="33"/>
      <point x="374" y="186"/>
    </contour>
    <contour>
      <point x="479" y="689" type="curve" smooth="yes"/>
      <point x="479" y="670"/>
      <point x="470" y="658"/>
      <point x="455" y="648" type="curve" smooth="yes"/>
      <point x="305" y="551" type="line"/>
      <point x="235" y="551" type="line"/>
      <point x="371" y="707" type="line" smooth="yes"/>
      <point x="384" y="722"/>
      <point x="398" y="732"/>
      <point x="428" y="732" type="curve" smooth="yes"/>
      <point x="463" y="732"/>
      <point x="479" y="709"/>
    </contour>
  </outline>
</glyph>
<glyph name="Amacron" format="1">
  <advance width="672"/>
  <unicode hex="0100"/>
  <outline>
    <contour>
      <point x="626" y="0" type="line"/>
      <point x="391" y="0" type="line"/>
      <point x="391" y="42" type="line"/>
      <point x="437" y="47" type="line" smooth="yes"/>
      <point x="452" y="49"/>
      <point x="458" y="55"/>
      <point x="456" y="66" type="curve" smooth="yes"/>
      <point x="426" y="257" type="line"/>
      <point x="199" y="257" type="line"/>
      <point x="97" y="66" type="line" smooth="yes"/>
      <point x="90" y="53"/>
      <point x="97" y="49"/>
      <point x="116" y="47" type="curve" smooth="yes"/>
      <point x="162" y="42" type="line"/>
      <point x="162" y="0" type="line"/>
      <point x="-53" y="0" type="line"/>
      <point x="-53" y="42" type="line"/>
      <point x="3" y="48" type="line"/>
      <point x="372" y="687" type="line"/>
      <point x="452" y="687" type="line"/>
      <point x="560" y="66" type="line" smooth="yes"/>
      <point x="562" y="53"/>
      <point x="566" y="48"/>
      <point x="580" y="47" type="curve" smooth="yes"/>
      <point x="626" y="42" type="line"/>
    </contour>
    <contour>
      <point x="417" y="304" type="line"/>
      <point x="374" y="564" type="line"/>
      <point x="226" y="304" type="line"/>
    </contour>
    <contour>
      <point x="583" y="847" type="line"/>
      <point x="571" y="781" type="line"/>
      <point x="268" y="781" type="line"/>
      <point x="282" y="847" type="line"/>
    </contour>
  </outline>
</glyph>
<glyph name="Aogonek" format="1">
  <advance width="672"/>
  <unicode hex="0104"/>
  <outline>
    <contour>
      <point x="626" y="0" type="line"/>
      <point x="391" y="0" type="line"/>
      <point x="391" y="42" type="line"/>
      <point x="437" y="47" type="line" smooth="yes"/>
      <point x="452" y="49"/>
      <point x="458" y="55"/>
      <point x="456" y="66" type="curve" smooth="yes"/>
      <point x="426" y="257" type="line"/>
      <point x="199" y="257" type="line"/>
      <point x="97" y="66" type="line" smooth="yes"/>
      <point x="90" y="53"/>
      <point x="97" y="49"/>
      <point x="116" y="47" type="curve" smooth="yes"/>
      <point x="162" y="42" type="line"/>
      <point x="162" y="0" type="line"/>
      <point x="-53" y="0" type="line"/>
      <point x="-53" y="42" type="line"/>
      <point x="3" y="48" type="line"/>
      <point x="372" y="687" type="line"/>
      <point x="452" y="687" type="line"/>
      <point x="560" y="66" type="line" smooth="yes"/>
      <point x="562" y="53"/>
      <point x="566" y="48"/>
      <point x="580" y="47" type="curve" smooth="yes"/>
      <point x="626" y="42" type="line"/>
    </contour>
    <contour>
      <point x="417" y="304" type="line"/>
      <point x="374" y="564" type="line"/>
      <point x="226" y="304" type="line"/>
    </contour>
    <contour>
      <point x="561" y="0" type="line"/>
      <point x="524" y="-29"/>
      <point x="480" y="-72"/>
      <point x="480" y="-123" type="curve" smooth="yes"/>
      <point x="480" y="-147"/>
      <point x="499" y="-157"/>
      <point x="521" y="-157" type="curve" smooth="yes"/>
      <point x="534" y="-157"/>
      <point x="546" y="-155"/>
      <point x="558" y="-152" type="curve"/>
      <point x="549" y="-209" type="line"/>
      <point x="532" y="-213"/>
      <point x="513" y="-216"/>
      <point x="495" y="-216" type="curve" smooth="yes"/>
      <point x="452" y="-216"/>
      <point x="413" y="-199"/>
      <point x="413" y="-150" type="curve" smooth="yes"/>
      <point x="413" y="-91"/>
      <point x="461" y="-33"/>
      <point x="507" y="0" type="curve"/>
    </contour>
  </outline>
</glyph>
<glyph name="Dcaron" format="1">
  <advance width="670"/>
  <unicode hex="010E"/>
  <outline>
    <contour>
      <point x="653" y="415" type="curve" smooth="yes"/>
      <point x="653" y="169"/>
      <point x="476" y="0"/>
      <point x="220" y="0" type="curve" smooth="yes"/>
      <point x="-15" y="0" type="line"/>
      <point x="-15" y="42" type="line"/>
      <point x="47" y="47" type="line" smooth="yes"/>
      <point x="60" y="48"/>
      <point x="64" y="54"/>
      <point x="67" y="66" type="curve" smooth="yes"/>
      <point x="171" y="604" type="line" smooth="yes"/>
      <point x="173" y="615"/>
      <point x="169" y="623"/>
      <point x="151" y="624" type="curve" smooth="yes"/>
      <point x="95" y="629" type="line"/>
      <point x="95" y="671" type="line"/>
      <point x="334" y="671" type="line" smooth="yes"/>
      <point x="516" y="671"/>
      <point x="653" y="605"/>
    </contour>
    <contour>
      <point x="545" y="424" type="curve" smooth="yes"/>
      <point x="545" y="591"/>
      <point x="435" y="617"/>
      <point x="311" y="621" type="curve"/>
      <point x="275" y="621" type="line"/>
      <point x="165" y="52" type="line"/>
      <point x="238" y="52" type="line" smooth="yes"/>
      <point x="440" y="54"/>
      <point x="545" y="234"/>
    </contour>
    <contour>
      <point x="607" y="916" type="line"/>
      <point x="441" y="746" type="line"/>
      <point x="362" y="746" type="line"/>
      <point x="264" y="916" type="line"/>
      <point x="334" y="916" type="line"/>
      <point x="417" y="823" type="line"/>
      <point x="536" y="916" type="line"/>
    </contour>
  </outline>
</glyph>
<glyph name="dcaron" format="1">
  <advance width="676"/>
  <unicode hex="010F"/>
  <outline>
    <contour>
      <point x="529" y="737" type="line"/>
      <point x="415" y="86" type="line" smooth="yes"/>
      <point x="408" y="49"/>
      <point x="442" y="40"/>
      <point x="451" y="40" type="curve" smooth="yes"/>
      <point x="461" y="40"/>
      <point x="514" y="57"/>
      <point x="523" y="59" type="curve"/>
      <point x="523" y="22" type="line"/>
      <point x="507" y="16"/>
      <point x="433" y="-12"/>
      <point x="392" y="-12" type="curve" smooth="yes"/>
      <point x="331" y="-12"/>
      <point x="317" y="19"/>
      <point x="317" y="63" type="curve"/>
      <point x="282" y="26"/>
      <point x="231" y="-12"/>
      <point x="175" y="-12" type="curve" smooth="yes"/>
      <point x="63" y="-12"/>
      <point x="32" y="83"/>
      <point x="32" y="167" type="curve" smooth="yes"/>
      <point x="32" y="326"/>
      <point x="138" y="494"/>
      <point x="315" y="494" type="curve" smooth="yes"/>
      <point x="345" y="494"/>
      <point x="373" y="481"/>
      <point x="390" y="475" type="curve"/>
      <point x="424" y="668" type="line"/>
      <point x="333" y="677" type="line"/>
      <point x="333" y="707" type="line"/>
      <point x="488" y="737" type="line"/>
    </contour>
    <contour>
      <point x="376" y="394" type="line" smooth="yes"/>
      <point x="377" y="400"/>
      <point x="339" y="449"/>
      <point x="313" y="449" type="curve" smooth="yes"/>
      <point x="216" y="449"/>
      <point x="129" y="329"/>
      <point x="129" y="173" type="curve" smooth="yes"/>
      <point x="129" y="87"/>
      <point x="168" y="49"/>
      <point x="207" y="49" type="curve" smooth="yes"/>
      <point x="243" y="49"/>
      <point x="294" y="89"/>
      <point x="330" y="131" type="curve"/>
    </contour>
    <contour>
      <point x="694" y="696" type="curve" smooth="yes"/>
      <point x="694" y="612"/>
      <point x="623" y="565"/>
      <point x="548" y="551" type="curve"/>
      <point x="554" y="584" type="line"/>
      <point x="608" y="601"/>
      <point x="628" y="615"/>
      <point x="639" y="672" type="curve"/>
      <point x="586" y="672" type="line"/>
      <point x="580" y="679"/>
      <point x="578" y="690"/>
      <point x="578" y="699" type="curve" smooth="yes"/>
      <point x="578" y="732"/>
      <point x="607" y="756"/>
      <point x="639" y="756" type="curve" smooth="yes"/>
      <point x="676" y="756"/>
      <point x="694" y="732"/>
    </contour>
  </outline>
</glyph>
<glyph name="Itilde" format="1">
  <advance width="313"/>
  <unicode hex="0128"/>
  <outline>
    <contour>
      <point x="356" y="629" type="line"/>
      <point x="292" y="624" type="line" smooth="yes"/>
      <point x="279" y="623"/>
      <point x="275" y="617"/>
      <point x="272" y="604" type="curve" smooth="yes"/>
      <point x="168" y="66" type="line" smooth="yes"/>
      <point x="166" y="56"/>
      <point x="170" y="48"/>
      <point x="188" y="47" type="curve" smooth="yes"/>
      <point x="246" y="42" type="line"/>
      <point x="246" y="0" type="line"/>
      <point x="-15" y="0" type="line"/>
      <point x="-15" y="42" type="line"/>
      <point x="48" y="47" type="line" smooth="yes"/>
      <point x="60" y="48"/>
      <point x="65" y="54"/>
      <point x="67" y="66" type="curve" smooth="yes"/>
      <point x="171" y="604" type="line" smooth="yes"/>
      <point x="173" y="615"/>
      <point x="169" y="623"/>
      <point x="152" y="624" type="curve" smooth="yes"/>
      <point x="96" y="629" type="line"/>
      <point x="96" y="671" type="line"/>
      <point x="356" y="671" type="line"/>
    </contour>
    <contour>
      <point x="450" y="886" type="line"/>
      <point x="422" y="828"/>
      <point x="377" y="780"/>
      <point x="305" y="780" type="curve" smooth="yes"/>
      <point x="278" y="780"/>
      <point x="260" y="790"/>
      <point x="239" y="803" type="curve" smooth="yes"/>
      <point x="222" y="814"/>
      <point x="206" y="826"/>
      <point x="175" y="826" type="curve" smooth="yes"/>
      <point x="158" y="826"/>
      <point x="130" y="807"/>
      <point x="119" y="780" type="curve"/>
      <point x="66" y="780" type="line"/>
      <point x="94" y="838"/>
      <point x="138" y="886"/>
      <point x="210" y="886" type="curve" smooth="yes"/>
      <point x="237" y="886"/>
      <point x="256" y="876"/>
      <point x="277" y="862" type="curve" smooth="yes"/>
      <point x="294" y="852"/>
      <point x="310" y="840"/>
      <point x="341" y="840" type="curve" smooth="yes"/>
      <point x="359" y="840"/>
      <point x="386" y="859"/>
      <point x="397" y="886" type="curve"/>
    </contour>
  </outline>
</glyph>
<glyph name="itilde" format="1">
  <advance width="266"/>
  <unicode hex="0129"/>
  <outline>
    <contour>
      <point x="263" y="29" type="line"/>
      <point x="248" y="22"/>
      <point x="172" y="-12"/>
      <point x="117" y="-12" type="curve" smooth="yes"/>
      <point x="49" y="-12"/>
      <point x="39" y="40"/>
      <point x="48" y="86" type="curve" smooth="yes"/>
      <point x="112" y="425" type="line"/>
      <point x="26" y="434" type="line"/>
      <point x="26" y="463" type="line"/>
      <point x="177" y="494" type="line"/>
      <point x="218" y="494" type="line"/>
      <point x="142" y="94" type="line" smooth="yes"/>
      <point x="137" y="67"/>
      <point x="154" y="43"/>
      <point x="181" y="43" type="curve" smooth="yes"/>
      <point x="204" y="43"/>
      <point x="250" y="63"/>
      <point x="263" y="67" type="curve"/>
    </contour>
    <contour>
      <point x="398" y="691" type="line"/>
      <point x="370" y="633"/>
      <point x="325" y="585"/>
      <point x="253" y="585" type="curve" smooth="yes"/>
      <point x="226" y="585"/>
      <point x="208" y="595"/>
      <point x="187" y="608" type="curve" smooth="yes"/>
      <point x="170" y="619"/>
      <point x="154" y="631"/>
      <point x="123" y="631" type="curve" smooth="yes"/>
      <point x="106" y="631"/>
      <point x="78" y="612"/>
      <point x="67" y="585" type="curve"/>
      <point x="14" y="585" type="line"/>
      <point x="42" y="643"/>
      <point x="86" y="691"/>
      <point x="158" y="691" type="curve" smooth="yes"/>
      <point x="185" y="691"/>
      <point x="204" y="681"/>
      <point x="225" y="667" type="curve" smooth="yes"/>
      <point x="242" y="657"/>
      <point x="258" y="645"/>
      <point x="289" y="645" type="curve" smooth="yes"/>
      <point x="307" y="645"/>
      <point x="334" y="664"/>
      <point x="345" y="691" type="curve"/>
    </contour>
  </outline>
</glyph>
<glyph name="iogonek" format="1">
  <advance width="266"/>
  <unicode hex="012F"/>
  <outline>
    <contour>
      <point x="259" y="641" type="curve" smooth="yes"/>
      <point x="259" y="612"/>
      <point x="237" y="585"/>
      <point x="198" y="585" type="curve" smooth="yes"/>
      <point x="157" y="585"/>
      <point x="136" y="610"/>
      <point x="136" y="641" type="curve" smooth="yes"/>
      <point x="136" y="667"/>
      <point x="159" y="697"/>
      <point x="199" y="697" type="curve" smooth="yes"/>
      <point x="237" y="697"/>
      <point x="259" y="669"/>
    </contour>
    <contour>
      <point x="263" y="29" type="line"/>
      <point x="248" y="22"/>
      <point x="172" y="-12"/>
      <point x="117" y="-12" type="curve" smooth="yes"/>
      <point x="49" y="-12"/>
      <point x="39" y="40"/>
      <point x="48" y="86" type="curve" smooth="yes"/>
      <point x="112" y="425" type="line"/>
      <point x="26" y="434" type="line"/>
      <point x="26" y="463" type="line"/>
      <point x="177" y="494" type="line"/>
      <point x="218" y="494" type="line"/>
      <point x="142" y="94" type="line" smooth="yes"/>
      <point x="137" y="67"/>
      <point x="154" y="43"/>
      <point x="181" y="43" type="curve" smooth="yes"/>
      <point x="204" y="43"/>
      <point x="250" y="63"/>
      <point x="263" y="67" type="curve"/>
    </contour>
    <contour>
      <point x="186" y="0" type="line"/>
      <point x="149" y="-29"/>
      <point x="106" y="-72"/>
      <point x="106" y="-123" type="curve" smooth="yes"/>
      <point x="106" y="-147"/>
      <point x="124" y="-157"/>
      <point x="146" y="-157" type="curve" smooth="yes"/>
      <point x="159" y="-157"/>
      <point x="171" y="-155"/>
      <point x="183" y="-152" type="curve"/>
      <point x="174" y="-209" type="line"/>
      <point x="157" y="-213"/>
      <point x="138" y="-216"/>
      <point x="120" y="-216" type="curve" smooth="yes"/>
      <point x="77" y="-216"/>
      <point x="38" y="-199"/>
      <point x="38" y="-150" type="curve" smooth="yes"/>
      <point x="38" y="-91"/>
      <point x="86" y="-33"/>
      <point x="132" y="0" type="curve"/>
    </contour>
  </outline>
</glyph>
<glyph name="Jcircumflex" format="1">
  <advance width="467"/>
  <unicode hex="0134"/>
  <outline>
    <contour>
      <point x="507" y="629" type="line"/>
      <point x="450" y="624" type="line" smooth="yes"/>
      <point x="437" y="623"/>
      <point x="428" y="617"/>
      <point x="425" y="604" type="curve" smooth="yes"/>
      <point x="361" y="256" type="line" smooth="yes"/>
      <point x="331" y="91"/>
      <point x="283" y="-16"/>
      <point x="112" y="-16" type="curve" smooth="yes"/>
      <point x="33" y="-16"/>
      <point x="-10" y="9"/>
      <point x="-20" y="14" type="curve"/>
      <point x="13" y="185" type="line"/>
      <point x="79" y="185" type="line"/>
      <point x="79" y="63" type="line" smooth="yes"/>
      <point x="79" y="46"/>
      <point x="98" y="36"/>
      <point x="119" y="36" type="curve" smooth="yes"/>
      <point x="204" y="36"/>
      <point x="234" y="113"/>
      <point x="258" y="247" type="curve" smooth="yes"/>
      <point x="324" y="604" type="line" smooth="yes"/>
      <point x="326" y="615"/>
      <point x="322" y="623"/>
      <point x="305" y="624" type="curve" smooth="yes"/>
      <point x="247" y="629" type="line"/>
      <point x="247" y="671" type="line"/>
      <point x="507" y="671" type="line"/>
    </contour>
    <contour>
      <point x="569" y="746" type="line"/>
      <point x="499" y="746" type="line"/>
      <point x="417" y="838" type="line"/>
      <point x="297" y="746" type="line"/>
      <point x="227" y="746" type="line"/>
      <point x="392" y="916" type="line"/>
      <point x="471" y="916" type="line"/>
    </contour>
  </outline>
</glyph>
<glyph name="kcedilla" format="1">
  <advance width="508"/>
  <unicode hex="0137"/>
  <outline>
    <contour>
      <point x="497" y="23" type="line"/>
      <point x="464" y="6"/>
      <point x="405" y="-12"/>
      <point x="373" y="-12" type="curve" smooth="yes"/>
      <point x="341" y="-12"/>
      <point x="309" y="11"/>
      <point x="293" y="35" type="curve" smooth="yes"/>
      <point x="266" y="76"/>
      <point x="213" y="200"/>
      <point x="192" y="244" type="curve"/>
      <point x="146" y="203" type="line"/>
      <point x="105" y="0" type="line"/>
      <point x="13" y="0" type="line"/>
      <point x="146" y="668" type="line"/>
      <point x="58" y="677" type="line"/>
      <point x="58" y="707" type="line"/>
      <point x="213" y="737" type="line"/>
      <point x="253" y="737" type="line"/>
      <point x="160" y="272" type="line"/>
      <point x="322" y="439" type="line" smooth="yes"/>
      <point x="360" y="478"/>
      <point x="382" y="494"/>
      <point x="417" y="494" type="curve" smooth="yes"/>
      <point x="462" y="494"/>
      <point x="483" y="465"/>
      <point x="482" y="440" type="curve" smooth="yes"/>
      <point x="482" y="417"/>
      <point x="462" y="390"/>
      <point x="415" y="374" type="curve"/>
      <point x="381" y="410" type="line"/>
      <point x="344" y="382"/>
      <point x="293" y="337"/>
      <point x="262" y="309" type="curve"/>
      <point x="280" y="275"/>
      <point x="302" y="203"/>
      <point x="332" y="149" type="curve" smooth="yes"/>
      <point x="362" y="93"/>
      <point x="400" y="42"/>
      <point x="435" y="42" type="curve" smooth="yes"/>
      <point x="449" y="42"/>
      <point x="480" y="49"/>
      <point x="497" y="57" type="curve"/>
    </contour>
    <contour>
      <point x="237" y="-121" type="curve" smooth="yes"/>
      <point x="237" y="-204"/>
      <point x="165" y="-252"/>
      <point x="90" y="-266" type="curve"/>
      <point x="96" y="-232" type="line"/>
      <point x="150" y="-216"/>
      <point x="170" y="-202"/>
      <point x="181" y="-145" type="curve"/>
      <point x="128" y="-145" type="line"/>
      <point x="122" y="-138"/>
      <point x="120" y="-127"/>
      <point x="120" y="-118" type="curve" smooth="yes"/>
      <point x="120" y="-84"/>
      <point x="149" y="-61"/>
      <point x="181" y="-61" type="curve" smooth="yes"/>
      <point x="218" y="-61"/>
      <point x="237" y="-85"/>
    </contour>
  </outline>
</glyph>
<glyph name="Lacute" format="1">
  <advance width="518"/>
  <unicode hex="0139"/>
  <outline>
    <contour>
      <point x="483" y="185" type="line"/>
      <point x="447" y="0" type="line"/>
      <point x="-15" y="0" type="line"/>
      <point x="-15" y="42" type="line"/>
      <point x="43" y="47" type="line" smooth="yes"/>
      <point x="56" y="48"/>
      <point x="65" y="54"/>
      <point x="67" y="66" type="curve" smooth="yes"/>
      <point x="171" y="604" type="line" smooth="yes"/>
      <point x="173" y="615"/>
      <point x="169" y="623"/>
      <point x="152" y="624" type="curve" smooth="yes"/>
      <point x="96" y="629" type="line"/>
      <point x="96" y="671" type="line"/>
      <point x="356" y="671" type="line"/>
      <point x="356" y="629" type="line"/>
      <point x="297" y="624" type="line" smooth="yes"/>
      <point x="282" y="623"/>
      <point x="274" y="614"/>
      <point x="272" y="604" type="curve" smooth="yes"/>
      <point x="166" y="50" type="line"/>
      <point x="363" y="50" type="line" smooth="yes"/>
      <point x="376" y="50"/>
      <point x="384" y="58"/>
      <point x="388" y="70" type="curve" smooth="yes"/>
      <point x="424" y="185" type="line"/>
    </contour>
    <contour>
      <point x="504" y="884" type="curve" smooth="yes"/>
      <point x="504" y="865"/>
      <point x="495" y="853"/>
      <point x="480" y="843" type="curve" smooth="yes"/>
      <point x="330" y="746" type="line"/>
      <point x="260" y="746" type="line"/>
      <point x="396" y="902" type="line" smooth="yes"/>
      <point x="409" y="917"/>
      <point x="423" y="927"/>
      <point x="453" y="927" type="curve" smooth="yes"/>
      <point x="488" y="927"/>
      <point x="504" y="904"/>
    </contour>
  </outline>
</glyph>
<glyph name="Lcedilla" format="1">
  <advance width="518"/>
  <unicode hex="013B"/>
  <outline>
    <contour>
      <point x="483" y="185" type="line"/>
      <point x="447" y="0" type="line"/>
      <point x="-15" y="0" type="line"/>
      <point x="-15" y="42" type="line"/>
      <point x="43" y="47" type="line" smooth="yes"/>
      <point x="56" y="48"/>
      <point x="65" y="54"/>
      <point x="67" y="66" type="curve" smooth="yes"/>
      <point x="171" y="604" type="line" smooth="yes"/>
      <point x="173" y="615"/>
      <point x="169" y="623"/>
      <point x="152" y="624" type="curve" smooth="yes"/>
      <point x="96" y="629" type="line"/>
      <point x="96" y="671" type="line"/>
      <point x="356" y="671" type="line"/>
      <point x="356" y="629" type="line"/>
      <point x="297" y="624" type="line" smooth="yes"/>
      <point x="282" y="623"/>
      <point x="274" y="614"/>
      <point x="272" y="604" type="curve" smooth="yes"/>
      <point x="166" y="50" type="line"/>
      <point x="363" y="50" type="line" smooth="yes"/>
      <point x="376" y="50"/>
      <point x="384" y="58"/>
      <point x="388" y="70" type="curve" smooth="yes"/>
      <point x="424" y="185" type="line"/>
    </contour>
    <contour>
      <point x="241" y="-121" type="curve" smooth="yes"/>
      <point x="241" y="-204"/>
      <point x="169" y="-252"/>
      <point x="94" y="-266" type="curve"/>
      <point x="100" y="-232" type="line"/>
      <point x="154" y="-216"/>
      <point x="174" y="-202"/>
      <point x="185" y="-145" type="curve"/>
      <point x="132" y="-145" type="line"/>
      <point x="126" y="-138"/>
      <point x="124" y="-127"/>
      <point x="124" y="-118" type="curve" smooth="yes"/>
      <point x="124" y="-84"/>
      <point x="153" y="-61"/>
      <point x="185" y="-61" type="curve" smooth="yes"/>
      <point x="222" y="-61"/>
      <point x="241" y="-85"/>
    </contour>
  </outline>
</glyph>
<glyph name="lcaron" format="1">
  <advance width="409"/>
  <unicode hex="013E"/>
  <outline>
    <contour>
      <point x="263" y="26" type="line"/>
      <point x="247" y="20"/>
      <point x="171" y="-12"/>
      <point x="124" y="-12" type="curve" smooth="yes"/>
      <point x="63" y="-12"/>
      <point x="39" y="18"/>
      <point x="39" y="61" type="curve" smooth="yes"/>
      <point x="39" y="71"/>
      <point x="40" y="83"/>
      <point x="42" y="96" type="curve" smooth="yes"/>
      <point x="152" y="668" type="line"/>
      <point x="63" y="677" type="line"/>
      <point x="63" y="707" type="line"/>
      <point x="219" y="737" type="line"/>
      <point x="258" y="737" type="line"/>
      <point x="136" y="99" type="line" smooth="yes"/>
      <point x="131" y="72"/>
      <point x="154" y="44"/>
      <point x="182" y="44" type="curve" smooth="yes"/>
      <point x="201" y="44"/>
      <point x="252" y="61"/>
      <point x="263" y="64" type="curve"/>
    </contour>
    <contour>
      <point x="427" y="696" type="curve" smooth="yes"/>
      <point x="427" y="612"/>
      <point x="356" y="565"/>
      <point x="281" y="551" type="curve"/>
      <point x="287" y="584" type="line"/>
      <point x="341" y="601"/>
      <point x="361" y="615"/>
      <point x="372" y="672" type="curve"/>
      <point x="319" y="672" type="line"/>
      <point x="313" y="679"/>
      <point x="311" y="690"/>
      <point x="311" y="699" type="curve" smooth="yes"/>
      <point x="311" y="732"/>
      <point x="340" y="756"/>
      <point x="372" y="756" type="curve" smooth="yes"/>
      <point x="409" y="756"/>
      <point x="427" y="732"/>
    </contour>
  </outline>
</glyph>
<glyph name="nacute" format="1">
  <advance width="529"/>
  <unicode hex="0144"/>
  <outline>
    <contour>
      <point x="527" y="20" type="line"/>
      <point x="510" y="14"/>
      <point x="435" y="-12"/>
      <point x="393" y="-12" type="curve" smooth="yes"/>
      <point x="369" y="-12"/>
      <point x="301" y="-7"/>
      <point x="312" y="47" type="curve" smooth="yes"/>
      <point x="373" y="354" type="line" smooth="yes"/>
      <point x="383" y="407"/>
      <point x="351" y="423"/>
      <point x="329" y="423" type="curve" smooth="yes"/>
      <point x="297" y="423"/>
      <point x="229" y="383"/>
      <point x="185" y="336" type="curve"/>
      <point x="116" y="0" type="line"/>
      <point x="23" y="0" type="line"/>
      <point x="110" y="425" type="line"/>
      <point x="26" y="434" type="line"/>
      <point x="26" y="463" type="line"/>
      <point x="177" y="494" type="line"/>
      <point x="217" y="494" type="line"/>
      <point x="198" y="401" type="line"/>
      <point x="242" y="446"/>
      <point x="317" y="494"/>
      <point x="384" y="494" type="curve" smooth="yes"/>
      <point x="457" y="494"/>
      <point x="489" y="456"/>
      <point x="473" y="366" type="curve" smooth="yes"/>
      <point x="420" y="84" type="line" smooth="yes"/>
      <point x="413" y="46"/>
      <point x="451" y="42"/>
      <point x="463" y="42" type="curve" smooth="yes"/>
      <point x="481" y="42"/>
      <point x="503" y="48"/>
      <point x="526" y="55" type="curve"/>
    </contour>
    <contour>
      <point x="482" y="689" type="curve" smooth="yes"/>
      <point x="482" y="670"/>
      <point x="473" y="658"/>
      <point x="458" y="648" type="curve" smooth="yes"/>
      <point x="309" y="551" type="line"/>
      <point x="238" y="551" type="line"/>
      <point x="375" y="707" type="line" smooth="yes"/>
      <point x="388" y="722"/>
      <point x="402" y="732"/>
      <point x="432" y="732" type="curve" smooth="yes"/>
      <point x="467" y="732"/>
      <point x="482" y="709"/>
    </contour>
  </outline>
</glyph>
<glyph name="eng" format="1">
  <advance width="516"/>
  <unicode hex="014B"/>
  <outline>
    <contour>
      <point x="477" y="408" type="curve" smooth="yes"/>
      <point x="477" y="396"/>
      <point x="476" y="381"/>
      <point x="473" y="366" type="curve" smooth="yes"/>
      <point x="402" y="-9" type="line" smooth="yes"/>
      <point x="381" y="-124"/>
      <point x="278" y="-229"/>
      <point x="156" y="-229" type="curve" smooth="yes"/>
      <point x="101" y="-229"/>
      <point x="80" y="-204"/>
      <point x="80" y="-178" type="curve" smooth="yes"/>
      <point x="80" y="-132"/>
      <point x="135" y="-115"/>
      <point x="135" y="-115" type="curve"/>
      <point x="213" y="-174" type="line"/>
      <point x="263" y="-155"/>
      <point x="280" y="-108"/>
      <point x="300" y="-7" type="curve" smooth="yes"/>
      <point x="373" y="354" type="line" smooth="yes"/>
      <point x="379" y="386"/>
      <point x="369" y="423"/>
      <point x="329" y="423" type="curve" smooth="yes"/>
      <point x="297" y="423"/>
      <point x="229" y="383"/>
      <point x="185" y="336" type="curve"/>
      <point x="116" y="0" type="line"/>
      <point x="23" y="0" type="line"/>
      <point x="110" y="425" type="line"/>
      <point x="26" y="434" type="line"/>
      <point x="26" y="463" type="line"/>
      <point x="177" y="494" type="line"/>
      <point x="217" y="494" type="line"/>
      <point x="198" y="401" type="line"/>
      <point x="242" y="446"/>
      <point x="317" y="494"/>
      <point x="384" y="494" type="curve" smooth="yes"/>
      <point x="445" y="494"/>
      <point x="477" y="468"/>
    </contour>
  </outline>
</glyph>
<glyph name="Ohungarumlaut" format="1">
  <advance width="709"/>
  <unicode hex="0150"/>
  <outline>
    <contour>
      <point x="691" y="417" type="curve" smooth="yes"/>
      <point x="691" y="206"/>
      <point x="555" y="-16"/>
      <point x="320" y="-16" type="curve" smooth="yes"/>
      <point x="160" y="-16"/>
      <point x="48" y="94"/>
      <point x="48" y="262" type="curve" smooth="yes"/>
      <point x="48" y="477"/>
      <point x="200" y="687"/>
      <point x="420" y="687" type="curve" smooth="yes"/>
      <point x="586" y="687"/>
      <point x="691" y="566"/>
    </contour>
    <contour>
      <point x="577" y="417" type="curve" smooth="yes"/>
      <point x="577" y="550"/>
      <point x="507" y="637"/>
      <point x="411" y="637" type="curve" smooth="yes"/>
      <point x="265" y="637"/>
      <point x="161" y="431"/>
      <point x="161" y="254" type="curve" smooth="yes"/>
      <point x="161" y="119"/>
      <point x="234" y="36"/>
      <point x="327" y="36" type="curve" smooth="yes"/>
      <point x="473" y="36"/>
      <point x="577" y="247"/>
    </contour>
    <contour>
      <point x="713" y="884" type="curve" smooth="yes"/>
      <point x="713" y="865"/>
      <point x="703" y="853"/>
      <point x="689" y="843" type="curve" smooth="yes"/>
      <point x="539" y="746" type="line"/>
      <point x="469" y="746" type="line"/>
      <point x="605" y="902" type="line" smooth="yes"/>
      <point x="618" y="917"/>
      <point x="632" y="927"/>
      <point x="662" y="927" type="curve" smooth="yes"/>
      <point x="697" y="927"/>
      <point x="713" y="904"/>
    </contour>
    <contour>
      <point x="510" y="884" type="curve" smooth="yes"/>
      <point x="510" y="865"/>
      <point x="500" y="853"/>
      <point x="486" y="843" type="curve" smooth="yes"/>
      <point x="335" y="746" type="line"/>
      <point x="266" y="746" type="line"/>
      <point x="401" y="902" type="line" smooth="yes"/>
      <point x="414" y="917"/>
      <point x="429" y="927"/>
      <point x="459" y="927" type="curve" smooth="yes"/>
      <point x="494" y="927"/>
      <point x="510" y="904"/>
    </contour>
  </outline>
</glyph>
<glyph name="ohungarumlaut" format="1">
  <advance width="505"/>
  <unicode hex="0151"/>
  <outline>
    <contour>
      <point x="475" y="300" type="curve" smooth="yes"/>
      <point x="475" y="138"/>
      <point x="363" y="-12"/>
      <point x="209" y="-12" type="curve" smooth="yes"/>
      <point x="99" y="-12"/>
      <point x="31" y="61"/>
      <point x="31" y="177" type="curve" smooth="yes"/>
      <point x="31" y="339"/>
      <point x="139" y="494"/>
      <point x="296" y="494" type="curve" smooth="yes"/>
      <point x="392" y="494"/>
      <point x="475" y="435"/>
    </contour>
    <contour>
      <point x="374" y="304" type="curve" smooth="yes"/>
      <point x="374" y="399"/>
      <point x="336" y="451"/>
      <point x="285" y="451" type="curve" smooth="yes"/>
      <point x="198" y="451"/>
      <point x="132" y="312"/>
      <point x="132" y="182" type="curve" smooth="yes"/>
      <point x="132" y="83"/>
      <point x="171" y="33"/>
      <point x="221" y="33" type="curve" smooth="yes"/>
      <point x="316" y="33"/>
      <point x="374" y="186"/>
    </contour>
    <contour>
      <point x="591" y="689" type="curve" smooth="yes"/>
      <point x="591" y="670"/>
      <point x="581" y="658"/>
      <point x="567" y="648" type="curve" smooth="yes"/>
      <point x="417" y="551" type="line"/>
      <point x="347" y="551" type="line"/>
      <point x="483" y="707" type="line" smooth="yes"/>
      <point x="496" y="722"/>
      <point x="510" y="732"/>
      <point x="540" y="732" type="curve" smooth="yes"/>
      <point x="575" y="732"/>
      <point x="591" y="709"/>
    </contour>
    <contour>
      <point x="388" y="689" type="curve" smooth="yes"/>
      <point x="388" y="670"/>
      <point x="378" y="658"/>
      <point x="364" y="648" type="curve" smooth="yes"/>
      <point x="213" y="551" type="line"/>
      <point x="144" y="551" type="line"/>
      <point x="279" y="707" type="line" smooth="yes"/>
      <point x="292" y="722"/>
      <point x="307" y="732"/>
      <point x="337" y="732" type="curve" smooth="yes"/>
      <point x="372" y="732"/>
      <point x="388" y="709"/>
    </contour>
  </outline>
</glyph>
<glyph name="oe" format="1">
  <advance width="747"/>
  <unicode hex="0153"/>
  <outline>
    <contour>
      <point x="729" y="383" type="curve" smooth="yes"/>
      <point x="729" y="254"/>
      <point x="529" y="225"/>
      <point x="457" y="220" type="curve"/>
      <point x="455" y="207"/>
      <point x="454" y="186"/>
      <point x="454" y="175" type="curve" smooth="yes"/>
      <point x="454" y="97"/>
      <point x="494" y="48"/>
      <point x="550" y="48" type="curve" smooth="yes"/>
      <point x="602" y="48"/>
      <point x="661" y="93"/>
      <point x="717" y="145" type="curve"/>
      <point x="717" y="82" type="line"/>
      <point x="663" y="32"/>
      <point x="603" y="-12"/>
      <point x="516" y="-12" type="curve" smooth="yes"/>
      <point x="459" y="-12"/>
      <point x="412" y="18"/>
      <point x="382" y="86" type="curve"/>
      <point x="337" y="13"/>
      <point x="279" y="-12"/>
      <point x="210" y="-12" type="curve" smooth="yes"/>
      <point x="104" y="-12"/>
      <point x="32" y="60"/>
      <point x="32" y="178" type="curve" smooth="yes"/>
      <point x="32" y="327"/>
      <point x="129" y="494"/>
      <point x="296" y="494" type="curve" smooth="yes"/>
      <point x="369" y="494"/>
      <point x="420" y="444"/>
      <point x="441" y="383" type="curve"/>
      <point x="470" y="451"/>
      <point x="556" y="494"/>
      <point x="622" y="494" type="curve" smooth="yes"/>
      <point x="706" y="494"/>
      <point x="729" y="425"/>
    </contour>
    <contour>
      <point x="641" y="383" type="curve" smooth="yes"/>
      <point x="641" y="400"/>
      <point x="637" y="447"/>
      <point x="598" y="447" type="curve" smooth="yes"/>
      <point x="532" y="447"/>
      <point x="484" y="346"/>
      <point x="462" y="258" type="curve"/>
      <point x="532" y="263"/>
      <point x="641" y="301"/>
    </contour>
    <contour>
      <point x="368" y="293" type="curve" smooth="yes"/>
      <point x="368" y="371"/>
      <point x="339" y="451"/>
      <point x="282" y="451" type="curve" smooth="yes"/>
      <point x="195" y="451"/>
      <point x="135" y="309"/>
      <point x="135" y="182" type="curve" smooth="yes"/>
      <point x="135" y="96"/>
      <point x="166" y="33"/>
      <point x="220" y="33" type="curve" smooth="yes"/>
      <point x="316" y="33"/>
      <point x="368" y="179"/>
    </contour>
  </outline>
</glyph>
<glyph name="rcedilla" format="1">
  <advance width="374"/>
  <unicode hex="0157"/>
  <outline>
    <contour>
      <point x="409" y="427" type="curve" smooth="yes"/>
      <point x="409" y="380"/>
      <point x="374" y="374"/>
      <point x="320" y="374" type="curve"/>
      <point x="296" y="422" type="line"/>
      <point x="247" y="401"/>
      <point x="176" y="310"/>
      <point x="164" y="252" type="curve" smooth="yes"/>
      <point x="112" y="0" type="line"/>
      <point x="19" y="0" type="line"/>
      <point x="105" y="425" type="line"/>
      <point x="21" y="434" type="line"/>
      <point x="21" y="463" type="line"/>
      <point x="172" y="494" type="line"/>
      <point x="212" y="494" type="line"/>
      <point x="191" y="393" type="line"/>
      <point x="232" y="456"/>
      <point x="285" y="494"/>
      <point x="345" y="494" type="curve" smooth="yes"/>
      <point x="393" y="494"/>
      <point x="409" y="454"/>
    </contour>
    <contour>
      <point x="92" y="-121" type="curve" smooth="yes"/>
      <point x="92" y="-204"/>
      <point x="20" y="-252"/>
      <point x="-55" y="-266" type="curve"/>
      <point x="-49" y="-232" type="line"/>
      <point x="5" y="-216"/>
      <point x="25" y="-202"/>
      <point x="36" y="-145" type="curve"/>
      <point x="-17" y="-145" type="line"/>
      <point x="-23" y="-138"/>
      <point x="-25" y="-127"/>
      <point x="-25" y="-118" type="curve" smooth="yes"/>
      <point x="-25" y="-84"/>
      <point x="4" y="-61"/>
      <point x="36" y="-61" type="curve" smooth="yes"/>
      <point x="73" y="-61"/>
      <point x="92" y="-85"/>
    </contour>
  </outline>
</glyph>
<glyph name="scedilla" format="1">
  <advance width="370"/>
  <unicode hex="015F"/>
  <outline>
    <contour>
      <point x="349" y="431" type="curve" smooth="yes"/>
      <point x="349" y="385"/>
      <point x="302" y="378"/>
      <point x="277" y="376" type="curve"/>
      <point x="232" y="437" type="line" smooth="yes"/>
      <point x="228" y="440"/>
      <point x="219" y="445"/>
      <point x="207" y="445" type="curve" smooth="yes"/>
      <point x="163" y="445"/>
      <point x="148" y="402"/>
      <point x="148" y="376" type="curve" smooth="yes"/>
      <point x="148" y="340"/>
      <point x="194" y="301"/>
      <point x="237" y="267" type="curve" smooth="yes"/>
      <point x="281" y="232"/>
      <point x="323" y="194"/>
      <point x="323" y="145" type="curve" smooth="yes"/>
      <point x="323" y="63"/>
      <point x="256" y="-12"/>
      <point x="132" y="-12" type="curve" smooth="yes"/>
      <point x="35" y="-12"/>
      <point x="-8" y="34"/>
      <point x="-8" y="80" type="curve" smooth="yes"/>
      <point x="-8" y="112"/>
      <point x="11" y="134"/>
      <point x="52" y="134" type="curve" smooth="yes"/>
      <point x="76" y="134"/>
      <point x="97" y="119"/>
      <point x="104" y="113" type="curve"/>
      <point x="85" y="64" type="line"/>
      <point x="99" y="44"/>
      <point x="119" y="28"/>
      <point x="153" y="28" type="curve" smooth="yes"/>
      <point x="194" y="28"/>
      <point x="231" y="60"/>
      <point x="231" y="111" type="curve" smooth="yes"/>
      <point x="231" y="152"/>
      <point x="197" y="180"/>
      <point x="149" y="217" type="curve" smooth="yes"/>
      <point x="108" y="249"/>
      <point x="68" y="293"/>
      <point x="68" y="343" type="curve" smooth="yes"/>
      <point x="68" y="441"/>
      <point x="166" y="494"/>
      <point x="248" y="494" type="curve" smooth="yes"/>
      <point x="323" y="494"/>
      <point x="349" y="455"/>
    </contour>
    <contour>
      <point x="234" y="-112" type="curve" smooth="yes"/>
      <point x="234" y="-181"/>
      <point x="169" y="-223"/>
      <point x="93" y="-223" type="curve" smooth="yes"/>
      <point x="63" y="-223"/>
      <point x="27" y="-215"/>
      <point x="13" y="-211" type="curve"/>
      <point x="22" y="-171" type="line"/>
      <point x="37" y="-175"/>
      <point x="65" y="-182"/>
      <point x="87" y="-182" type="curve" smooth="yes"/>
      <point x="105" y="-182"/>
      <point x="153" y="-174"/>
      <point x="153" y="-135" type="curve" smooth="yes"/>
      <point x="153" y="-115"/>
      <point x="135" y="-108"/>
      <point x="120" y="-108" type="curve" smooth="yes"/>
      <point x="114" y="-108"/>
      <point x="109" y="-111"/>
      <point x="88" y="-121" type="curve"/>
      <point x="116" y="24" type="line"/>
      <point x="168" y="24" type="line"/>
      <point x="152" y="-61" type="line"/>
      <point x="157" y="-60"/>
      <point x="162" y="-59"/>
      <point x="167" y="-59" type="curve" smooth="yes"/>
      <point x="211" y="-59"/>
      <point x="234" y="-76"/>
    </contour>
  </outline>
</glyph>
<glyph name="uni0162" format="1">
  <advance width="585"/>
  <unicode hex="0162"/>
  <outline>
    <contour>
      <point x="649" y="671" type="line"/>
      <point x="618" y="518" type="line"/>
      <point x="555" y="518" type="line"/>
      <point x="559" y="606" type="line" smooth="yes"/>
      <point x="560" y="620"/>
      <point x="554" y="626"/>
      <point x="540" y="626" type="curve" smooth="yes"/>
      <point x="411" y="626" type="line"/>
      <point x="307" y="66" type="line" smooth="yes"/>
      <point x="305" y="56"/>
      <point x="309" y="48"/>
      <point x="327" y="47" type="curve" smooth="yes"/>
      <point x="384" y="42" type="line"/>
      <point x="384" y="0" type="line"/>
      <point x="124" y="0" type="line"/>
      <point x="124" y="42" type="line"/>
      <point x="182" y="47" type="line" smooth="yes"/>
      <point x="194" y="48"/>
      <point x="204" y="54"/>
      <point x="206" y="66" type="curve" smooth="yes"/>
      <point x="310" y="626" type="line"/>
      <point x="185" y="626" type="line" smooth="yes"/>
      <point x="173" y="626"/>
      <point x="164" y="619"/>
      <point x="160" y="606" type="curve" smooth="yes"/>
      <point x="129" y="518" type="line"/>
      <point x="66" y="518" type="line"/>
      <point x="95" y="671" type="line"/>
    </contour>
    <contour>
      <point x="343" y="-112" type="curve" smooth="yes"/>
      <point x="343" y="-181"/>
      <point x="278" y="-223"/>
      <point x="202" y="-223" type="curve" smooth="yes"/>
      <point x="172" y="-223"/>
      <point x="136" y="-215"/>
      <point x="122" y="-211" type="curve"/>
      <point x="131" y="-171" type="line"/>
      <point x="146" y="-175"/>
      <point x="174" y="-182"/>
      <point x="196" y="-182" type="curve" smooth="yes"/>
      <point x="214" y="-182"/>
      <point x="262" y="-174"/>
      <point x="262" y="-135" type="curve" smooth="yes"/>
      <point x="262" y="-115"/>
      <point x="244" y="-108"/>
      <point x="229" y="-108" type="curve" smooth="yes"/>
      <point x="223" y="-108"/>
      <point x="218" y="-111"/>
      <point x="197" y="-121" type="curve"/>
      <point x="225" y="24" type="line"/>
      <point x="276" y="24" type="line"/>
      <point x="261" y="-61" type="line"/>
      <point x="266" y="-60"/>
      <point x="271" y="-59"/>
      <point x="276" y="-59" type="curve" smooth="yes"/>
      <point x="320" y="-59"/>
      <point x="343" y="-76"/>
    </contour>
  </outline>
</glyph>
<glyph name="tbar" format="1">
  <advance width="299"/>
  <unicode hex="0167"/>
  <outline>
    <contour>
      <point x="310" y="222" type="line"/>
      <point x="163" y="222" type="line"/>
      <point x="139" y="105" type="line" smooth="yes"/>
      <point x="132" y="70"/>
      <point x="163" y="49"/>
      <point x="197" y="49" type="curve" smooth="yes"/>
      <point x="235" y="49"/>
      <point x="280" y="66"/>
      <point x="301" y="73" type="curve"/>
      <point x="301" y="33" type="line"/>
      <point x="284" y="26"/>
      <point x="196" y="-12"/>
      <point x="138" y="-12" type="curve" smooth="yes"/>
      <point x="66" y="-12"/>
      <point x="44" y="25"/>
      <point x="44" y="74" type="curve" smooth="yes"/>
      <point x="44" y="87"/>
      <point x="45" y="101"/>
      <point x="48" y="115" type="curve" smooth="yes"/>
      <point x="69" y="222" type="line"/>
      <point x="7" y="222" type="line"/>
      <point x="7" y="277" type="line"/>
      <point x="80" y="277" type="line"/>
      <point x="109" y="419" type="line"/>
      <point x="46" y="413" type="line"/>
      <point x="46" y="446" type="line"/>
      <point x="121" y="479" type="line"/>
      <point x="170" y="579" type="line"/>
      <point x="231" y="579" type="line"/>
      <point x="211" y="465" type="line"/>
      <point x="349" y="465" type="line"/>
      <point x="349" y="419" type="line"/>
      <point x="202" y="419" type="line"/>
      <point x="173" y="277" type="line"/>
      <point x="310" y="277" type="line"/>
    </contour>
  </outline>
</glyph>
<glyph name="Ubreve" format="1">
  <advance width="707"/>
  <unicode hex="016C"/>
  <outline>
    <contour>
      <point x="749" y="629" type="line"/>
      <point x="691" y="624" type="line" smooth="yes"/>
      <point x="679" y="623"/>
      <point x="669" y="617"/>
      <point x="667" y="604" type="curve" smooth="yes"/>
      <point x="590" y="214" type="line" smooth="yes"/>
      <point x="562" y="69"/>
      <point x="470" y="-16"/>
      <point x="311" y="-16" type="curve" smooth="yes"/>
      <point x="188" y="-16"/>
      <point x="92" y="32"/>
      <point x="92" y="159" type="curve" smooth="yes"/>
      <point x="92" y="179"/>
      <point x="96" y="218"/>
      <point x="105" y="264" type="curve" smooth="yes"/>
      <point x="175" y="604" type="line" smooth="yes"/>
      <point x="177" y="615"/>
      <point x="173" y="623"/>
      <point x="155" y="624" type="curve" smooth="yes"/>
      <point x="99" y="629" type="line"/>
      <point x="99" y="671" type="line"/>
      <point x="359" y="671" type="line"/>
      <point x="359" y="629" type="line"/>
      <point x="300" y="624" type="line" smooth="yes"/>
      <point x="288" y="623"/>
      <point x="278" y="617"/>
      <point x="276" y="604" type="curve" smooth="yes"/>
      <point x="207" y="264" type="line" smooth="yes"/>
      <point x="199" y="225"/>
      <point x="196" y="193"/>
      <point x="196" y="175" type="curve" smooth="yes"/>
      <point x="196" y="91"/>
      <point x="251" y="49"/>
      <point x="337" y="49" type="curve" smooth="yes"/>
      <point x="467" y="49"/>
      <point x="508" y="142"/>
      <point x="529" y="249" type="curve" smooth="yes"/>
      <point x="599" y="604" type="line" smooth="yes"/>
      <point x="601" y="615"/>
      <point x="597" y="623"/>
      <point x="579" y="624" type="curve" smooth="yes"/>
      <point x="523" y="629" type="line"/>
      <point x="523" y="671" type="line"/>
      <point x="749" y="671" type="line"/>
    </contour>
    <contour>
      <point x="626" y="890" type="line"/>
      <point x="610" y="822"/>
      <point x="550" y="746"/>
      <point x="445" y="746" type="curve" smooth="yes"/>
      <point x="350" y="746"/>
      <point x="314" y="806"/>
      <point x="314" y="863" type="curve" smooth="yes"/>
      <point x="314" y="871"/>
      <point x="315" y="880"/>
      <point x="316" y="890" type="curve"/>
      <point x="369" y="890" type="line"/>
      <point x="372" y="831"/>
      <point x="416" y="812"/>
      <point x="455" y="812" type="curve" smooth="yes"/>
      <point x="496" y="812"/>
      <point x="550" y="832"/>
      <point x="576" y="890" type="curve"/>
    </contour>
  </outline>
</glyph>
<glyph name="Uring" format="1">
  <advance width="707"/>
  <unicode hex="016E"/>
  <outline>
    <contour>
      <point x="749" y="629" type="line"/>
      <point x="691" y="624" type="line" smooth="yes"/>
      <point x="679" y="623"/>
      <point x="669" y="617"/>
      <point x="667" y="604" type="curve" smooth="yes"/>
      <point x="590" y="214" type="line" smooth="yes"/>
      <point x="562" y="69"/>
      <point x="470" y="-16"/>
      <point x="311" y="-16" type="curve" smooth="yes"/>
      <point x="188" y="-16"/>
      <point x="92" y="32"/>
      <point x="92" y="159" type="curve" smooth="yes"/>
      <point x="92" y="179"/>
      <point x="96" y="218"/>
      <point x="105" y="264" type="curve" smooth="yes"/>
      <point x="175" y="604" type="line" smooth="yes"/>
      <point x="177" y="615"/>
      <point x="173" y="623"/>
      <point x="155" y="624" type="curve" smooth="yes"/>
      <point x="99" y="629" type="line"/>
      <point x="99" y="671" type="line"/>
      <point x="359" y="671" type="line"/>
      <point x="359" y="629" type="line"/>
      <point x="300" y="624" type="line" smooth="yes"/>
      <point x="288" y="623"/>
      <point x="278" y="617"/>
      <point x="276" y="604" type="curve" smooth="yes"/>
      <point x="207" y="264" type="line" smooth="yes"/>
      <point x="199" y="225"/>
      <point x="196" y="193"/>
      <point x="196" y="175" type="curve" smooth="yes"/>
      <point x="196" y="91"/>
      <point x="251" y="49"/>
      <point x="337" y="49" type="curve" smooth="yes"/>
      <point x="467" y="49"/>
      <point x="508" y="142"/>
      <point x="529" y="249" type="curve" smooth="yes"/>
      <point x="599" y="604" type="line" smooth="yes"/>
      <point x="601" y="615"/>
      <point x="597" y="623"/>
      <point x="579" y="624" type="curve" smooth="yes"/>
      <point x="523" y="629" type="line"/>
      <point x="523" y="671" type="line"/>
      <point x="749" y="671" type="line"/>
    </contour>
    <contour>
      <point x="445" y="746" type="curve" smooth="yes"/>
      <point x="389" y="746"/>
      <point x="348" y="786"/>
      <point x="348" y="841" type="curve" smooth="yes"/>
      <point x="348" y="914"/>
      <point x="414" y="980"/>
      <point x="487" y="980" type="curve" smooth="yes"/>
      <point x="543" y="980"/>
      <point x="584" y="940"/>
      <point x="584" y="884" type="curve" smooth="yes"/>
      <point x="584" y="810"/>
      <point x="518" y="746"/>
    </contour>
    <contour>
      <point x="533" y="877" type="curve" smooth="yes"/>
      <point x="533" y="908"/>
      <point x="509" y="928"/>
      <point x="479" y="928" type="curve" smooth="yes"/>
      <point x="438" y="928"/>
      <point x="398" y="892"/>
      <point x="398" y="850" type="curve" smooth="yes"/>
      <point x="398" y="819"/>
      <point x="423" y="798"/>
      <point x="453" y="798" type="curve" smooth="yes"/>
      <point x="494" y="798"/>
      <point x="533" y="836"/>
    </contour>
  </outline>
</glyph>
<glyph name="uring" format="1">
  <advance width="526"/>
  <unicode hex="016F"/>
  <outline>
    <contour>
      <point x="524" y="24" type="line"/>
      <point x="499" y="10"/>
      <point x="431" y="-12"/>
      <point x="388" y="-12" type="curve" smooth="yes"/>
      <point x="313" y="-12"/>
      <point x="323" y="47"/>
      <point x="323" y="63" type="curve"/>
      <point x="271" y="13"/>
      <point x="214" y="-12"/>
      <point x="147" y="-12" type="curve" smooth="yes"/>
      <point x="54" y="-12"/>
      <point x="34" y="61"/>
      <point x="45" y="113" type="curve" smooth="yes"/>
      <point x="110" y="425" type="line"/>
      <point x="26" y="434" type="line"/>
      <point x="26" y="463" type="line"/>
      <point x="177" y="494" type="line"/>
      <point x="218" y="494" type="line"/>
      <point x="138" y="113" type="line" smooth="yes"/>
      <point x="131" y="79"/>
      <point x="164" y="50"/>
      <point x="190" y="50" type="curve" smooth="yes"/>
      <point x="238" y="50"/>
      <point x="290" y="79"/>
      <point x="328" y="114" type="curve"/>
      <point x="404" y="482" type="line"/>
      <point x="497" y="482" type="line"/>
      <point x="417" y="97" type="line" smooth="yes"/>
      <point x="408" y="56"/>
      <point x="439" y="41"/>
      <point x="461" y="41" type="curve" smooth="yes"/>
      <point x="474" y="41"/>
      <point x="496" y="43"/>
      <point x="524" y="59" type="curve"/>
    </contour>
    <contour>
      <point x="326" y="551" type="curve" smooth="yes"/>
      <point x="270" y="551"/>
      <point x="229" y="591"/>
      <point x="229" y="646" type="curve" smooth="yes"/>
      <point x="229" y="719"/>
      <point x="295" y="785"/>
      <point x="368" y="785" type="curve" smooth="yes"/>
      <point x="424" y="785"/>
      <point x="465" y="745"/>
      <point x="465" y="689" type="curve" smooth="yes"/>
      <point x="465" y="615"/>
      <point x="399" y="551"/>
    </contour>
    <contour>
      <point x="414" y="682" type="curve" smooth="yes"/>
      <point x="414" y="713"/>
      <point x="390" y="733"/>
      <point x="360" y="733" type="curve" smooth="yes"/>
      <point x="319" y="733"/>
      <point x="279" y="697"/>
      <point x="279" y="655" type="curve" smooth="yes"/>
      <point x="279" y="624"/>
      <point x="303" y="603"/>
      <point x="333" y="603" type="curve" smooth="yes"/>
      <point x="374" y="603"/>
      <point x="414" y="641"/>
    </contour>
  </outline>
</glyph>
<glyph name="uhungarumlaut" format="1">
  <advance width="526"/>
  <unicode hex="0171"/>
  <outline>
    <contour>
      <point x="524" y="24" type="line"/>
      <point x="499" y="10"/>
      <point x="431" y="-12"/>
      <point x="388" y="-12" type="curve" smooth="yes"/>
      <point x="313" y="-12"/>
      <point x="323" y="47"/>
      <point x="323" y="63" type="curve"/>
      <point x="271" y="13"/>
      <point x="214" y="-12"/>
      <point x="147" y="-12" type="curve" smooth="yes"/>
      <point x="54" y="-12"/>
      <point x="34" y="61"/>
      <point x="45" y="113" type="curve" smooth="yes"/>
      <point x="110" y="425" type="line"/>
      <point x="26" y="434" type="line"/>
      <point x="26" y="463" type="line"/>
      <point x="177" y="494" type="line"/>
      <point x="218" y="494" type="line"/>
      <point x="138" y="113" type="line" smooth="yes"/>
      <point x="131" y="79"/>
      <point x="164" y="50"/>
      <point x="190" y="50" type="curve" smooth="yes"/>
      <point x="238" y="50"/>
      <point x="290" y="79"/>
      <point x="328" y="114" type="curve"/>
      <point x="404" y="482" type="line"/>
      <point x="497" y="482" type="line"/>
      <point x="417" y="97" type="line" smooth="yes"/>
      <point x="408" y="56"/>
      <point x="439" y="41"/>
      <point x="461" y="41" type="curve" smooth="yes"/>
      <point x="474" y="41"/>
      <point x="496" y="43"/>
      <point x="524" y="59" type="curve"/>
    </contour>
    <contour>
      <point x="598" y="689" type="curve" smooth="yes"/>
      <point x="598" y="670"/>
      <point x="588" y="658"/>
      <point x="574" y="648" type="curve" smooth="yes"/>
      <point x="424" y="551" type="line"/>
      <point x="354" y="551" type="line"/>
      <point x="490" y="707" type="line" smooth="yes"/>
      <point x="503" y="722"/>
      <point x="517" y="732"/>
      <point x="547" y="732" type="curve" smooth="yes"/>
      <point x="582" y="732"/>
      <point x="598" y="709"/>
    </contour>
    <contour>
      <point x="395" y="689" type="curve" smooth="yes"/>
      <point x="395" y="670"/>
      <point x="385" y="658"/>
      <point x="371" y="648" type="curve" smooth="yes"/>
      <point x="220" y="551" type="line"/>
      <point x="151" y="551" type="line"/>
      <point x="286" y="707" type="line" smooth="yes"/>
      <point x="299" y="722"/>
      <point x="314" y="732"/>
      <point x="344" y="732" type="curve" smooth="yes"/>
      <point x="379" y="732"/>
      <point x="395" y="709"/>
    </contour>
  </outline>
</glyph>
<glyph name="Uogonek" format="1">
  <advance width="707"/>
  <unicode hex="0172"/>
  <outline>
    <contour>
      <point x="749" y="629" type="line"/>
      <point x="691" y="624" type="line" smooth="yes"/>
      <point x="679" y="623"/>
      <point x="669" y="617"/>
      <point x="667" y="604" type="curve" smooth="yes"/>
      <point x="590" y="214" type="line" smooth="yes"/>
      <point x="562" y="69"/>
      <point x="470" y="-16"/>
      <point x="311" y="-16" type="curve" smooth="yes"/>
      <point x="188" y="-16"/>
      <point x="92" y="32"/>
      <point x="92" y="159" type="curve" smooth="yes"/>
      <point x="92" y="179"/>
      <point x="96" y="218"/>
      <point x="105" y="264" type="curve" smooth="yes"/>
      <point x="175" y="604" type="line" smooth="yes"/>
      <point x="177" y="615"/>
      <point x="173" y="623"/>
      <point x="155" y="624" type="curve" smooth="yes"/>
      <point x="99" y="629" type="line"/>
      <point x="99" y="671" type="line"/>
      <point x="359" y="671" type="line"/>
      <point x="359" y="629" type="line"/>
      <point x="300" y="624" type="line" smooth="yes"/>
      <point x="288" y="623"/>
      <point x="278" y="617"/>
      <point x="276" y="604" type="curve" smooth="yes"/>
      <point x="207" y="264" type="line" smooth="yes"/>
      <point x="199" y="225"/>
      <point x="196" y="193"/>
      <point x="196" y="175" type="curve" smooth="yes"/>
      <point x="196" y="91"/>
      <point x="251" y="49"/>
      <point x="337" y="49" type="curve" smooth="yes"/>
      <point x="467" y="49"/>
      <point x="508" y="142"/>
      <point x="529" y="249" type="curve" smooth="yes"/>
      <point x="599" y="604" type="line" smooth="yes"/>
      <point x="601" y="615"/>
      <point x="597" y="623"/>
      <point x="579" y="624" type="curve" smooth="yes"/>
      <point x="523" y="629" type="line"/>
      <point x="523" y="671" type="line"/>
      <point x="749" y="671" type="line"/>
    </contour>
    <contour>
      <point x="378" y="0" type="line"/>
      <point x="341" y="-29"/>
      <point x="298" y="-72"/>
      <point x="298" y="-123" type="curve" smooth="yes"/>
      <point x="298" y="-147"/>
      <point x="316" y="-157"/>
      <point x="338" y="-157" type="curve" smooth="yes"/>
      <point x="351" y="-157"/>
      <point x="363" y="-155"/>
      <point x="375" y="-152" type="curve"/>
      <point x="366" y="-209" type="line"/>
      <point x="349" y="-213"/>
      <point x="330" y="-216"/>
      <point x="312" y="-216" type="curve" smooth="yes"/>
      <point x="269" y="-216"/>
      <point x="230" y="-199"/>
      <point x="230" y="-150" type="curve" smooth="yes"/>
      <point x="230" y="-91"/>
      <point x="278" y="-33"/>
      <point x="324" y="0" type="curve"/>
    </contour>
  </outline>
</glyph>
<glyph name="uogonek" format="1">
  <advance width="526"/>
  <unicode hex="0173"/>
  <outline>
    <contour>
      <point x="524" y="24" type="line"/>
      <point x="499" y="10"/>
      <point x="431" y="-12"/>
      <point x="388" y="-12" type="curve" smooth="yes"/>
      <point x="313" y="-12"/>
      <point x="323" y="47"/>
      <point x="323" y="63" type="curve"/>
      <point x="271" y="13"/>
      <point x="214" y="-12"/>
      <point x="147" y="-12" type="curve" smooth="yes"/>
      <point x="54" y="-12"/>
      <point x="34" y="61"/>
      <point x="45" y="113" type="curve" smooth="yes"/>
      <point x="110" y="425" type="line"/>
      <point x="26" y="434" type="line"/>
      <point x="26" y="463" type="line"/>
      <point x="177" y="494" type="line"/>
      <point x="218" y="494" type="line"/>
      <point x="138" y="113" type="line" smooth="yes"/>
      <point x="131" y="79"/>
      <point x="164" y="50"/>
      <point x="190" y="50" type="curve" smooth="yes"/>
      <point x="238" y="50"/>
      <point x="290" y="79"/>
      <point x="328" y="114" type="curve"/>
      <point x="404" y="482" type="line"/>
      <point x="497" y="482" type="line"/>
      <point x="417" y="97" type="line" smooth="yes"/>
      <point x="408" y="56"/>
      <point x="439" y="41"/>
      <point x="461" y="41" type="curve" smooth="yes"/>
      <point x="474" y="41"/>
      <point x="496" y="43"/>
      <point x="524" y="59" type="curve"/>
    </contour>
    <contour>
      <point x="431" y="0" type="line"/>
      <point x="394" y="-29"/>
      <point x="351" y="-72"/>
      <point x="351" y="-123" type="curve" smooth="yes"/>
      <point x="351" y="-147"/>
      <point x="369" y="-157"/>
      <point x="391" y="-157" type="curve" smooth="yes"/>
      <point x="404" y="-157"/>
      <point x="416" y="-155"/>
      <point x="428" y="-152" type="curve"/>
      <point x="419" y="-209" type="line"/>
      <point x="402" y="-213"/>
      <point x="383" y="-216"/>
      <point x="365" y="-216" type="curve" smooth="yes"/>
      <point x="322" y="-216"/>
      <point x="283" y="-199"/>
      <point x="283" y="-150" type="curve" smooth="yes"/>
      <point x="283" y="-91"/>
      <point x="331" y="-33"/>
      <point x="377" y="0" type="curve"/>
    </contour>
  </outline>
</glyph>
<glyph name="Wcircumflex" format="1">
  <advance width="926"/>
  <unicode hex="0174"/>
  <outline>
    <contour>
      <point x="1000" y="629" type="line"/>
      <point x="941" y="623" type="line"/>
      <point x="641" y="-16" type="line"/>
      <point x="577" y="-16" type="line"/>
      <point x="519" y="518" type="line"/>
      <point x="269" y="-16" type="line"/>
      <point x="199" y="-16" type="line"/>
      <point x="149" y="607" type="line" smooth="yes"/>
      <point x="148" y="620"/>
      <point x="142" y="626"/>
      <point x="125" y="627" type="curve" smooth="yes"/>
      <point x="83" y="629" type="line"/>
      <point x="83" y="671" type="line"/>
      <point x="314" y="671" type="line"/>
      <point x="314" y="629" type="line"/>
      <point x="270" y="627" type="line" smooth="yes"/>
      <point x="255" y="626"/>
      <point x="250" y="619"/>
      <point x="250" y="607" type="curve" smooth="yes"/>
      <point x="285" y="173" type="line"/>
      <point x="520" y="671" type="line"/>
      <point x="601" y="671" type="line"/>
      <point x="652" y="166" type="line"/>
      <point x="855" y="607" type="line" smooth="yes"/>
      <point x="861" y="619"/>
      <point x="854" y="626"/>
      <point x="836" y="627" type="curve" smooth="yes"/>
      <point x="791" y="629" type="line"/>
      <point x="791" y="671" type="line"/>
      <point x="1000" y="671" type="line"/>
    </contour>
    <contour>
      <point x="736" y="746" type="line"/>
      <point x="667" y="746" type="line"/>
      <point x="584" y="838" type="line"/>
      <point x="464" y="746" type="line"/>
      <point x="395" y="746" type="line"/>
      <point x="560" y="916" type="line"/>
      <point x="638" y="916" type="line"/>
    </contour>
  </outline>
</glyph>
<glyph name="Zacute" format="1">
  <advance width="562"/>
  <unicode hex="0179"/>
  <outline>
    <contour>
      <point x="595" y="671" type="line"/>
      <point x="586" y="626" type="line"/>
      <point x="115" y="53" type="line"/>
      <point x="387" y="53" type="line" smooth="yes"/>
      <point x="401" y="53"/>
      <point x="408" y="59"/>
      <point x="412" y="73" type="curve" smooth="yes"/>
      <point x="442" y="185" type="line"/>
      <point x="510" y="185" type="line"/>
      <point x="475" y="0" type="line"/>
      <point x="-20" y="0" type="line"/>
      <point x="-11" y="44" type="line"/>
      <point x="458" y="619" type="line"/>
      <point x="224" y="619" type="line" smooth="yes"/>
      <point x="210" y="619"/>
      <point x="204" y="613"/>
      <point x="200" y="600" type="curve" smooth="yes"/>
      <point x="173" y="512" type="line"/>
      <point x="104" y="512" type="line"/>
      <point x="136" y="671" type="line"/>
    </contour>
    <contour>
      <point x="533" y="884" type="curve" smooth="yes"/>
      <point x="533" y="865"/>
      <point x="524" y="853"/>
      <point x="509" y="843" type="curve" smooth="yes"/>
      <point x="359" y="746" type="line"/>
      <point x="289" y="746" type="line"/>
      <point x="425" y="902" type="line" smooth="yes"/>
      <point x="438" y="917"/>
      <point x="452" y="927"/>
      <point x="482" y="927" type="curve" smooth="yes"/>
      <point x="517" y="927"/>
      <point x="533" y="904"/>
    </contour>
  </outline>
</glyph>
<glyph name="Zdotaccent" format="1">
  <advance width="562"/>
  <unicode hex="017B"/>
  <outline>
    <contour>
      <point x="595" y="671" type="line"/>
      <point x="586" y="626" type="line"/>
      <point x="115" y="53" type="line"/>
      <point x="387" y="53" type="line" smooth="yes"/>
      <point x="401" y="53"/>
      <point x="408" y="59"/>
      <point x="412" y="73" type="curve" smooth="yes"/>
      <point x="442" y="185" type="line"/>
      <point x="510" y="185" type="line"/>
      <point x="475" y="0" type="line"/>
      <point x="-20" y="0" type="line"/>
      <point x="-11" y="44" type="line"/>
      <point x="458" y="619" type="line"/>
      <point x="224" y="619" type="line" smooth="yes"/>
      <point x="210" y="619"/>
      <point x="204" y="613"/>
      <point x="200" y="600" type="curve" smooth="yes"/>
      <point x="173" y="512" type="line"/>
      <point x="104" y="512" type="line"/>
      <point x="136" y="671" type="line"/>
    </contour>
    <contour>
      <point x="445" y="836" type="curve" smooth="yes"/>
      <point x="445" y="805"/>
      <point x="420" y="780"/>
      <point x="389" y="780" type="curve" smooth="yes"/>
      <point x="358" y="780"/>
      <point x="333" y="805"/>
      <point x="333" y="836" type="curve" smooth="yes"/>
      <point x="333" y="867"/>
      <point x="357" y="894"/>
      <point x="389" y="894" type="curve" smooth="yes"/>
      <point x="420" y="894"/>
      <point x="445" y="868"/>
    </contour>
  </outline>
</glyph>
<glyph name="uni0181" format="1">
  <advance width="627"/>
  <unicode hex="0181"/>
  <outline>
    <contour>
      <point x="595" y="543" type="curve" smooth="yes"/>
      <point x="595" y="440"/>
      <point x="520" y="387"/>
      <point x="429" y="357" type="curve"/>
      <point x="515" y="345"/>
      <point x="576" y="311"/>
      <point x="576" y="224" type="curve" smooth="yes"/>
      <point x="576" y="60"/>
      <point x="448" y="0"/>
      <point x="281" y="0" type="curve" smooth="yes"/>
      <point x="7" y="0" type="line"/>
      <point x="7" y="42" type="line"/>
      <point x="69" y="47" type="line" smooth="yes"/>
      <point x="82" y="48"/>
      <point x="86" y="54"/>
      <point x="89" y="66" type="curve" smooth="yes"/>
      <point x="190" y="598" type="line" smooth="yes"/>
      <point x="192" y="608"/>
      <point x="188" y="618"/>
      <point x="170" y="618" type="curve" smooth="yes"/>
      <point x="139" y="618" type="line" smooth="yes"/>
      <point x="104" y="618"/>
      <point x="93" y="598"/>
      <point x="93" y="598" type="curve"/>
      <point x="120" y="528" type="line"/>
      <point x="97" y="507"/>
      <point x="71" y="495"/>
      <point x="52" y="495" type="curve" smooth="yes"/>
      <point x="24" y="495"/>
      <point x="4" y="523"/>
      <point x="4" y="550" type="curve" smooth="yes"/>
      <point x="4" y="630"/>
      <point x="91" y="671"/>
      <point x="141" y="671" type="curve" smooth="yes"/>
      <point x="398" y="671" type="line" smooth="yes"/>
      <point x="542" y="671"/>
      <point x="595" y="620"/>
    </contour>
    <contour>
      <point x="485" y="536" type="curve" smooth="yes"/>
      <point x="485" y="599"/>
      <point x="433" y="628"/>
      <point x="348" y="628" type="curve" smooth="yes"/>
      <point x="328" y="628"/>
      <point x="308" y="626"/>
      <point x="297" y="625" type="curve"/>
      <point x="249" y="371" type="line"/>
      <point x="263" y="370"/>
      <point x="287" y="369"/>
      <point x="295" y="369" type="curve" smooth="yes"/>
      <point x="421" y="369"/>
      <point x="485" y="446"/>
    </contour>
    <contour>
      <point x="467" y="214" type="curve" smooth="yes"/>
      <point x="467" y="295"/>
      <point x="407" y="325"/>
      <point x="313" y="325" type="curve" smooth="yes"/>
      <point x="288" y="325"/>
      <point x="261" y="323"/>
      <point x="239" y="320" type="curve"/>
      <point x="187" y="48" type="line"/>
      <point x="202" y="47"/>
      <point x="231" y="45"/>
      <point x="248" y="45" type="curve" smooth="yes"/>
      <point x="391" y="45"/>
      <point x="467" y="108"/>
    </contour>
  </outline>
</glyph>
<glyph name="uni0183" format="1">
  <advance width="520"/>
  <unicode hex="0183"/>
  <outline>
    <contour>
      <point x="149" y="737" type="line"/>
      <point x="489" y="737" type="line"/>
      <point x="458" y="581" type="line"/>
      <point x="403" y="581" type="line"/>
      <point x="407" y="671" type="line" smooth="yes"/>
      <point x="408" y="680"/>
      <point x="404" y="690"/>
      <point x="394" y="690" type="curve" smooth="yes"/>
      <point x="254" y="690" type="line" smooth="yes"/>
      <point x="240" y="690"/>
      <point x="231" y="677"/>
      <point x="229" y="669" type="curve" smooth="yes"/>
      <point x="185" y="434" type="line"/>
      <point x="221" y="467"/>
      <point x="274" y="494"/>
      <point x="322" y="494" type="curve" smooth="yes"/>
      <point x="425" y="494"/>
      <point x="460" y="393"/>
      <point x="460" y="310" type="curve" smooth="yes"/>
      <point x="460" y="186"/>
      <point x="381" y="-12"/>
      <point x="178" y="-12" type="curve" smooth="yes"/>
      <point x="122" y="-12"/>
      <point x="65" y="4"/>
      <point x="18" y="34" type="curve"/>
    </contour>
    <contour>
      <point x="361" y="306" type="curve" smooth="yes"/>
      <point x="361" y="396"/>
      <point x="313" y="428"/>
      <point x="289" y="428" type="curve" smooth="yes"/>
      <point x="257" y="428"/>
      <point x="208" y="406"/>
      <point x="174" y="377" type="curve"/>
      <point x="118" y="74" type="line"/>
      <point x="131" y="55"/>
      <point x="164" y="35"/>
      <point x="200" y="35" type="curve" smooth="yes"/>
      <point x="292" y="35"/>
      <point x="361" y="186"/>
    </contour>
  </outline>
</glyph>
<glyph name="uni0187" format="1">
  <advance width="629"/>
  <unicode hex="0187"/>
  <outline>
    <contour>
      <point x="849" y="792" type="curve" smooth="yes"/>
      <point x="849" y="762"/>
      <point x="822" y="733"/>
      <point x="794" y="726" type="curve"/>
      <point x="717" y="794" type="line"/>
      <point x="668" y="777"/>
      <point x="662" y="749"/>
      <point x="644" y="647" type="curve" smooth="yes"/>
      <point x="617" y="491" type="line"/>
      <point x="558" y="491" type="line"/>
      <point x="558" y="584" type="line" smooth="yes"/>
      <point x="558" y="594"/>
      <point x="549" y="608"/>
      <point x="540" y="611" type="curve" smooth="yes"/>
      <point x="535" y="614"/>
      <point x="503" y="636"/>
      <point x="455" y="636" type="curve" smooth="yes"/>
      <point x="302" y="636"/>
      <point x="154" y="487"/>
      <point x="154" y="256" type="curve" smooth="yes"/>
      <point x="154" y="105"/>
      <point x="247" y="35"/>
      <point x="359" y="35" type="curve" smooth="yes"/>
      <point x="402" y="35"/>
      <point x="429" y="50"/>
      <point x="434" y="52" type="curve" smooth="yes"/>
      <point x="442" y="53"/>
      <point x="453" y="63"/>
      <point x="457" y="72" type="curve" smooth="yes"/>
      <point x="500" y="186" type="line"/>
      <point x="559" y="186" type="line"/>
      <point x="532" y="24" type="line"/>
      <point x="517" y="19"/>
      <point x="423" y="-16"/>
      <point x="326" y="-16" type="curve" smooth="yes"/>
      <point x="127" y="-16"/>
      <point x="48" y="125"/>
      <point x="48" y="267" type="curve" smooth="yes"/>
      <point x="48" y="480"/>
      <point x="212" y="687"/>
      <point x="450" y="687" type="curve" smooth="yes"/>
      <point x="491" y="687"/>
      <point x="527" y="681"/>
      <point x="567" y="671" type="curve"/>
      <point x="595" y="771"/>
      <point x="657" y="844"/>
      <point x="766" y="844" type="curve" smooth="yes"/>
      <point x="822" y="844"/>
      <point x="849" y="821"/>
    </contour>
  </outline>
</glyph>
<glyph name="uni018D" format="1">
  <advance width="502"/>
  <unicode hex="018D"/>
  <outline>
    <contour>
      <point x="37" y="212" type="curve" smooth="yes"/>
      <point x="37" y="393"/>
      <point x="187" y="494"/>
      <point x="294" y="494" type="curve" smooth="yes"/>
      <point x="388" y="494"/>
      <point x="472" y="450"/>
      <point x="472" y="336" type="curve" smooth="yes"/>
      <point x="472" y="175"/>
      <point x="341" y="89"/>
      <point x="217" y="44" type="curve"/>
      <point x="270" y="-17"/>
      <point x="331" y="-65"/>
      <point x="331" y="-120" type="curve" smooth="yes"/>
      <point x="331" y="-207"/>
      <point x="232" y="-256"/>
      <point x="157" y="-256" type="curve" smooth="yes"/>
      <point x="49" y="-256"/>
      <point x="-12" y="-193"/>
      <point x="-12" y="-148" type="curve" smooth="yes"/>
      <point x="-12" y="-114"/>
      <point x="17" y="-76"/>
      <point x="58" y="-76" type="curve" smooth="yes"/>
      <point x="68" y="-76"/>
      <point x="88" y="-80"/>
      <point x="96" y="-88" type="curve"/>
      <point x="100" y="-168" type="line"/>
      <point x="122" y="-193"/>
      <point x="138" y="-200"/>
      <point x="170" y="-200" type="curve" smooth="yes"/>
      <point x="205" y="-200"/>
      <point x="252" y="-188"/>
      <point x="252" y="-143" type="curve" smooth="yes"/>
      <point x="252" y="-57"/>
      <point x="37" y="23"/>
    </contour>
    <contour>
      <point x="138" y="221" type="curve" smooth="yes"/>
      <point x="138" y="163"/>
      <point x="161" y="116"/>
      <point x="192" y="75" type="curve"/>
      <point x="276" y="115"/>
      <point x="371" y="211"/>
      <point x="371" y="329" type="curve" smooth="yes"/>
      <point x="371" y="412"/>
      <point x="342" y="449"/>
      <point x="292" y="449" type="curve" smooth="yes"/>
      <point x="207" y="449"/>
      <point x="138" y="338"/>
    </contour>
  </outline>
</glyph>
<glyph name="uni0191" format="1">
  <advance width="514"/>
  <unicode hex="0191"/>
  <outline>
    <contour>
      <point x="569" y="671" type="line"/>
      <point x="538" y="510" type="line"/>
      <point x="474" y="510" type="line"/>
      <point x="474" y="602" type="line" smooth="yes"/>
      <point x="474" y="616"/>
      <point x="469" y="621"/>
      <point x="454" y="621" type="curve" smooth="yes"/>
      <point x="275" y="621" type="line"/>
      <point x="226" y="364" type="line"/>
      <point x="354" y="364" type="line" smooth="yes"/>
      <point x="368" y="364"/>
      <point x="375" y="369"/>
      <point x="378" y="383" type="curve" smooth="yes"/>
      <point x="397" y="451" type="line"/>
      <point x="454" y="451" type="line"/>
      <point x="410" y="223" type="line"/>
      <point x="353" y="223" type="line"/>
      <point x="363" y="293" type="line" smooth="yes"/>
      <point x="365" y="306"/>
      <point x="357" y="313"/>
      <point x="343" y="313" type="curve" smooth="yes"/>
      <point x="216" y="313" type="line"/>
      <point x="149" y="-32" type="line" smooth="yes"/>
      <point x="123" y="-165"/>
      <point x="32" y="-229"/>
      <point x="-113" y="-229" type="curve" smooth="yes"/>
      <point x="-151" y="-229"/>
      <point x="-191" y="-202"/>
      <point x="-191" y="-164" type="curve" smooth="yes"/>
      <point x="-191" y="-130"/>
      <point x="-151" y="-89"/>
      <point x="-123" y="-89" type="curve"/>
      <point x="-55" y="-174" type="line"/>
      <point x="-34" y="-170"/>
      <point x="-17" y="-167"/>
      <point x="0" y="-152" type="curve" smooth="yes"/>
      <point x="19" y="-136"/>
      <point x="36" y="-92"/>
      <point x="49" y="-28" type="curve" smooth="yes"/>
      <point x="171" y="604" type="line" smooth="yes"/>
      <point x="173" y="615"/>
      <point x="169" y="623"/>
      <point x="151" y="624" type="curve" smooth="yes"/>
      <point x="95" y="629" type="line"/>
      <point x="95" y="671" type="line"/>
    </contour>
  </outline>
</glyph>
<glyph name="uni0193" format="1">
  <advance width="687"/>
  <unicode hex="0193"/>
  <outline>
    <contour>
      <point x="158" y="252" type="curve" smooth="yes"/>
      <point x="158" y="91"/>
      <point x="280" y="37"/>
      <point x="352" y="37" type="curve" smooth="yes"/>
      <point x="392" y="37"/>
      <point x="437" y="50"/>
      <point x="453" y="54" type="curve"/>
      <point x="492" y="258" type="line" smooth="yes"/>
      <point x="494" y="269"/>
      <point x="490" y="276"/>
      <point x="472" y="277" type="curve" smooth="yes"/>
      <point x="417" y="282" type="line"/>
      <point x="417" y="324" type="line"/>
      <point x="675" y="324" type="line"/>
      <point x="675" y="282" type="line"/>
      <point x="618" y="277" type="line" smooth="yes"/>
      <point x="605" y="276"/>
      <point x="596" y="271"/>
      <point x="593" y="258" type="curve" smooth="yes"/>
      <point x="548" y="23" type="line"/>
      <point x="528" y="18"/>
      <point x="415" y="-16"/>
      <point x="332" y="-16" type="curve" smooth="yes"/>
      <point x="104" y="-16"/>
      <point x="48" y="156"/>
      <point x="48" y="268" type="curve" smooth="yes"/>
      <point x="48" y="524"/>
      <point x="264" y="687"/>
      <point x="479" y="687" type="curve" smooth="yes"/>
      <point x="519" y="687"/>
      <point x="547" y="684"/>
      <point x="587" y="674" type="curve"/>
      <point x="615" y="774"/>
      <point x="676" y="845"/>
      <point x="785" y="845" type="curve" smooth="yes"/>
      <point x="841" y="845"/>
      <point x="868" y="822"/>
      <point x="868" y="792" type="curve" smooth="yes"/>
      <point x="868" y="763"/>
      <point x="842" y="734"/>
      <point x="813" y="727" type="curve"/>
      <point x="736" y="795" type="line"/>
      <point x="687" y="778"/>
      <point x="682" y="749"/>
      <point x="663" y="648" type="curve" smooth="yes"/>
      <point x="634" y="492" type="line"/>
      <point x="566" y="492" type="line"/>
      <point x="570" y="581" type="line" smooth="yes"/>
      <point x="570" y="591"/>
      <point x="561" y="608"/>
      <point x="552" y="611" type="curve" smooth="yes"/>
      <point x="547" y="614"/>
      <point x="515" y="633"/>
      <point x="467" y="633" type="curve" smooth="yes"/>
      <point x="317" y="633"/>
      <point x="158" y="483"/>
    </contour>
  </outline>
</glyph>
<glyph name="uni0194" format="1">
  <advance width="666"/>
  <unicode hex="0194"/>
  <outline>
    <contour>
      <point x="730" y="632" type="line"/>
      <point x="661" y="626" type="line"/>
      <point x="384" y="262" type="line"/>
      <point x="393" y="235"/>
      <point x="429" y="142"/>
      <point x="429" y="107" type="curve" smooth="yes"/>
      <point x="429" y="37"/>
      <point x="354" y="-16"/>
      <point x="289" y="-16" type="curve" smooth="yes"/>
      <point x="238" y="-16"/>
      <point x="183" y="7"/>
      <point x="183" y="65" type="curve" smooth="yes"/>
      <point x="183" y="101"/>
      <point x="273" y="204"/>
      <point x="286" y="220" type="curve"/>
      <point x="152" y="627" type="line"/>
      <point x="83" y="632" type="line"/>
      <point x="83" y="671" type="line"/>
      <point x="347" y="671" type="line"/>
      <point x="347" y="632" type="line"/>
      <point x="294" y="629" type="line" smooth="yes"/>
      <point x="276" y="628"/>
      <point x="269" y="618"/>
      <point x="273" y="604" type="curve" smooth="yes"/>
      <point x="273" y="604"/>
      <point x="357" y="348"/>
      <point x="365" y="324" type="curve"/>
      <point x="385" y="351"/>
      <point x="582" y="607"/>
      <point x="582" y="607" type="curve" smooth="yes"/>
      <point x="590" y="618"/>
      <point x="586" y="627"/>
      <point x="564" y="629" type="curve" smooth="yes"/>
      <point x="520" y="632" type="line"/>
      <point x="520" y="671" type="line"/>
      <point x="730" y="671" type="line"/>
    </contour>
    <contour>
      <point x="328" y="81" type="curve" smooth="yes"/>
      <point x="328" y="96"/>
      <point x="311" y="143"/>
      <point x="306" y="159" type="curve"/>
      <point x="292" y="142"/>
      <point x="249" y="93"/>
      <point x="249" y="71" type="curve" smooth="yes"/>
      <point x="249" y="52"/>
      <point x="265" y="42"/>
      <point x="283" y="42" type="curve" smooth="yes"/>
      <point x="306" y="42"/>
      <point x="328" y="56"/>
    </contour>
  </outline>
</glyph>
<glyph name="uni019A" format="1">
  <advance width="265"/>
  <unicode hex="019A"/>
  <outline>
    <contour>
      <point x="307" y="378" type="line"/>
      <point x="296" y="323" type="line"/>
      <point x="179" y="323" type="line"/>
      <point x="136" y="99" type="line" smooth="yes"/>
      <point x="131" y="72"/>
      <point x="154" y="44"/>
      <point x="182" y="44" type="curve" smooth="yes"/>
      <point x="201" y="44"/>
      <point x="252" y="61"/>
      <point x="263" y="64" type="curve"/>
      <point x="263" y="26" type="line"/>
      <point x="247" y="20"/>
      <point x="171" y="-12"/>
      <point x="124" y="-12" type="curve" smooth="yes"/>
      <point x="63" y="-12"/>
      <point x="39" y="18"/>
      <point x="39" y="61" type="curve" smooth="yes"/>
      <point x="39" y="71"/>
      <point x="40" y="83"/>
      <point x="42" y="96" type="curve" smooth="yes"/>
      <point x="86" y="323" type="line"/>
      <point x="-13" y="323" type="line"/>
      <point x="-2" y="378" type="line"/>
      <point x="97" y="378" type="line"/>
      <point x="152" y="668" type="line"/>
      <point x="63" y="677" type="line"/>
      <point x="63" y="707" type="line"/>
      <point x="219" y="737" type="line"/>
      <point x="258" y="737" type="line"/>
      <point x="189" y="378" type="line"/>
    </contour>
  </outline>
</glyph>
<glyph name="uni019C" format="1">
  <advance width="1073"/>
  <unicode hex="019C"/>
  <outline>
    <contour>
      <point x="278" y="602" type="curve" smooth="yes"/>
      <point x="201" y="218" type="line" smooth="yes"/>
      <point x="184" y="129"/>
      <point x="236" y="67"/>
      <point x="325" y="67" type="curve" smooth="yes"/>
      <point x="365" y="67"/>
      <point x="426" y="93"/>
      <point x="468" y="113" type="curve"/>
      <point x="465" y="138"/>
      <point x="466" y="166"/>
      <point x="472" y="198" type="curve" smooth="yes"/>
      <point x="553" y="602" type="line" smooth="yes"/>
      <point x="555" y="612"/>
      <point x="550" y="623"/>
      <point x="536" y="624" type="curve" smooth="yes"/>
      <point x="478" y="628" type="line"/>
      <point x="478" y="671" type="line"/>
      <point x="740" y="671" type="line"/>
      <point x="740" y="628" type="line"/>
      <point x="679" y="624" type="line" smooth="yes"/>
      <point x="665" y="623"/>
      <point x="656" y="612"/>
      <point x="654" y="602" type="curve" smooth="yes"/>
      <point x="577" y="218" type="line" smooth="yes"/>
      <point x="560" y="129"/>
      <point x="585" y="67"/>
      <point x="674" y="67" type="curve" smooth="yes"/>
      <point x="741" y="67"/>
      <point x="776" y="97"/>
      <point x="837" y="138" type="curve"/>
      <point x="929" y="602" type="line" smooth="yes"/>
      <point x="931" y="612"/>
      <point x="926" y="623"/>
      <point x="912" y="624" type="curve" smooth="yes"/>
      <point x="854" y="628" type="line"/>
      <point x="854" y="671" type="line"/>
      <point x="1116" y="671" type="line"/>
      <point x="1116" y="628" type="line"/>
      <point x="1055" y="624" type="line" smooth="yes"/>
      <point x="1041" y="623"/>
      <point x="1032" y="612"/>
      <point x="1030" y="602" type="curve" smooth="yes"/>
      <point x="924" y="67" type="line" smooth="yes"/>
      <point x="922" y="59"/>
      <point x="926" y="49"/>
      <point x="939" y="48" type="curve" smooth="yes"/>
      <point x="997" y="43" type="line"/>
      <point x="997" y="0" type="line"/>
      <point x="809" y="0" type="line"/>
      <point x="826" y="81" type="line"/>
      <point x="739" y="21"/>
      <point x="698" y="-16"/>
      <point x="618" y="-16" type="curve" smooth="yes"/>
      <point x="551" y="-16"/>
      <point x="501" y="12"/>
      <point x="479" y="65" type="curve"/>
      <point x="404" y="15"/>
      <point x="342" y="-16"/>
      <point x="269" y="-16" type="curve" smooth="yes"/>
      <point x="171" y="-16"/>
      <point x="92" y="44"/>
      <point x="92" y="151" type="curve" smooth="yes"/>
      <point x="92" y="166"/>
      <point x="93" y="181"/>
      <point x="97" y="198" type="curve" smooth="yes"/>
      <point x="177" y="602" type="line" smooth="yes"/>
      <point x="179" y="612"/>
      <point x="174" y="623"/>
      <point x="160" y="624" type="curve" smooth="yes"/>
      <point x="102" y="628" type="line"/>
      <point x="102" y="671" type="line"/>
      <point x="364" y="671" type="line"/>
      <point x="364" y="628" type="line"/>
      <point x="303" y="624" type="line" smooth="yes"/>
      <point x="289" y="623"/>
      <point x="280" y="612"/>
    </contour>
  </outline>
</glyph>
<glyph name="uni019E" format="1">
  <advance width="529"/>
  <unicode hex="019E"/>
  <outline>
    <contour>
      <point x="484" y="-198" type="line"/>
      <point x="467" y="-204"/>
      <point x="392" y="-229"/>
      <point x="350" y="-229" type="curve" smooth="yes"/>
      <point x="326" y="-229"/>
      <point x="258" y="-225"/>
      <point x="269" y="-171" type="curve" smooth="yes"/>
      <point x="373" y="354" type="line" smooth="yes"/>
      <point x="383" y="407"/>
      <point x="351" y="423"/>
      <point x="329" y="423" type="curve" smooth="yes"/>
      <point x="297" y="423"/>
      <point x="229" y="383"/>
      <point x="185" y="336" type="curve"/>
      <point x="116" y="0" type="line"/>
      <point x="23" y="0" type="line"/>
      <point x="110" y="425" type="line"/>
      <point x="26" y="434" type="line"/>
      <point x="26" y="463" type="line"/>
      <point x="177" y="494" type="line"/>
      <point x="217" y="494" type="line"/>
      <point x="198" y="401" type="line"/>
      <point x="242" y="446"/>
      <point x="317" y="494"/>
      <point x="384" y="494" type="curve" smooth="yes"/>
      <point x="457" y="494"/>
      <point x="490" y="455"/>
      <point x="473" y="366" type="curve" smooth="yes"/>
      <point x="377" y="-133" type="line" smooth="yes"/>
      <point x="370" y="-172"/>
      <point x="408" y="-176"/>
      <point x="420" y="-176" type="curve" smooth="yes"/>
      <point x="438" y="-176"/>
      <point x="460" y="-170"/>
      <point x="483" y="-163" type="curve"/>
    </contour>
  </outline>
</glyph>
<glyph name="uni01A3" format="1">
  <advance width="705"/>
  <unicode hex="01A3"/>
  <outline>
    <contour>
      <point x="322" y="140" type="curve" smooth="yes"/>
      <point x="381" y="425" type="line"/>
      <point x="347" y="447"/>
      <point x="329" y="449"/>
      <point x="300" y="449" type="curve" smooth="yes"/>
      <point x="191" y="449"/>
      <point x="132" y="300"/>
      <point x="132" y="182" type="curve" smooth="yes"/>
      <point x="132" y="84"/>
      <point x="167" y="33"/>
      <point x="224" y="33" type="curve" smooth="yes"/>
      <point x="281" y="33"/>
      <point x="308" y="71"/>
    </contour>
    <contour>
      <point x="411" y="112" type="line" smooth="yes"/>
      <point x="396" y="37"/>
      <point x="305" y="-12"/>
      <point x="223" y="-12" type="curve" smooth="yes"/>
      <point x="95" y="-12"/>
      <point x="31" y="61"/>
      <point x="31" y="177" type="curve" smooth="yes"/>
      <point x="31" y="339"/>
      <point x="139" y="494"/>
      <point x="310" y="494" type="curve" smooth="yes"/>
      <point x="410" y="494"/>
      <point x="469" y="458"/>
      <point x="525" y="458" type="curve" smooth="yes"/>
      <point x="555" y="458"/>
      <point x="590" y="463"/>
      <point x="633" y="482" type="curve"/>
      <point x="674" y="482" type="line"/>
      <point x="550" y="-155" type="line" smooth="yes"/>
      <point x="547" y="-169"/>
      <point x="556" y="-174"/>
      <point x="569" y="-175" type="curve" smooth="yes"/>
      <point x="631" y="-180" type="line"/>
      <point x="631" y="-218" type="line"/>
      <point x="378" y="-218" type="line"/>
      <point x="378" y="-180" type="line"/>
      <point x="430" y="-175" type="line" smooth="yes"/>
      <point x="442" y="-174"/>
      <point x="452" y="-168"/>
      <point x="454" y="-156" type="curve" smooth="yes"/>
      <point x="562" y="389" type="line"/>
      <point x="537" y="384"/>
      <point x="492" y="389"/>
      <point x="469" y="394" type="curve"/>
    </contour>
  </outline>
</glyph>
<glyph name="uni01A6" format="1">
  <advance width="592"/>
  <unicode hex="01A6"/>
  <outline>
    <contour>
      <point x="263" y="337" type="curve" smooth="yes"/>
      <point x="350" y="337"/>
      <point x="423" y="364"/>
      <point x="423" y="449" type="curve" smooth="yes"/>
      <point x="423" y="508"/>
      <point x="372" y="532"/>
      <point x="291" y="532" type="curve" smooth="yes"/>
      <point x="258" y="532" type="line"/>
      <point x="221" y="339" type="line"/>
      <point x="232" y="338"/>
      <point x="239" y="337"/>
    </contour>
    <contour>
      <point x="233" y="287" type="curve" smooth="yes"/>
      <point x="211" y="287" type="line"/>
      <point x="168" y="66" type="line" smooth="yes"/>
      <point x="166" y="56"/>
      <point x="170" y="49"/>
      <point x="183" y="48" type="curve" smooth="yes"/>
      <point x="246" y="43" type="line"/>
      <point x="246" y="0" type="line"/>
      <point x="-15" y="0" type="line"/>
      <point x="-15" y="42" type="line"/>
      <point x="47" y="47" type="line" smooth="yes"/>
      <point x="61" y="48"/>
      <point x="65" y="56"/>
      <point x="67" y="66" type="curve" smooth="yes"/>
      <point x="171" y="604" type="line" smooth="yes"/>
      <point x="173" y="614"/>
      <point x="170" y="623"/>
      <point x="156" y="624" type="curve" smooth="yes"/>
      <point x="96" y="629" type="line"/>
      <point x="96" y="671" type="line"/>
      <point x="356" y="671" type="line"/>
      <point x="356" y="629" type="line"/>
      <point x="293" y="624" type="line" smooth="yes"/>
      <point x="281" y="623"/>
      <point x="275" y="620"/>
      <point x="272" y="604" type="curve" smooth="yes"/>
      <point x="268" y="580" type="line"/>
      <point x="330" y="580" type="line" smooth="yes"/>
      <point x="456" y="580"/>
      <point x="533" y="550"/>
      <point x="533" y="458" type="curve" smooth="yes"/>
      <point x="533" y="369"/>
      <point x="441" y="307"/>
      <point x="352" y="293" type="curve"/>
      <point x="453" y="228"/>
      <point x="433" y="-13"/>
      <point x="545" y="-13" type="curve" smooth="yes"/>
      <point x="552" y="-13"/>
      <point x="560" y="-12"/>
      <point x="567" y="-11" type="curve"/>
      <point x="567" y="-55" type="line"/>
      <point x="545" y="-63"/>
      <point x="523" y="-68"/>
      <point x="488" y="-68" type="curve" smooth="yes"/>
      <point x="324" y="-68"/>
      <point x="341" y="287"/>
    </contour>
  </outline>
</glyph>
<glyph name="uni01AA" format="1">
  <advance width="440"/>
  <unicode hex="01AA"/>
  <outline>
    <contour>
      <point x="486" y="-152" type="curve" smooth="yes"/>
      <point x="486" y="-181"/>
      <point x="444" y="-218"/>
      <point x="383" y="-218" type="curve" smooth="yes"/>
      <point x="279" y="-218"/>
      <point x="222" y="-147"/>
      <point x="222" y="-53" type="curve" smooth="yes"/>
      <point x="222" y="-38"/>
      <point x="224" y="-23"/>
      <point x="227" y="-7" type="curve" smooth="yes"/>
      <point x="292" y="335" type="line"/>
      <point x="262" y="320"/>
      <point x="229" y="312"/>
      <point x="193" y="312" type="curve" smooth="yes"/>
      <point x="98" y="312"/>
      <point x="39" y="371"/>
      <point x="39" y="459" type="curve" smooth="yes"/>
      <point x="39" y="564"/>
      <point x="121" y="688"/>
      <point x="264" y="688" type="curve" smooth="yes"/>
      <point x="365" y="688"/>
      <point x="418" y="623"/>
      <point x="418" y="537" type="curve" smooth="yes"/>
      <point x="418" y="525"/>
      <point x="417" y="512"/>
      <point x="414" y="499" type="curve" smooth="yes"/>
      <point x="316" y="-9" type="line" smooth="yes"/>
      <point x="309" y="-47"/>
      <point x="306" y="-76"/>
      <point x="306" y="-98" type="curve" smooth="yes"/>
      <point x="306" y="-133"/>
      <point x="318" y="-150"/>
      <point x="344" y="-162" type="curve"/>
      <point x="437" y="-89" type="line"/>
      <point x="468" y="-89"/>
      <point x="486" y="-117"/>
    </contour>
    <contour>
      <point x="328" y="542" type="curve" smooth="yes"/>
      <point x="328" y="606"/>
      <point x="301" y="638"/>
      <point x="256" y="638" type="curve" smooth="yes"/>
      <point x="172" y="638"/>
      <point x="128" y="531"/>
      <point x="128" y="457" type="curve" smooth="yes"/>
      <point x="128" y="391"/>
      <point x="160" y="362"/>
      <point x="201" y="362" type="curve" smooth="yes"/>
      <point x="284" y="362"/>
      <point x="328" y="464"/>
    </contour>
  </outline>
</glyph>
<glyph name="uni01AB" format="1">
  <advance width="299"/>
  <unicode hex="01AB"/>
  <outline>
    <contour>
      <point x="349" y="419" type="line"/>
      <point x="202" y="419" type="line"/>
      <point x="139" y="105" type="line" smooth="yes"/>
      <point x="132" y="70"/>
      <point x="163" y="49"/>
      <point x="197" y="49" type="curve" smooth="yes"/>
      <point x="235" y="49"/>
      <point x="280" y="66"/>
      <point x="301" y="73" type="curve"/>
      <point x="266" y="-114" type="line" smooth="yes"/>
      <point x="251" y="-190"/>
      <point x="201" y="-229"/>
      <point x="115" y="-229" type="curve" smooth="yes"/>
      <point x="56" y="-229"/>
      <point x="24" y="-197"/>
      <point x="24" y="-167" type="curve" smooth="yes"/>
      <point x="24" y="-122"/>
      <point x="73" y="-111"/>
      <point x="80" y="-108" type="curve"/>
      <point x="146" y="-178" type="line"/>
      <point x="182" y="-178"/>
      <point x="206" y="-162"/>
      <point x="214" y="-119" type="curve" smooth="yes"/>
      <point x="238" y="9" type="line"/>
      <point x="202" y="-7"/>
      <point x="167" y="-12"/>
      <point x="138" y="-12" type="curve" smooth="yes"/>
      <point x="66" y="-12"/>
      <point x="44" y="25"/>
      <point x="44" y="74" type="curve" smooth="yes"/>
      <point x="44" y="87"/>
      <point x="45" y="101"/>
      <point x="48" y="115" type="curve" smooth="yes"/>
      <point x="109" y="419" type="line"/>
      <point x="46" y="413" type="line"/>
      <point x="46" y="446" type="line"/>
      <point x="121" y="479" type="line"/>
      <point x="170" y="579" type="line"/>
      <point x="231" y="579" type="line"/>
      <point x="211" y="465" type="line"/>
      <point x="349" y="465" type="line"/>
    </contour>
  </outline>
</glyph>
<glyph name="uni01B1" format="1">
  <advance width="708"/>
  <unicode hex="01B1"/>
  <outline>
    <contour>
      <point x="708" y="671" type="line"/>
      <point x="697" y="619" type="line"/>
      <point x="636" y="612" type="line" smooth="yes"/>
      <point x="623" y="611"/>
      <point x="616" y="602"/>
      <point x="621" y="591" type="curve" smooth="yes"/>
      <point x="621" y="591"/>
      <point x="640" y="542"/>
      <point x="643" y="535" type="curve" smooth="yes"/>
      <point x="659" y="485"/>
      <point x="676" y="432"/>
      <point x="676" y="379" type="curve" smooth="yes"/>
      <point x="676" y="180"/>
      <point x="507" y="-16"/>
      <point x="300" y="-16" type="curve" smooth="yes"/>
      <point x="145" y="-16"/>
      <point x="48" y="86"/>
      <point x="48" y="237" type="curve" smooth="yes"/>
      <point x="48" y="328"/>
      <point x="94" y="417"/>
      <point x="144" y="493" type="curve" smooth="yes"/>
      <point x="149" y="502"/>
      <point x="216" y="591"/>
      <point x="216" y="591" type="curve" smooth="yes"/>
      <point x="223" y="601"/>
      <point x="223" y="613"/>
      <point x="207" y="614" type="curve" smooth="yes"/>
      <point x="150" y="619" type="line"/>
      <point x="162" y="671" type="line"/>
      <point x="335" y="671" type="line"/>
      <point x="246" y="557"/>
      <point x="173" y="381"/>
      <point x="173" y="237" type="curve" smooth="yes"/>
      <point x="173" y="147"/>
      <point x="208" y="52"/>
      <point x="312" y="52" type="curve" smooth="yes"/>
      <point x="504" y="52"/>
      <point x="570" y="335"/>
      <point x="570" y="485" type="curve" smooth="yes"/>
      <point x="570" y="544"/>
      <point x="555" y="615"/>
      <point x="534" y="671" type="curve"/>
    </contour>
  </outline>
</glyph>
<glyph name="uni01B3.RtHook" format="1">
  <advance width="639"/>
  <unicode hex="01B3"/>
  <outline>
    <contour>
      <point x="810" y="685" type="curve" smooth="yes"/>
      <point x="810" y="646"/>
      <point x="779" y="619"/>
      <point x="747" y="610" type="curve"/>
      <point x="669" y="689" type="line"/>
      <point x="637" y="689"/>
      <point x="615" y="671"/>
      <point x="571" y="598" type="curve" smooth="yes"/>
      <point x="374" y="271" type="line"/>
      <point x="333" y="66" type="line" smooth="yes"/>
      <point x="330" y="56"/>
      <point x="335" y="48"/>
      <point x="352" y="47" type="curve" smooth="yes"/>
      <point x="408" y="42" type="line"/>
      <point x="408" y="0" type="line"/>
      <point x="148" y="0" type="line"/>
      <point x="148" y="42" type="line"/>
      <point x="206" y="47" type="line" smooth="yes"/>
      <point x="218" y="48"/>
      <point x="227" y="54"/>
      <point x="230" y="66" type="curve" smooth="yes"/>
      <point x="271" y="272" type="line"/>
      <point x="159" y="610" type="line" smooth="yes"/>
      <point x="155" y="623"/>
      <point x="147" y="624"/>
      <point x="140" y="625" type="curve" smooth="yes"/>
      <point x="84" y="629" type="line"/>
      <point x="84" y="671" type="line"/>
      <point x="343" y="671" type="line"/>
      <point x="343" y="629" type="line"/>
      <point x="279" y="625" type="line" smooth="yes"/>
      <point x="268" y="624"/>
      <point x="261" y="616"/>
      <point x="265" y="605" type="curve" smooth="yes"/>
      <point x="347" y="345" type="line"/>
      <point x="534" y="656" type="line" smooth="yes"/>
      <point x="572" y="720"/>
      <point x="630" y="753"/>
      <point x="713" y="753" type="curve" smooth="yes"/>
      <point x="769" y="753"/>
      <point x="810" y="715"/>
    </contour>
  </outline>
</glyph>
<glyph name="uni01B5" format="1">
  <advance width="562"/>
  <unicode hex="01B5"/>
  <outline>
    <contour>
      <point x="480" y="336" type="line"/>
      <point x="347" y="336" type="line"/>
      <point x="115" y="53" type="line"/>
      <point x="387" y="53" type="line" smooth="yes"/>
      <point x="401" y="53"/>
      <point x="408" y="59"/>
      <point x="412" y="73" type="curve" smooth="yes"/>
      <point x="442" y="185" type="line"/>
      <point x="510" y="185" type="line"/>
      <point x="475" y="0" type="line"/>
      <point x="-20" y="0" type="line"/>
      <point x="-11" y="44" type="line"/>
      <point x="227" y="336" type="line"/>
      <point x="137" y="336" type="line"/>
      <point x="137" y="386" type="line"/>
      <point x="268" y="386" type="line"/>
      <point x="458" y="619" type="line"/>
      <point x="224" y="619" type="line" smooth="yes"/>
      <point x="210" y="619"/>
      <point x="204" y="613"/>
      <point x="200" y="600" type="curve" smooth="yes"/>
      <point x="173" y="512" type="line"/>
      <point x="104" y="512" type="line"/>
      <point x="136" y="671" type="line"/>
      <point x="595" y="671" type="line"/>
      <point x="586" y="626" type="line"/>
      <point x="388" y="386" type="line"/>
      <point x="480" y="386" type="line"/>
    </contour>
  </outline>
</glyph>
<glyph name="uni01B6" format="1">
  <advance width="444"/>
  <unicode hex="01B6"/>
  <outline>
    <contour>
      <point x="358" y="222" type="line"/>
      <point x="240" y="222" type="line"/>
      <point x="111" y="71" type="line"/>
      <point x="195" y="93" type="line"/>
      <point x="222" y="83"/>
      <point x="269" y="59"/>
      <point x="296" y="59" type="curve" smooth="yes"/>
      <point x="324" y="59"/>
      <point x="338" y="78"/>
      <point x="349" y="92" type="curve"/>
      <point x="294" y="153" type="line"/>
      <point x="307" y="177"/>
      <point x="332" y="191"/>
      <point x="350" y="191" type="curve" smooth="yes"/>
      <point x="386" y="191"/>
      <point x="407" y="158"/>
      <point x="407" y="129" type="curve" smooth="yes"/>
      <point x="407" y="48"/>
      <point x="327" y="-12"/>
      <point x="262" y="-12" type="curve" smooth="yes"/>
      <point x="201" y="-12"/>
      <point x="153" y="31"/>
      <point x="104" y="31" type="curve" smooth="yes"/>
      <point x="99" y="31"/>
      <point x="87" y="30"/>
      <point x="78" y="21" type="curve" smooth="yes"/>
      <point x="53" y="-26" type="line"/>
      <point x="-16" y="11" type="line"/>
      <point x="164" y="222" type="line"/>
      <point x="90" y="222" type="line"/>
      <point x="90" y="272" type="line"/>
      <point x="207" y="272" type="line"/>
      <point x="323" y="408" type="line"/>
      <point x="235" y="389" type="line"/>
      <point x="208" y="404"/>
      <point x="177" y="418"/>
      <point x="150" y="418" type="curve" smooth="yes"/>
      <point x="133" y="418"/>
      <point x="107" y="407"/>
      <point x="96" y="389" type="curve"/>
      <point x="149" y="325" type="line"/>
      <point x="144" y="317"/>
      <point x="122" y="292"/>
      <point x="94" y="292" type="curve" smooth="yes"/>
      <point x="56" y="292"/>
      <point x="39" y="326"/>
      <point x="39" y="351" type="curve" smooth="yes"/>
      <point x="39" y="412"/>
      <point x="92" y="494"/>
      <point x="180" y="494" type="curve" smooth="yes"/>
      <point x="240" y="494"/>
      <point x="290" y="444"/>
      <point x="330" y="444" type="curve" smooth="yes"/>
      <point x="334" y="444"/>
      <point x="341" y="445"/>
      <point x="353" y="451" type="curve"/>
      <point x="375" y="507" type="line"/>
      <point x="450" y="468" type="line"/>
      <point x="283" y="272" type="line"/>
      <point x="358" y="272" type="line"/>
    </contour>
  </outline>
</glyph>
<glyph name="uni01BB" format="1">
  <advance width="556"/>
  <unicode hex="01BB"/>
  <outline>
    <contour>
      <point x="516" y="532" type="curve" smooth="yes"/>
      <point x="516" y="454"/>
      <point x="472" y="384"/>
      <point x="405" y="317" type="curve"/>
      <point x="503" y="317" type="line"/>
      <point x="493" y="261" type="line"/>
      <point x="343" y="261" type="line"/>
      <point x="274" y="203"/>
      <point x="191" y="147"/>
      <point x="107" y="87" type="curve"/>
      <point x="386" y="87" type="line"/>
      <point x="419" y="171" type="line"/>
      <point x="472" y="171" type="line"/>
      <point x="440" y="0" type="line"/>
      <point x="-25" y="0" type="line"/>
      <point x="-12" y="69" type="line"/>
      <point x="94" y="145"/>
      <point x="179" y="206"/>
      <point x="244" y="261" type="curve"/>
      <point x="22" y="261" type="line"/>
      <point x="33" y="317" type="line"/>
      <point x="306" y="317" type="line"/>
      <point x="376" y="387"/>
      <point x="411" y="449"/>
      <point x="411" y="521" type="curve" smooth="yes"/>
      <point x="411" y="593"/>
      <point x="370" y="624"/>
      <point x="306" y="624" type="curve" smooth="yes"/>
      <point x="263" y="624"/>
      <point x="227" y="605"/>
      <point x="219" y="601" type="curve"/>
      <point x="200" y="497" type="line" smooth="yes"/>
      <point x="198" y="496"/>
      <point x="179" y="479"/>
      <point x="147" y="479" type="curve" smooth="yes"/>
      <point x="134" y="479"/>
      <point x="98" y="484"/>
      <point x="98" y="524" type="curve" smooth="yes"/>
      <point x="98" y="602"/>
      <point x="213" y="683"/>
      <point x="336" y="683" type="curve" smooth="yes"/>
      <point x="431" y="683"/>
      <point x="516" y="643"/>
    </contour>
  </outline>
</glyph>
